<svg xmlns="http://www.w3.org/2000/svg" xmlns:xlink="http://www.w3.org/1999/xlink" viewBox="0 0 600 600"><defs><style>.cls-1{fill:#fff;opacity:0;}.cls-2{fill:#fddabc;}.cls-3{fill:url(#Degradado_sin_nombre_4);}.cls-4{fill:url(#Degradado_sin_nombre_4-2);}.cls-5{fill:url(#Degradado_sin_nombre_4-3);}.cls-6{fill:url(#Degradado_sin_nombre_4-4);}.cls-7{fill:url(#Degradado_sin_nombre_4-5);}.cls-8{fill:url(#Degradado_sin_nombre_4-6);}.cls-9{fill:url(#Degradado_sin_nombre_4-7);}.cls-10{fill:url(#Degradado_sin_nombre_4-8);}.cls-11{fill:url(#Degradado_sin_nombre_4-9);}.cls-12{fill:url(#Degradado_sin_nombre_4-10);}.cls-13{fill:#f9894c;}</style><linearGradient id="Degradado_sin_nombre_4" y1="300" x2="600" y2="300" gradientUnits="userSpaceOnUse"><stop offset="0" stop-color="#ffcf6d"/><stop offset="1" stop-color="#ffad76"/></linearGradient><linearGradient id="Degradado_sin_nombre_4-2" x1="27.54" y1="55.1" x2="551.8" y2="485.27" xlink:href="#Degradado_sin_nombre_4"/><linearGradient id="Degradado_sin_nombre_4-3" x1="-11.72" y1="102.95" x2="512.54" y2="533.11" xlink:href="#Degradado_sin_nombre_4"/><linearGradient id="Degradado_sin_nombre_4-4" x1="75.11" y1="-2.87" x2="599.37" y2="427.29" xlink:href="#Degradado_sin_nombre_4"/><linearGradient id="Degradado_sin_nombre_4-5" x1="35.85" y1="44.98" x2="560.11" y2="475.14" xlink:href="#Degradado_sin_nombre_4"/><linearGradient id="Degradado_sin_nombre_4-6" x1="145.93" y1="-89.19" x2="670.19" y2="340.97" xlink:href="#Degradado_sin_nombre_4"/><linearGradient id="Degradado_sin_nombre_4-7" x1="50.29" y1="27.38" x2="574.55" y2="457.54" xlink:href="#Degradado_sin_nombre_4"/><linearGradient id="Degradado_sin_nombre_4-8" x1="11.03" y1="75.22" x2="535.29" y2="505.38" xlink:href="#Degradado_sin_nombre_4"/><linearGradient id="Degradado_sin_nombre_4-9" x1="-3.41" y1="92.83" x2="520.85" y2="522.99" xlink:href="#Degradado_sin_nombre_4"/><linearGradient id="Degradado_sin_nombre_4-10" x1="-107.36" y1="219.51" x2="416.9" y2="649.68" xlink:href="#Degradado_sin_nombre_4"/></defs><g id="Capa_2" data-name="Capa 2"><g id="Capa_1-2" data-name="Capa 1"><rect class="cls-1" width="600" height="600"/><rect class="cls-2" y="160.53" width="600" height="37.5"/><rect class="cls-2" y="401.97" width="600" height="37.5"/><rect class="cls-2" y="281.25" width="600" height="37.5"/><path class="cls-3" d="M472.24,60A67.84,67.84,0,0,1,540,127.76V472.24A67.84,67.84,0,0,1,472.24,540H127.75A67.83,67.83,0,0,1,60,472.24V127.76A67.83,67.83,0,0,1,127.75,60H472.24m0-60H127.75A127.76,127.76,0,0,0,0,127.76V472.24A127.76,127.76,0,0,0,127.75,600H472.24A127.76,127.76,0,0,0,600,472.24V127.76A127.76,127.76,0,0,0,472.24,0Z"/><circle class="cls-4" cx="473.13" cy="420.72" r="48.79"/><circle class="cls-5" cx="375.56" cy="420.72" r="48.79"/><circle class="cls-6" cx="444.23" cy="300" r="48.79"/><circle class="cls-7" cx="346.66" cy="300" r="48.79"/><circle class="cls-8" cx="473.13" cy="179.28" r="48.79"/><circle class="cls-9" cx="235.43" cy="179.28" r="48.79"/><circle class="cls-10" cx="137.86" cy="179.28" r="48.79"/><circle class="cls-11" cx="249.08" cy="300" r="48.79"/><circle class="cls-12" cx="137.86" cy="420.72" r="48.79"/><path class="cls-13" d="M159.56,0H436.18a0,0,0,0,1,0,0V50.61a37.93,37.93,0,0,1-37.93,37.93H197.49a37.93,37.93,0,0,1-37.93-37.93V0A0,0,0,0,1,159.56,0Z"/></g></g></svg>