<svg xmlns="http://www.w3.org/2000/svg" xmlns:xlink="http://www.w3.org/1999/xlink" viewBox="0 0 600 600"><defs><style>.cls-1,.cls-6{fill:#fff;}.cls-1{opacity:0;}.cls-2{fill:url(#Degradado_sin_nombre_51);}.cls-3{fill:url(#Degradado_sin_nombre_42);}.cls-4{fill:url(#Degradado_sin_nombre_42-2);}.cls-5{fill:url(#Degradado_sin_nombre_4);}.cls-6{opacity:0.65;}</style><linearGradient id="Degradado_sin_nombre_51" x1="104.92" y1="139.55" x2="442.33" y2="611.29" gradientUnits="userSpaceOnUse"><stop offset="0.11" stop-color="#ffcf6d"/><stop offset="1" stop-color="#ffad76"/></linearGradient><linearGradient id="Degradado_sin_nombre_42" x1="213.94" y1="103.85" x2="385.96" y2="103.85" gradientUnits="userSpaceOnUse"><stop offset="0" stop-color="#f9894c"/><stop offset="1" stop-color="#ffad76"/></linearGradient><linearGradient id="Degradado_sin_nombre_42-2" x1="213.94" y1="148.63" x2="385.96" y2="148.63" xlink:href="#Degradado_sin_nombre_42"/><linearGradient id="Degradado_sin_nombre_4" x1="275.37" y1="-1.24" x2="612.78" y2="470.5" gradientUnits="userSpaceOnUse"><stop offset="0" stop-color="#ffcf6d"/><stop offset="1" stop-color="#ffad76"/></linearGradient></defs><g id="Capa_2" data-name="Capa 2"><g id="Capa_1-2" data-name="Capa 1"><rect class="cls-1" width="600" height="600"/><path class="cls-2" d="M362.23,168H237.77S102,293.46,102,425.42C102,548.28,206.85,600,300,600s198.05-51.72,198.05-174.58C498.05,293.46,362.23,168,362.23,168Z"/><rect class="cls-3" x="213.94" y="81.46" width="172.02" height="44.78" rx="22.39"/><rect class="cls-4" x="213.94" y="126.24" width="172.02" height="44.78" rx="22.39"/><path class="cls-5" d="M386,17.4c-8.94-7.14-9.85,0-33.16,0C329.65,17.4,323.15.26,300.36,0V0l-.2,0L300,0V0C277.15.26,270.66,17.4,247.5,17.4s-24.21-7.14-33.16,0,.46,18.8,4.21,27.06,18.18,37,18.18,37H363.57s14.42-28.72,18.18-37S394.91,24.54,386,17.4Z"/><path class="cls-6" d="M318.05,358.57l-22.68-6.64c-9.37-2.65-14.12-6.34-14.12-11,0-6.33,6.68-10.93,15.9-10.93a25,25,0,0,1,20.27,10c10,12.46,23.72,14.92,36.78,6.57a25.45,25.45,0,0,0,9.07-33.65c-9.27-17.66-25.3-29.58-45.62-34.13V264.56c0-10.09-8.58-18.3-19.13-18.3a19.17,19.17,0,0,0-18.85,18.3V278.4c-33.33,6.77-56,32-56,63.65,0,20.65,9.57,48.22,55.42,62.39l22.83,6.33c16.88,4.82,16.72,9.69,16.62,13-.2,8.61-10.05,11.68-19.21,11.68-14.37,0-20.47-8.18-22.82-13.05-5.54-11.47-20.4-19.84-35.7-14-13.64,5.22-20.34,19.22-15.88,33.4,7.69,23.37,27.86,39.8,54.72,45v16.56c0,9.92,8.63,18.3,18.85,18.3,10.55,0,19.13-8.21,19.13-18.3V486.91c35.44-6.31,58.22-30.21,58.74-62.42C377.06,402.27,367.48,372.78,318.05,358.57Z"/></g></g></svg>