<svg xmlns="http://www.w3.org/2000/svg" xmlns:xlink="http://www.w3.org/1999/xlink" viewBox="0 0 600 600"><defs><style>.cls-1{fill:#fff;opacity:0;}.cls-2{fill:url(#Degradado_sin_nombre_159);}.cls-3{fill:url(#Degradado_sin_nombre_30);}.cls-4{fill:#34b7f7;}</style><linearGradient id="Degradado_sin_nombre_159" x1="332.97" y1="255.96" x2="513.54" y2="579.87" gradientUnits="userSpaceOnUse"><stop offset="0" stop-color="#ffdabe"/><stop offset="1" stop-color="#ffafac"/></linearGradient><linearGradient id="Degradado_sin_nombre_30" x1="220.35" y1="587.21" x2="48.79" y2="305.54" gradientUnits="userSpaceOnUse"><stop offset="0" stop-color="#356cff"/><stop offset="1" stop-color="#00aefa"/></linearGradient></defs><g id="Capa_2" data-name="Capa 2"><g id="Capa_1-2" data-name="Capa 1"><rect class="cls-1" width="600" height="600"/><path class="cls-2" d="M599.42,295.77l-.31-40.83c0-2.85,0-5.69-.1-8.53-1.28-29.15-15-44.89-43.35-49.54a180.75,180.75,0,0,0-32.47-2.45c-26.92.45-58.25,1.07-89.53,2.69a7.25,7.25,0,0,1-.07-.73c-2-32-5.53-64.12-8.69-91.36-2.57-22.1-9.74-39.57-21.92-53.42a94.68,94.68,0,0,0-24.77-20.52c-18.64-10.35-40.27-10.11-57.86.63s-27.72,29.92-27,51.28c.88,27.25-1.9,52-8.52,75.8-1.21,4.38-2.34,8.79-3.47,13.19-3.8,14.86-7.41,28.89-14.29,40.65-12.18,20.82-30.33,38.61-55.47,54.39-11.45,7.19-17.22,17.52-17.18,30.73q.24,77.63.14,155.24v45.09c0,21.09,10.32,31.35,31.55,31.36H318.2l110.62-.11c21.41,0,42.84,0,64.26.25h1.23c31.28,0,56.1-13.11,73.82-39,21.24-31,32-66.85,31.87-106.43C599.93,354.71,599.67,325.24,599.42,295.77Z"/><rect class="cls-3" y="216.57" width="208.43" height="359.94" rx="39.2"/><circle class="cls-4" cx="147.13" cy="522.86" r="25.13"/></g></g></svg>