<svg xmlns="http://www.w3.org/2000/svg" xmlns:xlink="http://www.w3.org/1999/xlink" viewBox="0 0 600 600"><defs><style>.cls-1{fill:#fff;opacity:0;}.cls-2{fill:url(#Degradado_sin_nombre_220);}.cls-3{fill:#916450;opacity:0.34;}.cls-4{fill:url(#Degradado_sin_nombre_28);}.cls-5{fill:url(#Degradado_sin_nombre_28-2);}.cls-6{fill:url(#Degradado_sin_nombre_28-3);}.cls-7{fill:#11726b;opacity:0.26;}</style><linearGradient id="Degradado_sin_nombre_220" x1="299.3" y1="433.74" x2="299.3" y2="579.37" gradientUnits="userSpaceOnUse"><stop offset="0" stop-color="#d49a00"/><stop offset="1" stop-color="#fcdb76"/></linearGradient><linearGradient id="Degradado_sin_nombre_28" x1="154.16" y1="270.38" x2="410.45" y2="465.55" gradientUnits="userSpaceOnUse"><stop offset="0" stop-color="#00e566"/><stop offset="1" stop-color="#00bad2"/></linearGradient><linearGradient id="Degradado_sin_nombre_28-2" x1="186.64" y1="167.86" x2="391.68" y2="343.32" xlink:href="#Degradado_sin_nombre_28"/><linearGradient id="Degradado_sin_nombre_28-3" x1="189.69" y1="38.02" x2="383.86" y2="243.95" xlink:href="#Degradado_sin_nombre_28"/></defs><g id="Capa_2" data-name="Capa 2"><g id="Capa_1-2" data-name="Capa 1"><rect class="cls-1" width="600" height="600"/><path class="cls-2" d="M251.52,460.66h95.55a0,0,0,0,1,0,0v73.56A47.78,47.78,0,0,1,299.3,582h0a47.78,47.78,0,0,1-47.78-47.78V460.66a0,0,0,0,1,0,0Z"/><rect class="cls-3" x="251.52" y="460.66" width="95.55" height="22.71"/><path class="cls-4" d="M299.3,142.4,83.38,403.77A39.17,39.17,0,0,0,94.6,463L98,464.9l404,1.73c.35-.12,2-1.09,4.57-2.6a39.18,39.18,0,0,0,10.06-58.56Z"/><path class="cls-5" d="M299.3,65,130.93,268.79a39.18,39.18,0,0,0,9.63,58.29l4.09,2.52H453.94l4.09-2.52a39.18,39.18,0,0,0,9.63-58.29Z"/><path class="cls-6" d="M406.87,194.71l.63-.37A39.38,39.38,0,0,0,418,135.5L337.35,36.78a50.81,50.81,0,0,0-78.89,0l-79.73,97.56c-15.49,19-10.08,47.5,11.26,59.31l1.9,1.06h215Z"/><polygon class="cls-7" points="424.83 216.94 406.46 194.71 192.13 194.71 192.13 194.71 173.76 216.94 424.83 216.94"/><polygon class="cls-7" points="126.28 351.84 472.31 351.84 453.94 329.6 144.65 329.6 126.28 351.84"/></g></g></svg>