<svg xmlns="http://www.w3.org/2000/svg" xmlns:xlink="http://www.w3.org/1999/xlink" viewBox="0 0 600 600"><defs><style>.cls-1{fill:#fff;opacity:0;}.cls-2{fill:url(#Degradado_sin_nombre_220);}.cls-3{fill:#916450;}.cls-13,.cls-3{opacity:0.34;}.cls-4{fill:url(#Degradado_sin_nombre_28);}.cls-5{fill:url(#Degradado_sin_nombre_28-2);}.cls-6{fill:url(#Degradado_sin_nombre_28-3);}.cls-7{fill:#11726b;opacity:0.26;}.cls-8{fill:url(#Degradado_sin_nombre_232);}.cls-9{fill:url(#Degradado_sin_nombre_220-2);}.cls-10{fill:url(#Degradado_sin_nombre_28-4);}.cls-11{fill:url(#Degradado_sin_nombre_28-5);}.cls-12{fill:url(#Degradado_sin_nombre_28-6);}.cls-13{fill:url(#Degradado_sin_nombre_237);}</style><linearGradient id="Degradado_sin_nombre_220" x1="3446.95" y1="432.99" x2="3446.95" y2="567.13" gradientTransform="matrix(1, 0, 0, -1, -3064.59, 1027.34)" gradientUnits="userSpaceOnUse"><stop offset="0" stop-color="#d49a00"/><stop offset="1" stop-color="#fcdb76"/></linearGradient><linearGradient id="Degradado_sin_nombre_28" x1="3306.82" y1="274.08" x2="3554.26" y2="462.52" gradientTransform="matrix(-1, 0, 0, 1, 3829.31, 0)" gradientUnits="userSpaceOnUse"><stop offset="0" stop-color="#00e566"/><stop offset="1" stop-color="#00bad2"/></linearGradient><linearGradient id="Degradado_sin_nombre_28-2" x1="3338.19" y1="175.13" x2="3536.14" y2="344.52" xlink:href="#Degradado_sin_nombre_28"/><linearGradient id="Degradado_sin_nombre_28-3" x1="3341.13" y1="49.77" x2="3528.6" y2="248.59" xlink:href="#Degradado_sin_nombre_28"/><linearGradient id="Degradado_sin_nombre_232" x1="19.51" y1="247" x2="527.71" y2="247" gradientUnits="userSpaceOnUse"><stop offset="0" stop-color="#115e7c"/><stop offset="1" stop-color="#115e7c" stop-opacity="0"/></linearGradient><linearGradient id="Degradado_sin_nombre_220-2" x1="3610.31" y1="432.99" x2="3610.31" y2="567.13" gradientTransform="matrix(1, 0, 0, -1, -3391.32, 1027.34)" xlink:href="#Degradado_sin_nombre_220"/><linearGradient id="Degradado_sin_nombre_28-4" x1="3470.18" y1="274.08" x2="3717.63" y2="462.52" xlink:href="#Degradado_sin_nombre_28"/><linearGradient id="Degradado_sin_nombre_28-5" x1="3501.56" y1="175.13" x2="3699.5" y2="344.52" xlink:href="#Degradado_sin_nombre_28"/><linearGradient id="Degradado_sin_nombre_28-6" x1="3504.5" y1="49.77" x2="3691.96" y2="248.59" xlink:href="#Degradado_sin_nombre_28"/><linearGradient id="Degradado_sin_nombre_237" x1="343.14" y1="516.03" x2="433.17" y2="516.03" gradientUnits="userSpaceOnUse"><stop offset="0" stop-color="#916450"/><stop offset="1" stop-color="#916450" stop-opacity="0"/></linearGradient></defs><g id="Capa_2" data-name="Capa 2"><g id="Capa_1-2" data-name="Capa 1"><rect class="cls-1" width="600" height="600"/><path class="cls-2" d="M382.36,457.79h0a46.13,46.13,0,0,1,46.13,46.13v65.63a0,0,0,0,1,0,0H336.23a0,0,0,0,1,0,0V503.92A46.13,46.13,0,0,1,382.36,457.79Z" transform="translate(764.72 1027.34) rotate(180)"/><rect class="cls-3" x="336.23" y="457.79" width="92.26" height="21.93" transform="translate(764.72 937.51) rotate(-180)"/><path class="cls-4" d="M382.36,150.54,590.83,402.87A37.81,37.81,0,0,1,580,460l-3.31,1.84-390,1.68c-.34-.12-2-1.06-4.41-2.52a37.82,37.82,0,0,1-9.72-56.53Z"/><path class="cls-5" d="M382.36,75.8,544.92,272.56a37.81,37.81,0,0,1-9.3,56.27l-4,2.44H233.05l-3.94-2.44a37.81,37.81,0,0,1-9.3-56.27Z"/><path class="cls-6" d="M278.5,201l-.61-.35a38,38,0,0,1-10.16-56.81l77.89-95.3a49.07,49.07,0,0,1,76.17,0l77,94.19A38,38,0,0,1,487.9,200l-1.84,1H278.5Z"/><polygon class="cls-7" points="261.16 222.51 278.89 201.04 485.83 201.04 485.83 201.04 503.57 222.51 261.16 222.51"/><polygon class="cls-7" points="549.41 352.73 215.31 352.73 233.05 331.27 531.67 331.27 549.41 352.73"/><path class="cls-8" d="M590.83,402.87l-41.42-50.14-3.64-4.4-14.1-17.06,4-2.44a37.81,37.81,0,0,0,9.3-56.27l-41.35-50.05-6.09-7.37L485.83,201h.23l1.84-1a38,38,0,0,0,10.87-57.25l-77-94.19a49.07,49.07,0,0,0-76.17,0l-77.89,95.3a38,38,0,0,0,10.16,56.81l.61.35h.39l-17.73,21.47h0l-41.35,50.05a37.81,37.81,0,0,0,9.3,56.27l3.94,2.44-60.52,73.24A37.82,37.82,0,0,0,182.25,461c2.44,1.46,4.07,2.4,4.41,2.52l149.57-.65,92.26-.39,148.19-.64L580,460A37.81,37.81,0,0,0,590.83,402.87Z"/><path class="cls-9" d="M219,457.79h0a46.13,46.13,0,0,1,46.13,46.13v65.63a0,0,0,0,1,0,0H172.87a0,0,0,0,1,0,0V503.92A46.13,46.13,0,0,1,219,457.79Z" transform="translate(437.99 1027.34) rotate(180)"/><rect class="cls-3" x="172.87" y="457.79" width="92.26" height="21.93" transform="translate(437.99 937.51) rotate(-180)"/><path class="cls-10" d="M219,150.54,427.47,402.87A37.82,37.82,0,0,1,416.63,460l-3.32,1.84-390,1.68c-.34-.12-2-1.06-4.42-2.52a37.82,37.82,0,0,1-9.71-56.53Z"/><path class="cls-11" d="M219,75.8,381.55,272.56a37.81,37.81,0,0,1-9.3,56.27l-3.94,2.44H69.68l-3.94-2.44a37.81,37.81,0,0,1-9.3-56.27Z"/><path class="cls-12" d="M115.13,201l-.6-.35a38,38,0,0,1-10.17-56.81l77.9-95.3a49.06,49.06,0,0,1,76.16,0l77,94.19A38,38,0,0,1,324.54,200l-1.84,1H115.13Z"/><polygon class="cls-7" points="97.79 222.51 115.53 201.04 322.47 201.04 322.47 201.04 340.2 222.51 97.79 222.51"/><polygon class="cls-7" points="386.05 352.73 51.95 352.73 69.69 331.27 368.31 331.27 386.05 352.73"/><path class="cls-13" d="M336.23,479.72v43.7a46.13,46.13,0,0,0,92.26,0v-60.9l-92.26.39Z"/></g></g></svg>