<svg xmlns="http://www.w3.org/2000/svg" xmlns:xlink="http://www.w3.org/1999/xlink" viewBox="0 0 600 600"><defs><style>.cls-1{fill:#fff;opacity:0;}.cls-2{fill:url(#Degradado_sin_nombre_159);}.cls-3{fill:url(#Degradado_sin_nombre_184);}.cls-4{fill:url(#Degradado_sin_nombre_184-2);}.cls-5{fill:url(#Degradado_sin_nombre_184-3);}.cls-6{fill:url(#Degradado_sin_nombre_184-4);}.cls-7{fill:url(#Degradado_sin_nombre_202);}.cls-8{fill:url(#Degradado_sin_nombre_202-2);}</style><linearGradient id="Degradado_sin_nombre_159" x1="153.04" y1="216.42" x2="522.22" y2="520.58" gradientUnits="userSpaceOnUse"><stop offset="0" stop-color="#ffdabe"/><stop offset="1" stop-color="#ffafac"/></linearGradient><linearGradient id="Degradado_sin_nombre_184" x1="90.4" y1="196.09" x2="510" y2="196.09" gradientUnits="userSpaceOnUse"><stop offset="0" stop-color="#585967"/><stop offset="1" stop-color="#42466e"/></linearGradient><linearGradient id="Degradado_sin_nombre_184-2" x1="133.39" y1="49.21" x2="615.36" y2="524.97" xlink:href="#Degradado_sin_nombre_184"/><linearGradient id="Degradado_sin_nombre_184-3" x1="66.66" y1="116.81" x2="548.63" y2="592.57" xlink:href="#Degradado_sin_nombre_184"/><linearGradient id="Degradado_sin_nombre_184-4" x1="258.92" y1="488.23" x2="377.84" y2="565.05" xlink:href="#Degradado_sin_nombre_184"/><linearGradient id="Degradado_sin_nombre_202" x1="22.12" y1="298.63" x2="119.12" y2="403.52" gradientUnits="userSpaceOnUse"><stop offset="0" stop-color="#71abff"/><stop offset="1" stop-color="#5096c6"/></linearGradient><linearGradient id="Degradado_sin_nombre_202-2" x1="500.13" y1="271.78" x2="600.51" y2="411.63" gradientTransform="translate(1110 670.25) rotate(180)" xlink:href="#Degradado_sin_nombre_202"/></defs><g id="Capa_2" data-name="Capa 2"><g id="Capa_1-2" data-name="Capa 1"><rect class="cls-1" width="600" height="600"/><rect class="cls-2" x="90" y="75" width="420" height="525" rx="210"/><path class="cls-3" d="M300,75h0C188.42,75,97.17,162,90.4,271.9h87.8A65.77,65.77,0,0,0,220,257a88.56,88.56,0,0,0,83.89,60.2h163.3a88.08,88.08,0,0,0,42.79-11V285C510,169,416,75,300,75Z"/><path class="cls-4" d="M570.13,270.13H531.24a231.24,231.24,0,1,0-462.48,0H29.87A270.2,270.2,0,0,1,548.9,165,268.44,268.44,0,0,1,570.13,270.13Z"/><path class="cls-5" d="M520.79,426.07a123.42,123.42,0,0,1-114.46,77.51H315v31.11h91.33A154.5,154.5,0,0,0,554.05,425.18a56.64,56.64,0,0,1-10,.89Z"/><rect class="cls-6" x="244.22" y="480.36" width="111.57" height="68.8" rx="32.43"/><path class="cls-7" d="M52.63,244.18H76a14,14,0,0,1,14,14V412.09a14,14,0,0,1-14,14H52.63A52.63,52.63,0,0,1,0,373.44V296.81A52.63,52.63,0,0,1,52.63,244.18Z"/><path class="cls-8" d="M562.63,244.18H586a14,14,0,0,1,14,14V412.09a14,14,0,0,1-14,14H562.63A52.63,52.63,0,0,1,510,373.44V296.81a52.63,52.63,0,0,1,52.63-52.63Z" transform="translate(1110 670.25) rotate(-180)"/></g></g></svg>