<svg xmlns="http://www.w3.org/2000/svg" xmlns:xlink="http://www.w3.org/1999/xlink" viewBox="0 0 600 600"><defs><style>.cls-1{fill:#fff;opacity:0;}.cls-2,.cls-5{fill:#3f6a70;}.cls-3{fill:#daedf2;}.cls-4{fill:#3a3a3a;}.cls-4,.cls-7{opacity:0.2;}.cls-5{opacity:0.29;}.cls-6{fill:url(#Degradado_sin_nombre_34);}.cls-7{fill:#000b26;}</style><linearGradient id="Degradado_sin_nombre_34" x1="197.39" y1="171.31" x2="477.38" y2="451.3" gradientUnits="userSpaceOnUse"><stop offset="0" stop-color="#00f4f3"/><stop offset="1" stop-color="#0bf"/></linearGradient></defs><g id="Capa_2" data-name="Capa 2"><g id="Capa_1-2" data-name="Capa 1"><rect class="cls-1" width="600" height="600"/><rect class="cls-2" x="100.45" y="59.98" width="95.22" height="92.69"/><rect class="cls-3" x="100.45" y="152.67" width="95.22" height="92.69"/><rect class="cls-2" x="100.45" y="245.35" width="95.22" height="92.69"/><rect class="cls-3" x="100.45" y="338.04" width="95.22" height="92.69"/><rect class="cls-3" x="195.66" y="59.98" width="95.22" height="92.69"/><rect class="cls-2" x="195.66" y="152.67" width="95.22" height="92.69"/><rect class="cls-3" x="195.66" y="245.35" width="95.22" height="92.69"/><rect class="cls-2" x="195.66" y="338.04" width="95.22" height="92.69"/><rect class="cls-2" x="290.88" y="59.98" width="78.82" height="92.7"/><rect class="cls-3" x="290.88" y="152.68" width="78.82" height="92.7"/><rect class="cls-2" x="290.88" y="245.38" width="78.82" height="92.7"/><rect class="cls-3" x="290.88" y="338.09" width="78.82" height="92.7"/><rect class="cls-4" x="67.09" y="59.94" width="302.61" height="370.79"/><rect class="cls-4" x="67.09" y="59.94" width="53.1" height="370.79"/><polygon class="cls-5" points="369.7 430.79 301.68 370.84 369.7 370.84 369.7 430.79"/><polygon class="cls-6" points="396.89 370.8 301.68 370.8 301.68 370.84 492.11 370.84 492.11 370.8 396.89 370.8"/><path class="cls-2" d="M396.89.05H344.47a42.79,42.79,0,0,0-42.79,42.79v49.9h95.21Z"/><rect class="cls-3" x="301.68" y="92.74" width="95.22" height="92.69"/><rect class="cls-2" x="301.68" y="185.42" width="95.22" height="92.69"/><rect class="cls-3" x="301.68" y="278.11" width="95.22" height="92.69"/><rect class="cls-3" x="396.89" y="0.05" width="95.22" height="92.69"/><polygon class="cls-2" points="492.11 92.75 492.11 92.74 396.89 92.74 396.89 185.42 492.11 185.42 492.11 92.75"/><polygon class="cls-3" points="492.11 185.45 492.11 185.42 396.89 185.42 396.89 278.11 492.11 278.11 492.11 185.45"/><polygon class="cls-2" points="396.89 278.11 396.89 370.8 492.11 370.8 492.11 278.15 492.11 278.11 396.89 278.11"/><path class="cls-2" d="M492.11,92.75h80.55l6.42-13.26C596.9,42.76,570.14.05,529.32.05H492.11V92.74Z"/><polygon class="cls-3" points="492.11 185.42 492.11 185.45 527.71 185.45 527.71 185.45 572.66 92.75 492.11 92.75 492.11 185.42"/><polygon class="cls-2" points="492.11 278.11 492.11 278.15 572.66 278.15 527.71 185.45 492.11 185.45 492.11 278.11"/><path class="cls-3" d="M579.08,291.4l-6.42-13.24H492.11v92.68h37.21C570.14,370.84,596.9,328.13,579.08,291.4Z"/><rect class="cls-2" x="33.69" width="66.8" height="599.36" rx="33.4"/><path class="cls-7" d="M100.49,523.68a51.66,51.66,0,0,0-66.8,0v30.66h66.8Z"/><path class="cls-2" d="M67.09,525.57h0a51.78,51.78,0,0,1,51.78,51.78V600a0,0,0,0,1,0,0H15.3a0,0,0,0,1,0,0V577.35A51.78,51.78,0,0,1,67.09,525.57Z"/></g></g></svg>