<svg xmlns="http://www.w3.org/2000/svg" xmlns:xlink="http://www.w3.org/1999/xlink" viewBox="0 0 600 600"><defs><style>.cls-1{fill:#fff;opacity:0;}.cls-2{fill:url(#Degradado_sin_nombre_4);}.cls-3{fill:url(#Degradado_sin_nombre_4-2);}.cls-4{fill:url(#Degradado_sin_nombre_30);}.cls-5{fill:url(#Degradado_sin_nombre_30-2);}.cls-6{fill:#fecf6e;}.cls-7{fill:url(#Degradado_sin_nombre_30-3);}.cls-8{fill:url(#Degradado_sin_nombre_30-4);}.cls-9{fill:url(#Degradado_sin_nombre_4-3);}.cls-10{fill:url(#Degradado_sin_nombre_4-4);}.cls-11{fill:url(#Degradado_sin_nombre_4-5);}.cls-12{fill:url(#Degradado_sin_nombre_4-6);}.cls-13{fill:url(#Degradado_sin_nombre_4-7);}.cls-14{fill:url(#Degradado_sin_nombre_4-8);}.cls-15{fill:url(#Degradado_sin_nombre_4-9);}.cls-16{fill:url(#Degradado_sin_nombre_30-5);}.cls-17{fill:url(#Degradado_sin_nombre_30-6);}.cls-18{fill:url(#Degradado_sin_nombre_30-7);}.cls-19{fill:url(#Degradado_sin_nombre_30-8);}.cls-20{fill:url(#Degradado_sin_nombre_30-9);}.cls-21{fill:url(#Degradado_sin_nombre_30-10);}.cls-22{fill:url(#Degradado_sin_nombre_30-11);}</style><linearGradient id="Degradado_sin_nombre_4" x1="457.65" y1="539.6" x2="482.34" y2="539.6" gradientUnits="userSpaceOnUse"><stop offset="0" stop-color="#ffcf6d"/><stop offset="1" stop-color="#ffad76"/></linearGradient><linearGradient id="Degradado_sin_nombre_4-2" x1="583.05" y1="393.42" x2="593.21" y2="393.42" xlink:href="#Degradado_sin_nombre_4"/><linearGradient id="Degradado_sin_nombre_30" x1="143.34" y1="108.66" x2="173.5" y2="108.66" gradientUnits="userSpaceOnUse"><stop offset="0" stop-color="#356cff"/><stop offset="1" stop-color="#00aefa"/></linearGradient><linearGradient id="Degradado_sin_nombre_30-2" x1="490.1" y1="144.09" x2="532.12" y2="144.09" xlink:href="#Degradado_sin_nombre_30"/><linearGradient id="Degradado_sin_nombre_30-3" x1="23.64" y1="232.26" x2="57.52" y2="232.26" gradientTransform="translate(-152.35 96.72) rotate(-45)" xlink:href="#Degradado_sin_nombre_30"/><linearGradient id="Degradado_sin_nombre_30-4" x1="97.78" y1="536.13" x2="119.6" y2="536.13" gradientTransform="translate(-347.26 233.88) rotate(-45)" xlink:href="#Degradado_sin_nombre_30"/><linearGradient id="Degradado_sin_nombre_4-3" x1="75.1" y1="85.08" x2="104.82" y2="85.08" xlink:href="#Degradado_sin_nombre_4"/><linearGradient id="Degradado_sin_nombre_4-4" x1="80.1" y1="119.84" x2="115.69" y2="119.84" xlink:href="#Degradado_sin_nombre_4"/><linearGradient id="Degradado_sin_nombre_4-5" x1="66.11" y1="147.71" x2="85.23" y2="147.71" xlink:href="#Degradado_sin_nombre_4"/><linearGradient id="Degradado_sin_nombre_4-6" x1="30.46" y1="147.71" x2="49.58" y2="147.71" xlink:href="#Degradado_sin_nombre_4"/><linearGradient id="Degradado_sin_nombre_4-7" x1="0" y1="119.83" x2="35.59" y2="119.83" xlink:href="#Degradado_sin_nombre_4"/><linearGradient id="Degradado_sin_nombre_4-8" x1="10.88" y1="85.08" x2="40.58" y2="85.08" xlink:href="#Degradado_sin_nombre_4"/><linearGradient id="Degradado_sin_nombre_4-9" x1="54.89" y1="69.62" x2="60.79" y2="69.62" xlink:href="#Degradado_sin_nombre_4"/><linearGradient id="Degradado_sin_nombre_30-5" x1="570.1" y1="480.63" x2="591.99" y2="480.63" xlink:href="#Degradado_sin_nombre_30"/><linearGradient id="Degradado_sin_nombre_30-6" x1="573.79" y1="506.23" x2="600" y2="506.23" xlink:href="#Degradado_sin_nombre_30"/><linearGradient id="Degradado_sin_nombre_30-7" x1="563.48" y1="526.76" x2="577.56" y2="526.76" xlink:href="#Degradado_sin_nombre_30"/><linearGradient id="Degradado_sin_nombre_30-8" x1="537.22" y1="526.76" x2="551.3" y2="526.76" xlink:href="#Degradado_sin_nombre_30"/><linearGradient id="Degradado_sin_nombre_30-9" x1="514.77" y1="506.23" x2="540.99" y2="506.23" xlink:href="#Degradado_sin_nombre_30"/><linearGradient id="Degradado_sin_nombre_30-10" x1="522.79" y1="480.63" x2="544.67" y2="480.63" xlink:href="#Degradado_sin_nombre_30"/><linearGradient id="Degradado_sin_nombre_30-11" x1="555.21" y1="469.23" x2="559.56" y2="469.23" xlink:href="#Degradado_sin_nombre_30"/></defs><g id="Capa_2" data-name="Capa 2"><g id="Capa_1-2" data-name="Capa 1"><rect class="cls-1" width="600" height="600"/><path class="cls-2" d="M470,551.94a12.35,12.35,0,1,1,12.34-12.34A12.36,12.36,0,0,1,470,551.94Zm0-20.4a8.06,8.06,0,1,0,8.05,8.06A8.07,8.07,0,0,0,470,531.54Z"/><circle class="cls-3" cx="588.13" cy="393.42" r="5.08"/><path class="cls-4" d="M171.28,106.44A10.65,10.65,0,0,1,160.64,95.8a2.22,2.22,0,1,0-4.44,0,10.65,10.65,0,0,1-10.64,10.64,2.23,2.23,0,0,0,0,4.45,10.65,10.65,0,0,1,10.64,10.63,2.22,2.22,0,1,0,4.44,0,10.65,10.65,0,0,1,10.64-10.63,2.23,2.23,0,0,0,0-4.45Z"/><path class="cls-5" d="M529.92,141.88a16.62,16.62,0,0,1-16.6-16.6,2.21,2.21,0,1,0-4.41,0,16.63,16.63,0,0,1-16.61,16.6,2.21,2.21,0,0,0,0,4.41,16.63,16.63,0,0,1,16.61,16.61,2.21,2.21,0,0,0,4.41,0,16.62,16.62,0,0,1,16.6-16.61,2.21,2.21,0,0,0,0-4.41Z"/><rect class="cls-6" x="445.68" y="53.02" width="23.95" height="23.95" transform="translate(180 -304.57) rotate(45)"/><rect class="cls-7" x="28.61" y="220.29" width="23.95" height="23.95" transform="translate(176.12 39.33) rotate(45)"/><rect class="cls-8" x="100.97" y="528.41" width="15.43" height="15.43" transform="translate(410.93 80.17) rotate(45)"/><path class="cls-9" d="M78.06,96.77a3,3,0,0,1-2.39-1.2,3,3,0,0,1,.64-4.13L100.12,74a3,3,0,0,1,3.49,4.76L79.8,96.2A2.94,2.94,0,0,1,78.06,96.77Z"/><path class="cls-10" d="M112.73,126.93a3.07,3.07,0,0,1-.79-.11l-29.68-8.29a2.95,2.95,0,1,1,1.59-5.68l29.68,8.29a2.95,2.95,0,0,1-.8,5.79Z"/><path class="cls-11" d="M82.27,165.13a2.94,2.94,0,0,1-2.68-1.73L66.38,134.46A3,3,0,0,1,71.75,132L85,161a3,3,0,0,1-1.46,3.91A3,3,0,0,1,82.27,165.13Z"/><path class="cls-12" d="M33.42,165.13a3,3,0,0,1-1.23-.27A3,3,0,0,1,30.73,161L43.94,132a3,3,0,1,1,5.37,2.45L36.1,163.4A2.94,2.94,0,0,1,33.42,165.13Z"/><path class="cls-13" d="M3,126.93a2.95,2.95,0,0,1-.79-5.79l29.68-8.29a2.95,2.95,0,1,1,1.59,5.68L3.75,126.82A3.21,3.21,0,0,1,3,126.93Z"/><path class="cls-14" d="M37.63,96.77a3,3,0,0,1-1.75-.57L12.08,78.72A2.95,2.95,0,0,1,15.57,74L39.38,91.44a3,3,0,0,1-1.75,5.33Z"/><path class="cls-15" d="M57.84,87a3,3,0,0,1-3-3V55.15a2.95,2.95,0,1,1,5.9,0V84.09A3,3,0,0,1,57.84,87Z"/><path class="cls-16" d="M572.28,489.24a2.18,2.18,0,0,1-1.29-3.93l17.54-12.87a2.17,2.17,0,1,1,2.57,3.5l-17.54,12.88A2.16,2.16,0,0,1,572.28,489.24Z"/><path class="cls-17" d="M597.83,511.45a2,2,0,0,1-.59-.08l-21.87-6.1a2.17,2.17,0,1,1,1.18-4.18l21.86,6.1a2.17,2.17,0,0,1-.58,4.26Z"/><path class="cls-18" d="M575.39,539.6a2.16,2.16,0,0,1-2-1.27L563.68,517a2.17,2.17,0,1,1,4-1.8l9.73,21.32a2.17,2.17,0,0,1-1.07,2.88A2.22,2.22,0,0,1,575.39,539.6Z"/><path class="cls-19" d="M539.39,539.6a2.22,2.22,0,0,1-.9-.2,2.19,2.19,0,0,1-1.08-2.88l9.74-21.32a2.17,2.17,0,1,1,4,1.8l-9.73,21.33A2.16,2.16,0,0,1,539.39,539.6Z"/><path class="cls-20" d="M517,511.45a2.17,2.17,0,0,1-.59-4.26l21.87-6.1a2.17,2.17,0,1,1,1.18,4.18l-21.88,6.1A1.93,1.93,0,0,1,517,511.45Z"/><path class="cls-21" d="M542.5,489.24a2.21,2.21,0,0,1-1.29-.42l-17.54-12.88a2.17,2.17,0,0,1,2.58-3.5l17.53,12.87a2.18,2.18,0,0,1-1.28,3.93Z"/><path class="cls-22" d="M557.39,482.07a2.18,2.18,0,0,1-2.18-2.18V458.57a2.18,2.18,0,0,1,4.35,0v21.32A2.17,2.17,0,0,1,557.39,482.07Z"/></g></g></svg>