<svg xmlns="http://www.w3.org/2000/svg" xmlns:xlink="http://www.w3.org/1999/xlink" viewBox="0 0 600 600"><defs><style>.cls-1,.cls-4{fill:#fff;}.cls-1{opacity:0;}.cls-2{fill:url(#Degradado_sin_nombre_18);}.cls-3{fill:#ffb000;}.cls-5{fill:url(#Degradado_sin_nombre_25);}.cls-6{fill:url(#Degradado_sin_nombre_159);}.cls-7{fill:#994d23;}.cls-8{fill:url(#Degradado_sin_nombre_159-2);}.cls-9{fill:url(#Degradado_sin_nombre_159-3);}.cls-10{fill:url(#Degradado_sin_nombre_159-4);}.cls-11{fill:url(#Degradado_sin_nombre_159-5);}.cls-12{fill:url(#Degradado_sin_nombre_30);}.cls-13{fill:url(#Degradado_sin_nombre_30-2);}</style><linearGradient id="Degradado_sin_nombre_18" x1="141.6" y1="107.49" x2="470.89" y2="557.09" gradientUnits="userSpaceOnUse"><stop offset="0" stop-color="#fee28d"/><stop offset="1" stop-color="#f8ad14"/></linearGradient><linearGradient id="Degradado_sin_nombre_25" x1="358.16" y1="411.77" x2="222.44" y2="289.55" gradientUnits="userSpaceOnUse"><stop offset="0" stop-color="#af6733"/><stop offset="1" stop-color="#ed8d00"/></linearGradient><linearGradient id="Degradado_sin_nombre_159" x1="283.37" y1="240.19" x2="376.65" y2="367.55" gradientUnits="userSpaceOnUse"><stop offset="0" stop-color="#ffdabe"/><stop offset="1" stop-color="#ffafac"/></linearGradient><linearGradient id="Degradado_sin_nombre_159-2" x1="2222.25" y1="3416.97" x2="2245.13" y2="3448.21" gradientTransform="translate(-1973.94 -3062.57)" xlink:href="#Degradado_sin_nombre_159"/><linearGradient id="Degradado_sin_nombre_159-3" x1="3038.86" y1="3437.51" x2="3061.13" y2="3467.92" gradientTransform="translate(-2324.44 -3067.23) scale(0.85 1)" xlink:href="#Degradado_sin_nombre_159"/><linearGradient id="Degradado_sin_nombre_159-4" x1="3758.47" y1="3458.02" x2="3780.29" y2="3487.8" gradientTransform="translate(-2552.35 -3071.88) scale(0.75 1)" xlink:href="#Degradado_sin_nombre_159"/><linearGradient id="Degradado_sin_nombre_159-5" x1="3442.49" y1="3397.42" x2="3464.5" y2="3427.47" gradientTransform="translate(-2496.14 -3054.69) scale(0.79 1)" xlink:href="#Degradado_sin_nombre_159"/><linearGradient id="Degradado_sin_nombre_30" x1="422.52" y1="303.5" x2="344.97" y2="250.47" gradientTransform="translate(-81.5 343.13) rotate(-45)" gradientUnits="userSpaceOnUse"><stop offset="0" stop-color="#356cff"/><stop offset="1" stop-color="#00aefa"/></linearGradient><linearGradient id="Degradado_sin_nombre_30-2" x1="-4729.46" y1="3276.61" x2="-4808.18" y2="3222.78" gradientTransform="translate(1313.49 -5392.85) rotate(-45)" xlink:href="#Degradado_sin_nombre_30"/></defs><g id="Capa_2" data-name="Capa 2"><g id="Capa_1-2" data-name="Capa 1"><rect class="cls-1" width="600" height="600"/><path class="cls-2" d="M507.38,395.64V251.89a82.9,82.9,0,0,0-41.44-71.79l-124.5-71.87a82.86,82.86,0,0,0-82.88,0L134.06,180.1a82.9,82.9,0,0,0-41.44,71.79V395.64a82.89,82.89,0,0,0,41.44,71.78l124.5,71.88a82.86,82.86,0,0,0,82.88,0l124.5-71.88A82.89,82.89,0,0,0,507.38,395.64Z"/><circle class="cls-3" cx="300" cy="323.76" r="174.23"/><circle class="cls-4" cx="300" cy="323.76" r="141.58"/><path class="cls-5" d="M351.1,375.69a12,12,0,0,0,17-17L340,330.6l-.15.13-37-37-41.79-29.32-23.54,23.1v0l-1.93,1.93-3.2,3.13,0,0-24,24,24,23.84,4,13.18,7.73,4.76,39.37,36a12.58,12.58,0,0,0,0,17.81l4.91,4.91a12.57,12.57,0,0,0,21.18-11.56l5.75,5.75a12.67,12.67,0,0,0,17.92,0h0a12.67,12.67,0,0,0,0-17.92l3.81,3.8a12.58,12.58,0,1,0,17.79-17.79Z"/><path class="cls-6" d="M337,257.14l49,49s-3.71,9.56-4.07,13.63-14.16,25.32-20.44,32.58l-58.64-58.64-30.3-1.4a11.53,11.53,0,0,1-11-11.51h0a11.52,11.52,0,0,1,10-11.42l55-7.5Z"/><path class="cls-7" d="M309.57,405.59c-7.7-7-15.79-15.33-23.31-22.65l-7.68-7.64a.5.5,0,1,1,.7-.7l7.64,7.68c7.33,7.53,15.6,15.6,22.65,23.31Z"/><path class="cls-7" d="M351.1,375.69c-4.31-3.86-10.24-9.85-14.46-13.95q-7.17-7-14.3-14.1a.5.5,0,1,1,.71-.71q7.09,7.11,14.11,14.3c4.11,4.23,10.06,10.12,13.94,14.46Z"/><path class="cls-7" d="M333.24,393.42c-4.65-4.24-9.06-8.7-13.56-13.08s-9-8.78-13.43-13.21a.5.5,0,0,1,0-.71.48.48,0,0,1,.7,0c4.44,4.45,8.83,8.94,13.22,13.43s8.84,8.92,13.07,13.57Z"/><rect class="cls-8" x="241.09" y="359.34" width="36.46" height="20.17" rx="10.08" transform="translate(-185.27 291.57) rotate(-45)"/><rect class="cls-9" x="256.8" y="374.82" width="31.04" height="20.17" rx="10.08" transform="translate(-192.41 305.3) rotate(-45)"/><rect class="cls-10" x="271.62" y="390.38" width="27.45" height="20.17" rx="10.08" transform="translate(-199.6 319.06) rotate(-45)"/><rect class="cls-11" x="228.65" y="347.1" width="28.92" height="20.17" rx="10.08" transform="translate(-181.37 276.52) rotate(-45)"/><rect class="cls-12" x="331.04" y="249.2" width="84.81" height="41.49" rx="15.42" transform="translate(300.26 -185) rotate(45)"/><path class="cls-13" d="M190.74,259.6h71a6.91,6.91,0,0,1,6.91,6.91V284.9a16.19,16.19,0,0,1-16.19,16.19H200a16.19,16.19,0,0,1-16.19-16.19V266.51A6.91,6.91,0,0,1,190.74,259.6Z" transform="translate(584.44 318.6) rotate(135)"/><circle class="cls-4" cx="392.05" cy="288.55" r="6.03"/><circle class="cls-4" cx="207.13" cy="299.45" r="6.03"/></g></g></svg>