<svg xmlns="http://www.w3.org/2000/svg" xmlns:xlink="http://www.w3.org/1999/xlink" viewBox="0 0 600 600"><defs><style>.cls-1{fill:url(#Degradado_sin_nombre_24);}.cls-2{fill:url(#Degradado_sin_nombre_34);}.cls-3{fill:url(#Degradado_sin_nombre_34-2);}.cls-4{fill:url(#Degradado_sin_nombre_34-3);}.cls-5{fill:url(#Degradado_sin_nombre_34-4);}.cls-6{fill:url(#Degradado_sin_nombre_34-5);}.cls-7{fill:url(#Degradado_sin_nombre_34-6);}.cls-8{fill:#33379f;opacity:0.37;}.cls-9{fill:#fff;opacity:0;}</style><linearGradient id="Degradado_sin_nombre_24" x1="184.31" y1="60.69" x2="418.79" y2="654.69" gradientUnits="userSpaceOnUse"><stop offset="0" stop-color="#fff"/><stop offset="1" stop-color="#e2e1f1"/></linearGradient><linearGradient id="Degradado_sin_nombre_34" x1="158.88" y1="-53.87" x2="656.35" y2="354.42" gradientUnits="userSpaceOnUse"><stop offset="0" stop-color="#00f4f3"/><stop offset="1" stop-color="#0bf"/></linearGradient><linearGradient id="Degradado_sin_nombre_34-2" x1="-80.42" y1="237.69" x2="417.05" y2="645.99" gradientTransform="translate(66.67 684.81) rotate(-180)" xlink:href="#Degradado_sin_nombre_34"/><linearGradient id="Degradado_sin_nombre_34-3" x1="123.11" y1="-10.29" x2="620.58" y2="398" xlink:href="#Degradado_sin_nombre_34"/><linearGradient id="Degradado_sin_nombre_34-4" x1="66.86" y1="58.25" x2="564.33" y2="466.55" xlink:href="#Degradado_sin_nombre_34"/><linearGradient id="Degradado_sin_nombre_34-5" x1="-24.06" y1="169.03" x2="473.41" y2="577.33" xlink:href="#Degradado_sin_nombre_34"/><linearGradient id="Degradado_sin_nombre_34-6" x1="-20.92" y1="165.2" x2="476.55" y2="573.49" xlink:href="#Degradado_sin_nombre_34"/></defs><g id="Capa_2" data-name="Capa 2"><g id="Capa_1-2" data-name="Capa 1"><rect class="cls-1" x="66.67" y="107.54" width="466.67" height="492.46" rx="143.22"/><path class="cls-2" d="M296.67,0h6.67a30,30,0,0,1,30,30v78.09a0,0,0,0,1,0,0H266.66a0,0,0,0,1,0,0V30a30,30,0,0,1,30-30Z"/><path class="cls-3" d="M0,268.57H23.59a43.08,43.08,0,0,1,43.08,43.08v61.52a43.08,43.08,0,0,1-43.08,43.08H0a0,0,0,0,1,0,0V268.57A0,0,0,0,1,0,268.57Z" transform="translate(66.67 684.81) rotate(180)"/><path class="cls-4" d="M533.33,268.57h23.59A43.08,43.08,0,0,1,600,311.64v61.52a43.08,43.08,0,0,1-43.08,43.08H533.33a0,0,0,0,1,0,0V268.57A0,0,0,0,1,533.33,268.57Z"/><path class="cls-5" d="M413,303.23a54.06,54.06,0,0,0-53.4,45.68,7.36,7.36,0,0,0,7.33,8.35H459a7.36,7.36,0,0,0,7.33-8.35A54,54,0,0,0,413,303.23Z"/><path class="cls-6" d="M187.05,303.23a54,54,0,0,0-53.39,45.68,7.36,7.36,0,0,0,7.33,8.35h92.13a7.36,7.36,0,0,0,7.33-8.35A54.06,54.06,0,0,0,187.05,303.23Z"/><rect class="cls-7" x="246.99" y="410.94" width="106.01" height="35.3" rx="17.65"/><rect class="cls-8" x="533.33" y="268.57" width="17.06" height="147.67"/><rect class="cls-8" x="49.61" y="268.57" width="17.06" height="147.67"/><rect class="cls-9" width="600" height="600"/></g></g></svg>