<svg xmlns="http://www.w3.org/2000/svg" xmlns:xlink="http://www.w3.org/1999/xlink" viewBox="0 0 600 600"><defs><style>.cls-1{fill:#fff;opacity:0;}.cls-2{fill:url(#Degradado_sin_nombre_48);}.cls-3{fill:url(#Degradado_sin_nombre_48-2);}.cls-4{fill:url(#Degradado_sin_nombre_48-3);}.cls-5{fill:#f99bb0;opacity:0.76;}</style><linearGradient id="Degradado_sin_nombre_48" x1="243.66" y1="300" x2="468.43" y2="300" gradientUnits="userSpaceOnUse"><stop offset="0" stop-color="#ff395f"/><stop offset="1" stop-color="#ff5c4d"/></linearGradient><linearGradient id="Degradado_sin_nombre_48-2" x1="131.57" x2="356.35" xlink:href="#Degradado_sin_nombre_48"/><linearGradient id="Degradado_sin_nombre_48-3" x1="161.43" y1="298.88" x2="431.36" y2="298.88" xlink:href="#Degradado_sin_nombre_48"/></defs><g id="Capa_2" data-name="Capa 2"><g id="Capa_1-2" data-name="Capa 1"><rect class="cls-1" width="600" height="600"/><path class="cls-2" d="M412.08,600H397.41c-84.78,0-153.75-69-153.75-153.75V153.75C243.66,69,312.63,0,397.41,0h14.67a56.35,56.35,0,1,1,0,112.69H397.41a41.11,41.11,0,0,0-41.06,41.06v292.5a41.11,41.11,0,0,0,41.06,41.06h14.67a56.35,56.35,0,1,1,0,112.69Z"/><path class="cls-3" d="M202.59,600H187.92a56.35,56.35,0,1,1,0-112.69h14.67a41.11,41.11,0,0,0,41.07-41.06V153.75a41.11,41.11,0,0,0-41.07-41.06H187.92A56.35,56.35,0,1,1,187.92,0h14.67c84.78,0,153.76,69,153.76,153.75v292.5C356.35,531,287.37,600,202.59,600Z"/><rect class="cls-4" x="161.43" y="248.63" width="269.93" height="100.51" rx="50.25"/><rect class="cls-5" x="161.43" y="248.63" width="269.93" height="100.51" rx="50.25"/></g></g></svg>