<svg xmlns="http://www.w3.org/2000/svg" xmlns:xlink="http://www.w3.org/1999/xlink" width="90" height="90" viewBox="0 0 90 90">
  <defs>
    <filter id="Trazado_490" x="0" y="0" width="45.455" height="45.455" filterUnits="userSpaceOnUse">
      <feOffset dx="5" dy="5" input="SourceAlpha"/>
      <feGaussianBlur stdDeviation="5" result="blur"/>
      <feFlood flood-color="#b1b1b1" flood-opacity="0.184"/>
      <feComposite operator="in" in2="blur"/>
      <feComposite in="SourceGraphic"/>
    </filter>
    <filter id="Trazado_490-2" x="0" y="0" width="45.455" height="45.455" filterUnits="userSpaceOnUse">
      <feOffset input="SourceAlpha"/>
      <feGaussianBlur stdDeviation="3" result="blur-2"/>
      <feFlood flood-opacity="0.161" result="color"/>
      <feComposite operator="out" in="SourceGraphic" in2="blur-2"/>
      <feComposite operator="in" in="color"/>
      <feComposite operator="in" in2="SourceGraphic"/>
    </filter>
    <filter id="Trazado_491" x="44.545" y="0" width="45.455" height="45.455" filterUnits="userSpaceOnUse">
      <feOffset dx="5" dy="5" input="SourceAlpha"/>
      <feGaussianBlur stdDeviation="5" result="blur-3"/>
      <feFlood flood-color="#b1b1b1" flood-opacity="0.184"/>
      <feComposite operator="in" in2="blur-3"/>
      <feComposite in="SourceGraphic"/>
    </filter>
    <filter id="Trazado_491-2" x="44.545" y="0" width="45.455" height="45.455" filterUnits="userSpaceOnUse">
      <feOffset input="SourceAlpha"/>
      <feGaussianBlur stdDeviation="3" result="blur-4"/>
      <feFlood flood-opacity="0.161" result="color-2"/>
      <feComposite operator="out" in="SourceGraphic" in2="blur-4"/>
      <feComposite operator="in" in="color-2"/>
      <feComposite operator="in" in2="SourceGraphic"/>
    </filter>
    <filter id="Trazado_492" x="0" y="44.545" width="45.455" height="45.455" filterUnits="userSpaceOnUse">
      <feOffset dx="5" dy="5" input="SourceAlpha"/>
      <feGaussianBlur stdDeviation="5" result="blur-5"/>
      <feFlood flood-color="#b1b1b1" flood-opacity="0.184"/>
      <feComposite operator="in" in2="blur-5"/>
      <feComposite in="SourceGraphic"/>
    </filter>
    <filter id="Trazado_492-2" x="0" y="44.545" width="45.455" height="45.455" filterUnits="userSpaceOnUse">
      <feOffset input="SourceAlpha"/>
      <feGaussianBlur stdDeviation="3" result="blur-6"/>
      <feFlood flood-opacity="0.161" result="color-3"/>
      <feComposite operator="out" in="SourceGraphic" in2="blur-6"/>
      <feComposite operator="in" in="color-3"/>
      <feComposite operator="in" in2="SourceGraphic"/>
    </filter>
    <filter id="Trazado_493" x="44.545" y="44.545" width="45.455" height="45.455" filterUnits="userSpaceOnUse">
      <feOffset dx="5" dy="5" input="SourceAlpha"/>
      <feGaussianBlur stdDeviation="5" result="blur-7"/>
      <feFlood flood-color="#b1b1b1" flood-opacity="0.184"/>
      <feComposite operator="in" in2="blur-7"/>
      <feComposite in="SourceGraphic"/>
    </filter>
    <filter id="Trazado_493-2" x="44.545" y="44.545" width="45.455" height="45.455" filterUnits="userSpaceOnUse">
      <feOffset input="SourceAlpha"/>
      <feGaussianBlur stdDeviation="3" result="blur-8"/>
      <feFlood flood-opacity="0.161" result="color-4"/>
      <feComposite operator="out" in="SourceGraphic" in2="blur-8"/>
      <feComposite operator="in" in="color-4"/>
      <feComposite operator="in" in2="SourceGraphic"/>
    </filter>
    <filter id="Trazado_505" x="10.326" y="10.326" width="69.347" height="69.347" filterUnits="userSpaceOnUse">
      <feOffset dx="5" dy="5" input="SourceAlpha"/>
      <feGaussianBlur stdDeviation="5" result="blur-9"/>
      <feFlood flood-color="#b1b1b1" flood-opacity="0.161"/>
      <feComposite operator="in" in2="blur-9"/>
      <feComposite in="SourceGraphic"/>
    </filter>
    <filter id="Trazado_505-2" x="10.326" y="10.326" width="69.347" height="69.347" filterUnits="userSpaceOnUse">
      <feOffset input="SourceAlpha"/>
      <feGaussianBlur stdDeviation="3" result="blur-10"/>
      <feFlood flood-opacity="0.161" result="color-5"/>
      <feComposite operator="out" in="SourceGraphic" in2="blur-10"/>
      <feComposite operator="in" in="color-5"/>
      <feComposite operator="in" in2="SourceGraphic"/>
    </filter>
  </defs>
  <g id="Capa_2" data-name="Capa 2" transform="translate(10 10)">
    <g id="Capa_1" data-name="Capa 1" transform="translate(0)">
      <g data-type="innerShadowGroup">
        <g transform="matrix(1, 0, 0, 1, -10, -10)" filter="url(#Trazado_490)">
          <path id="Trazado_490-3" data-name="Trazado 490" d="M12.021,0H4.146A4.146,4.146,0,0,0,0,4.146v7.875a3.435,3.435,0,0,0,3.435,3.435h0a3.435,3.435,0,0,0,3.435-3.435V6.869h5.152a3.435,3.435,0,0,0,3.435-3.435h0A3.435,3.435,0,0,0,12.021,0Z" transform="translate(10 10)" fill="#dadada"/>
        </g>
        <g transform="matrix(1, 0, 0, 1, -10, -10)" filter="url(#Trazado_490-2)">
          <path id="Trazado_490-4" data-name="Trazado 490" d="M12.021,0H4.146A4.146,4.146,0,0,0,0,4.146v7.875a3.435,3.435,0,0,0,3.435,3.435h0a3.435,3.435,0,0,0,3.435-3.435V6.869h5.152a3.435,3.435,0,0,0,3.435-3.435h0A3.435,3.435,0,0,0,12.021,0Z" transform="translate(10 10)" fill="#fff"/>
        </g>
      </g>
      <g data-type="innerShadowGroup">
        <g transform="matrix(1, 0, 0, 1, -10, -10)" filter="url(#Trazado_491)">
          <path id="Trazado_491-3" data-name="Trazado 491" d="M852.455,12.021V4.146A4.146,4.146,0,0,0,848.31,0h-7.875A3.434,3.434,0,0,0,837,3.435h0a3.434,3.434,0,0,0,3.435,3.435h5.152v5.152a3.435,3.435,0,0,0,3.434,3.435h0A3.435,3.435,0,0,0,852.455,12.021Z" transform="translate(-782.46 10)" fill="#dadada"/>
        </g>
        <g transform="matrix(1, 0, 0, 1, -10, -10)" filter="url(#Trazado_491-2)">
          <path id="Trazado_491-4" data-name="Trazado 491" d="M852.455,12.021V4.146A4.146,4.146,0,0,0,848.31,0h-7.875A3.434,3.434,0,0,0,837,3.435h0a3.434,3.434,0,0,0,3.435,3.435h5.152v5.152a3.435,3.435,0,0,0,3.434,3.435h0A3.435,3.435,0,0,0,852.455,12.021Z" transform="translate(-782.46 10)" fill="#fff"/>
        </g>
      </g>
      <g data-type="innerShadowGroup">
        <g transform="matrix(1, 0, 0, 1, -10, -10)" filter="url(#Trazado_492)">
          <path id="Trazado_492-3" data-name="Trazado 492" d="M12.021,852.455H4.146A4.146,4.146,0,0,1,0,848.31v-7.875A3.434,3.434,0,0,1,3.435,837h0a3.434,3.434,0,0,1,3.435,3.435v5.152h5.152a3.435,3.435,0,0,1,3.435,3.434h0A3.435,3.435,0,0,1,12.021,852.455Z" transform="translate(10 -782.46)" fill="#dadada"/>
        </g>
        <g transform="matrix(1, 0, 0, 1, -10, -10)" filter="url(#Trazado_492-2)">
          <path id="Trazado_492-4" data-name="Trazado 492" d="M12.021,852.455H4.146A4.146,4.146,0,0,1,0,848.31v-7.875A3.434,3.434,0,0,1,3.435,837h0a3.434,3.434,0,0,1,3.435,3.435v5.152h5.152a3.435,3.435,0,0,1,3.435,3.434h0A3.435,3.435,0,0,1,12.021,852.455Z" transform="translate(10 -782.46)" fill="#fff"/>
        </g>
      </g>
      <g data-type="innerShadowGroup">
        <g transform="matrix(1, 0, 0, 1, -10, -10)" filter="url(#Trazado_493)">
          <path id="Trazado_493-3" data-name="Trazado 493" d="M852.455,840.435v7.875a4.146,4.146,0,0,1-4.146,4.146h-7.875A3.435,3.435,0,0,1,837,849.021h0a3.435,3.435,0,0,1,3.435-3.434h5.152v-5.152A3.435,3.435,0,0,1,849.021,837h0A3.435,3.435,0,0,1,852.455,840.435Z" transform="translate(-782.46 -782.46)" fill="#dadada"/>
        </g>
        <g transform="matrix(1, 0, 0, 1, -10, -10)" filter="url(#Trazado_493-2)">
          <path id="Trazado_493-4" data-name="Trazado 493" d="M852.455,840.435v7.875a4.146,4.146,0,0,1-4.146,4.146h-7.875A3.435,3.435,0,0,1,837,849.021h0a3.435,3.435,0,0,1,3.435-3.434h5.152v-5.152A3.435,3.435,0,0,1,849.021,837h0A3.435,3.435,0,0,1,852.455,840.435Z" transform="translate(-782.46 -782.46)" fill="#fff"/>
        </g>
      </g>
      <g data-type="innerShadowGroup">
        <g transform="matrix(1, 0, 0, 1, -10, -10)" filter="url(#Trazado_505)">
          <path id="Trazado_505-3" data-name="Trazado 505" d="M19.674,0A19.674,19.674,0,1,1,0,19.674,19.674,19.674,0,0,1,19.674,0Z" transform="translate(20.33 20.33)" fill="#e6e6e6"/>
        </g>
        <g transform="matrix(1, 0, 0, 1, -10, -10)" filter="url(#Trazado_505-2)">
          <path id="Trazado_505-4" data-name="Trazado 505" d="M19.674,0A19.674,19.674,0,1,1,0,19.674,19.674,19.674,0,0,1,19.674,0Z" transform="translate(20.33 20.33)" fill="#fff"/>
        </g>
      </g>
      <circle id="Elipse_131" data-name="Elipse 131" cx="2.206" cy="2.206" r="2.206" transform="translate(18.754 25.716)" fill="#fff"/>
      <circle id="Elipse_132" data-name="Elipse 132" cx="2.206" cy="2.206" r="2.206" transform="translate(36.833 25.716)" fill="#fff"/>
      <path id="Trazado_494" data-name="Trazado 494" d="M404.271,592.8a16.187,16.187,0,0,1-8.46-2.386,1.59,1.59,0,1,1,1.663-2.711,13.011,13.011,0,0,0,13.6,0,1.59,1.59,0,1,1,1.661,2.712A16.185,16.185,0,0,1,404.271,592.8Z" transform="translate(-374.271 -555.226)" fill="#fff"/>
      <rect id="Rectángulo_630" data-name="Rectángulo 630" width="60" height="60" fill="#fff" opacity="0"/>
    </g>
  </g>
</svg>
