<svg xmlns="http://www.w3.org/2000/svg" xmlns:xlink="http://www.w3.org/1999/xlink" width="90" height="90" viewBox="0 0 90 90">
  <defs>
    <linearGradient id="linear-gradient" x1="0.185" y1="0.219" x2="4.601" y2="4.157" gradientUnits="objectBoundingBox">
      <stop offset="0" stop-color="#00e566"/>
      <stop offset="1" stop-color="#00bad2"/>
    </linearGradient>
    <filter id="Trazado_490" x="0" y="0" width="45.455" height="45.455" filterUnits="userSpaceOnUse">
      <feOffset dx="5" dy="5" input="SourceAlpha"/>
      <feGaussianBlur stdDeviation="5" result="blur"/>
      <feFlood flood-color="#00fc1d" flood-opacity="0.184"/>
      <feComposite operator="in" in2="blur"/>
      <feComposite in="SourceGraphic"/>
    </filter>
    <linearGradient id="linear-gradient-2" x1="-1.617" y1="-1.623" x2="2.799" y2="2.315" xlink:href="#linear-gradient"/>
    <filter id="Trazado_491" x="44.545" y="0" width="45.455" height="45.455" filterUnits="userSpaceOnUse">
      <feOffset dx="5" dy="5" input="SourceAlpha"/>
      <feGaussianBlur stdDeviation="5" result="blur-2"/>
      <feFlood flood-color="#00fc1d" flood-opacity="0.184"/>
      <feComposite operator="in" in2="blur-2"/>
      <feComposite in="SourceGraphic"/>
    </filter>
    <linearGradient id="linear-gradient-3" x1="-1.643" y1="-1.176" x2="2.773" y2="2.762" xlink:href="#linear-gradient"/>
    <filter id="Trazado_492" x="0" y="44.545" width="45.455" height="45.455" filterUnits="userSpaceOnUse">
      <feOffset dx="5" dy="5" input="SourceAlpha"/>
      <feGaussianBlur stdDeviation="5" result="blur-3"/>
      <feFlood flood-color="#00fc1d" flood-opacity="0.184"/>
      <feComposite operator="in" in2="blur-3"/>
      <feComposite in="SourceGraphic"/>
    </filter>
    <linearGradient id="linear-gradient-4" x1="-3.444" y1="-3.018" x2="0.971" y2="0.92" xlink:href="#linear-gradient"/>
    <filter id="Trazado_493" x="44.545" y="44.545" width="45.455" height="45.455" filterUnits="userSpaceOnUse">
      <feOffset dx="5" dy="5" input="SourceAlpha"/>
      <feGaussianBlur stdDeviation="5" result="blur-4"/>
      <feFlood flood-color="#00fc1d" flood-opacity="0.184"/>
      <feComposite operator="in" in2="blur-4"/>
      <feComposite in="SourceGraphic"/>
    </filter>
    <linearGradient id="linear-gradient-5" x1="0.162" y1="0.162" x2="0.815" y2="0.815" gradientUnits="objectBoundingBox">
      <stop offset="0" stop-color="#ffcf6d"/>
      <stop offset="1" stop-color="#ffad76"/>
    </linearGradient>
    <filter id="Trazado_505" x="10.326" y="10.326" width="69.347" height="69.347" filterUnits="userSpaceOnUse">
      <feOffset dx="5" dy="5" input="SourceAlpha"/>
      <feGaussianBlur stdDeviation="5" result="blur-5"/>
      <feFlood flood-color="#ffaa0a" flood-opacity="0.161"/>
      <feComposite operator="in" in2="blur-5"/>
      <feComposite in="SourceGraphic"/>
    </filter>
  </defs>
  <g id="Capa_2" data-name="Capa 2" transform="translate(10 10)">
    <g id="Capa_1" data-name="Capa 1" transform="translate(0)">
      <g transform="matrix(1, 0, 0, 1, -10, -10)" filter="url(#Trazado_490)">
        <path id="Trazado_490-2" data-name="Trazado 490" d="M12.021,0H4.146A4.146,4.146,0,0,0,0,4.146v7.875a3.435,3.435,0,0,0,3.435,3.435h0a3.435,3.435,0,0,0,3.435-3.435V6.869h5.152a3.435,3.435,0,0,0,3.435-3.435h0A3.435,3.435,0,0,0,12.021,0Z" transform="translate(10 10)" fill="url(#linear-gradient)"/>
      </g>
      <g transform="matrix(1, 0, 0, 1, -10, -10)" filter="url(#Trazado_491)">
        <path id="Trazado_491-2" data-name="Trazado 491" d="M852.455,12.021V4.146A4.146,4.146,0,0,0,848.31,0h-7.875A3.435,3.435,0,0,0,837,3.435h0a3.435,3.435,0,0,0,3.434,3.435h5.152v5.152a3.435,3.435,0,0,0,3.434,3.435h0A3.435,3.435,0,0,0,852.455,12.021Z" transform="translate(-782.46 10)" fill="url(#linear-gradient-2)"/>
      </g>
      <g transform="matrix(1, 0, 0, 1, -10, -10)" filter="url(#Trazado_492)">
        <path id="Trazado_492-2" data-name="Trazado 492" d="M12.021,852.455H4.146A4.146,4.146,0,0,1,0,848.31v-7.875A3.435,3.435,0,0,1,3.435,837h0a3.435,3.435,0,0,1,3.435,3.434v5.152h5.152a3.435,3.435,0,0,1,3.435,3.434h0A3.435,3.435,0,0,1,12.021,852.455Z" transform="translate(10 -782.46)" fill="url(#linear-gradient-3)"/>
      </g>
      <g transform="matrix(1, 0, 0, 1, -10, -10)" filter="url(#Trazado_493)">
        <path id="Trazado_493-2" data-name="Trazado 493" d="M852.455,840.434v7.875a4.146,4.146,0,0,1-4.146,4.146h-7.875A3.435,3.435,0,0,1,837,849.021h0a3.435,3.435,0,0,1,3.434-3.434h5.152v-5.152A3.435,3.435,0,0,1,849.021,837h0A3.435,3.435,0,0,1,852.455,840.434Z" transform="translate(-782.46 -782.46)" fill="url(#linear-gradient-4)"/>
      </g>
      <g transform="matrix(1, 0, 0, 1, -10, -10)" filter="url(#Trazado_505)">
        <path id="Trazado_505-2" data-name="Trazado 505" d="M19.674,0A19.674,19.674,0,1,1,0,19.674,19.674,19.674,0,0,1,19.674,0Z" transform="translate(20.33 20.33)" fill="url(#linear-gradient-5)"/>
      </g>
      <circle id="Elipse_131" data-name="Elipse 131" cx="2.206" cy="2.206" r="2.206" transform="translate(18.754 25.716)" fill="#f9894c"/>
      <circle id="Elipse_132" data-name="Elipse 132" cx="2.206" cy="2.206" r="2.206" transform="translate(36.833 25.716)" fill="#f9894c"/>
      <path id="Trazado_494" data-name="Trazado 494" d="M404.271,592.8a16.186,16.186,0,0,1-8.46-2.386,1.59,1.59,0,1,1,1.663-2.711,13.011,13.011,0,0,0,13.6,0,1.59,1.59,0,1,1,1.661,2.712A16.185,16.185,0,0,1,404.271,592.8Z" transform="translate(-374.271 -555.226)" fill="#f9894c"/>
      <rect id="Rectángulo_631" data-name="Rectángulo 631" width="60" height="60" fill="#fff" opacity="0"/>
    </g>
  </g>
</svg>
