<svg xmlns="http://www.w3.org/2000/svg" xmlns:xlink="http://www.w3.org/1999/xlink" viewBox="0 0 600 600"><defs><style>.cls-1,.cls-4{fill:#fff;}.cls-1{opacity:0;}.cls-2{fill:#c3c2ff;isolation:isolate;}.cls-3{fill:url(#Degradado_sin_nombre_45);}</style><linearGradient id="Degradado_sin_nombre_45" x1="462.29" y1="657.65" x2="227.95" y2="249.8" gradientUnits="userSpaceOnUse"><stop offset="0" stop-color="#7669f7"/><stop offset="1" stop-color="#a58ffc"/></linearGradient></defs><g id="Capa_2" data-name="Capa 2"><g id="Capa_1-2" data-name="Capa 1"><rect class="cls-1" width="600" height="600"/><path class="cls-2" d="M144,68.49h263.7A88.48,88.48,0,0,1,496.17,157v263.7a88.48,88.48,0,0,1-88.48,88.48h-243a109.2,109.2,0,0,1-109.2-109.2V157A88.48,88.48,0,0,1,144,68.49Z" transform="translate(-78.23 104.05) rotate(-18.76)"/><path class="cls-3" d="M88.48,126.28H469.94a88.48,88.48,0,0,1,88.48,88.48v263.7a88.48,88.48,0,0,1-88.48,88.48H109.2A109.2,109.2,0,0,1,0,457.74v-243A88.48,88.48,0,0,1,88.48,126.28Z"/><path class="cls-2" d="M398.74,255.53H552.65A47.35,47.35,0,0,1,600,302.87v87.47a47.35,47.35,0,0,1-47.35,47.35H419.46a68.07,68.07,0,0,1-68.07-68.07V302.87A47.35,47.35,0,0,1,398.74,255.53Z"/><circle class="cls-4" cx="533.42" cy="346.61" r="24.99"/></g></g></svg>