<svg xmlns="http://www.w3.org/2000/svg" xmlns:xlink="http://www.w3.org/1999/xlink" viewBox="0 0 600 600"><defs><style>.cls-1{fill:#fff;opacity:0;}.cls-2{fill:#ffa679;}.cls-3{fill:url(#Degradado_sin_nombre_4);}.cls-4{fill:url(#Degradado_sin_nombre_4-2);}.cls-5{fill:#f9894c;}.cls-6{fill:#f38046;opacity:0.38;}.cls-7{fill:#fddabc;}</style><linearGradient id="Degradado_sin_nombre_4" y1="107.95" x2="600" y2="107.95" gradientUnits="userSpaceOnUse"><stop offset="0" stop-color="#ffcf6d"/><stop offset="1" stop-color="#ffad76"/></linearGradient><linearGradient id="Degradado_sin_nombre_4-2" x1="48.35" y1="363.56" x2="551.65" y2="363.56" xlink:href="#Degradado_sin_nombre_4"/></defs><g id="Capa_2" data-name="Capa 2"><g id="Capa_1-2" data-name="Capa 1"><rect class="cls-1" width="600" height="600"/><path class="cls-2" d="M544.75,44.38H55.25A55.25,55.25,0,0,0,0,99.63v36.28a35.6,35.6,0,0,0,35.6,35.6H48.35V459.07a96.55,96.55,0,0,0,96.54,96.55H455.11a96.55,96.55,0,0,0,96.54-96.55V171.51H564.4a35.6,35.6,0,0,0,35.6-35.6V99.63A55.25,55.25,0,0,0,544.75,44.38Z"/><path class="cls-3" d="M55.25,44.38h489.5A55.25,55.25,0,0,1,600,99.63v36.28a35.6,35.6,0,0,1-35.6,35.6H35.6A35.6,35.6,0,0,1,0,135.91V99.63A55.25,55.25,0,0,1,55.25,44.38Z"/><path class="cls-4" d="M48.35,171.51H551.65a0,0,0,0,1,0,0V459.07a96.55,96.55,0,0,1-96.55,96.55H144.89a96.55,96.55,0,0,1-96.55-96.55V171.51a0,0,0,0,1,0,0Z"/><rect class="cls-5" x="186.76" y="242.56" width="226.47" height="37.1" rx="18.55"/><rect class="cls-6" x="48.35" y="171.51" width="503.31" height="29.94"/><rect class="cls-7" x="134.46" y="315.61" width="331.08" height="150.8" rx="40.37"/></g></g></svg>