<svg xmlns="http://www.w3.org/2000/svg" xmlns:xlink="http://www.w3.org/1999/xlink" viewBox="0 0 600 600"><defs><style>.cls-1,.cls-3{fill:#fff;}.cls-1{opacity:0;}.cls-2{fill:url(#Degradado_sin_nombre_28);}.cls-4{fill:#11726b;opacity:0.26;}</style><linearGradient id="Degradado_sin_nombre_28" x1="76.48" y1="55.36" x2="537.9" y2="516.79" gradientUnits="userSpaceOnUse"><stop offset="0" stop-color="#00e566"/><stop offset="1" stop-color="#00bad2"/></linearGradient></defs><g id="Capa_2" data-name="Capa 2"><g id="Capa_1-2" data-name="Capa 1"><rect class="cls-1" width="600" height="600"/><path class="cls-2" d="M490.26,69.07H109.74A109.74,109.74,0,0,0,0,178.81V379A109.73,109.73,0,0,0,109.74,488.7h98.8v58.21c0,28.6,34.58,42.92,54.8,22.7l80.9-80.91h146A109.73,109.73,0,0,0,600,379V178.81A109.74,109.74,0,0,0,490.26,69.07Z"/><rect class="cls-3" x="93.3" y="194.21" width="413.4" height="48.06" rx="24.03"/><rect class="cls-3" x="93.3" y="293.44" width="288.71" height="48.06" rx="24.03"/><circle class="cls-4" cx="474.72" cy="317.47" r="24.03"/></g></g></svg>