<svg xmlns="http://www.w3.org/2000/svg" xmlns:xlink="http://www.w3.org/1999/xlink" viewBox="0 0 600 600"><defs><style>.cls-1{fill:#fff;opacity:0;}.cls-2{fill:#33379f;}.cls-3{fill:url(#Degradado_sin_nombre_30);}</style><linearGradient id="Degradado_sin_nombre_30" x1="541.49" y1="395.93" x2="199.68" y2="118.33" gradientUnits="userSpaceOnUse"><stop offset="0" stop-color="#356cff"/><stop offset="1" stop-color="#00aefa"/></linearGradient></defs><g id="Capa_2" data-name="Capa 2"><g id="Capa_1-2" data-name="Capa 1"><rect class="cls-1" width="600" height="600"/><path class="cls-2" d="M555.66,483.45H242.33a78.42,78.42,0,0,1-76.42-62.06L96.13,88.54A41.91,41.91,0,0,0,55.3,55.46H18.73a18.73,18.73,0,0,1,0-37.46H55.3a79.55,79.55,0,0,1,77.49,62.83l69.79,332.88A40.78,40.78,0,0,0,242.33,446H555.66a18.73,18.73,0,1,1,0,37.46Z"/><path class="cls-2" d="M265.53,582a49.32,49.32,0,1,1,49.31-49.32A49.38,49.38,0,0,1,265.53,582Zm0-61.19a11.87,11.87,0,1,0,11.85,11.87A11.89,11.89,0,0,0,265.53,520.81Z"/><path class="cls-2" d="M486.23,582a49.32,49.32,0,1,1,49.32-49.32A49.38,49.38,0,0,1,486.23,582Zm0-61.19a11.87,11.87,0,1,0,11.86,11.87A11.88,11.88,0,0,0,486.23,520.81Z"/><path class="cls-3" d="M513.64,394.78H201.77a51.52,51.52,0,0,1-50.41-40.87L116.54,189A51.52,51.52,0,0,1,167,126.86H548.46A51.52,51.52,0,0,1,598.87,189L564.05,353.91A51.51,51.51,0,0,1,513.64,394.78Z"/></g></g></svg>