<svg xmlns="http://www.w3.org/2000/svg" xmlns:xlink="http://www.w3.org/1999/xlink" viewBox="0 0 600 600"><defs><style>.cls-1,.cls-4{fill:#fff;}.cls-1{opacity:0;}.cls-2{fill:url(#Degradado_sin_nombre_45);}.cls-3{opacity:0.4;}</style><linearGradient id="Degradado_sin_nombre_45" x1="414.5" y1="583.68" x2="262.1" y2="208.33" gradientUnits="userSpaceOnUse"><stop offset="0" stop-color="#7669f7"/><stop offset="1" stop-color="#a58ffc"/></linearGradient></defs><g id="Capa_2" data-name="Capa 2"><g id="Capa_1-2" data-name="Capa 1"><rect class="cls-1" width="600" height="600"/><g id="WnhtFz.tif"><path class="cls-2" d="M488.64,0c17.87,2.37,30.84,12.76,42.8,25.34,12.91,13.58,26,27.1,39.8,39.7,21.35,19.44,28.69,43.86,27.9,71.65-.89,31.31-9.79,60.74-21.87,89.24C551.33,287.12,513.61,340.74,470,390.43c-49.45,56.35-104.82,106-167.91,146.72-37.84,24.41-77.54,45.13-121.52,56.29-25.57,6.49-51.36,9.87-77.38,2a71.68,71.68,0,0,1-30.38-18c-18.24-18.2-36.73-36.17-54.62-54.72C-3.66,500-6.3,462.54,18.2,438.34,45.28,411.59,72,384.41,99,357.66c24.14-23.83,60-24,81.91-.19,4.87,5.3,8.48,12.18,11.21,18.92,9.87,24.36,27.89,37,53.78,38.09,13.81.6,26.33-4.92,38.44-10.88,32.91-16.18,60.29-39.45,84.36-66.81,17-19.31,31.52-40.25,40.65-64.49,4.83-12.82,9.1-25.79,5.47-39.88-4.46-17.32-14.88-29.6-30.7-37.73-9.11-4.68-19.24-8.5-26.63-15.22-21.47-19.55-22.82-53.64-3.93-75.72,6.45-7.55,13.73-14.41,20.75-21.46,17.77-17.85,36-35.28,53.3-53.56C441.13,14.51,455.82,3.05,475.76,0Z"/></g><g class="cls-3"><path class="cls-4" d="M192.16,376.39c-2.73-6.74-6.34-13.62-11.21-18.92-21.91-23.82-57.77-23.64-81.91.19C72,384.41,45.28,411.59,18.2,438.34c-24.5,24.2-21.86,61.67,0,84.34,5.33,5.52,10.78,10.93,16.2,16.38L193.74,379.71C193.22,378.59,192.64,377.57,192.16,376.39Z"/><path class="cls-4" d="M531.44,25.34c-12-12.58-24.93-23-42.8-25.34H475.76c-19.95,3.05-34.63,14.51-48.11,28.73C410.33,47,392.12,64.44,374.35,82.29c-7,7-14.3,13.91-20.75,21.46-18.89,22.08-17.54,56.17,3.93,75.72,6.42,5.85,14.9,9.51,23,13.45L539.63,33.81C536.91,31,534.14,28.19,531.44,25.34Z"/></g></g></g></svg>