<svg xmlns="http://www.w3.org/2000/svg" xmlns:xlink="http://www.w3.org/1999/xlink" viewBox="0 0 600 600"><defs><style>.cls-1{fill:#fff;opacity:0;}.cls-2{fill:url(#Degradado_sin_nombre_4);}.cls-3{fill:url(#Degradado_sin_nombre_46);}.cls-4{fill:url(#Degradado_sin_nombre_4-2);}.cls-5{fill:url(#Degradado_sin_nombre_4-3);}.cls-6{fill:#f38046;opacity:0.38;}.cls-7{fill:#fddabc;}</style><linearGradient id="Degradado_sin_nombre_4" x1="198.28" y1="42.4" x2="401.86" y2="493.84" gradientUnits="userSpaceOnUse"><stop offset="0" stop-color="#ffcf6d"/><stop offset="1" stop-color="#ffad76"/></linearGradient><linearGradient id="Degradado_sin_nombre_46" x1="180.46" y1="501.33" x2="446.01" y2="640.01" gradientUnits="userSpaceOnUse"><stop offset="0.08" stop-color="#ffcf6d"/><stop offset="1" stop-color="#ffad76"/></linearGradient><linearGradient id="Degradado_sin_nombre_4-2" x1="347.8" y1="50.08" x2="563.63" y2="371.46" xlink:href="#Degradado_sin_nombre_4"/><linearGradient id="Degradado_sin_nombre_4-3" x1="59.14" y1="82.75" x2="240.59" y2="388.71" xlink:href="#Degradado_sin_nombre_4"/></defs><g id="Capa_2" data-name="Capa 2"><g id="Capa_1-2" data-name="Capa 1"><rect class="cls-1" width="600" height="600"/><path class="cls-2" d="M300,.79h0A52.2,52.2,0,0,1,352.2,53V494.2a0,0,0,0,1,0,0H247.8a0,0,0,0,1,0,0V53A52.2,52.2,0,0,1,300,.79Z"/><path class="cls-3" d="M194.83,494.2H405.17a86.58,86.58,0,0,1,86.58,86.58v18.43a0,0,0,0,1,0,0H108.24a0,0,0,0,1,0,0V580.78A86.58,86.58,0,0,1,194.83,494.2Z"/><path class="cls-4" d="M514.37,94.49,504.06,76.07c-1.83-1.95-2.5-4.42-7.06-4.42-25.48,0-40.68,4.49-54.08,8.45-10.69,3.15-19.13,5.65-32.36,5.65-16.09,0-24.59-3.92-32.79-7.72-7.1-3.27-15.15-7-25.57-7v38.43c1.88,0,4.82,1.32,9.46,3.46,9.7,4.48,24.36,11.24,48.9,11.24,18.79,0,31.22-3.67,43.25-7.22,2.72-.8,5.41-1.59,8.18-2.34L387.63,247.49V283.7a106.19,106.19,0,0,0,212.37,0V247.49Zm-85.63,153,65.07-116.27,65.08,116.27Z"/><path class="cls-5" d="M0,247.49V283.7a106.19,106.19,0,0,0,212.37,0V247.49L138,114.62c2.77.75,5.46,1.54,8.18,2.34,12,3.55,24.46,7.22,43.25,7.22,24.54,0,39.2-6.76,48.9-11.24,4.64-2.14,7.58-3.46,9.46-3.46V71.05c-10.42,0-18.47,3.71-25.57,7-8.2,3.8-16.7,7.72-32.79,7.72-13.23,0-21.67-2.5-32.36-5.65-13.4-4-28.6-8.45-54.08-8.45-4.56,0-5.23,2.47-7.06,4.42L85.63,94.49Zm41.11,0,65.08-116.27,65.07,116.27Z"/><rect class="cls-6" x="247.8" y="468.47" width="104.4" height="25.73"/><rect class="cls-7" x="263.07" y="65.25" width="19.26" height="164.24" rx="9.63"/><circle class="cls-7" cx="272.7" cy="42.58" r="9.63"/></g></g></svg>