<svg xmlns="http://www.w3.org/2000/svg" xmlns:xlink="http://www.w3.org/1999/xlink" viewBox="0 0 600 600"><defs><style>.cls-1{fill:#fff;opacity:0;}.cls-2{fill:url(#Degradado_sin_nombre_30);}.cls-3{fill:#34b7f7;}.cls-4{fill:#33379f;}</style><linearGradient id="Degradado_sin_nombre_30" x1="505.43" y1="555.14" x2="109.83" y2="63.82" gradientUnits="userSpaceOnUse"><stop offset="0" stop-color="#356cff"/><stop offset="1" stop-color="#00aefa"/></linearGradient></defs><g id="Capa_2" data-name="Capa 2"><g id="Capa_1-2" data-name="Capa 1"><rect class="cls-1" width="600" height="600"/><path class="cls-2" d="M85.65,586.39,114.11,552c13.14-15.85,35.61-15.85,48.74,0l28.41,34.3c15.11,18.23,41,18.23,56.06,0l28.36-34.26c13.14-15.87,35.62-15.87,48.75,0l28.38,34.26c15.1,18.25,40.95,18.24,56.06,0l28.34-34.24c13.14-15.87,35.63-15.87,48.76,0l28.37,34.28c10,12,28,4.17,28-12.2V25.82c0-16.37-18-24.23-28-12.21L485.89,48c-13.14,15.85-35.61,15.85-48.74,0l-28.41-34.3c-15.11-18.23-41-18.23-56.06,0L324.32,47.94c-13.14,15.87-35.62,15.87-48.75,0L247.19,13.69c-15.1-18.25-40.95-18.24-56.06,0L162.79,47.93c-13.14,15.87-35.63,15.87-48.76,0L85.66,13.65c-10-12-28-4.17-28,12.2V574.18C57.67,590.55,75.69,598.41,85.65,586.39Z"/><rect class="cls-3" x="174.13" y="125.38" width="251.74" height="155.76" rx="46.58"/><rect class="cls-4" x="174.13" y="335.05" width="251.74" height="37.11" rx="16.78"/><rect class="cls-4" x="174.13" y="394.97" width="251.74" height="37.11" rx="16.78"/></g></g></svg>