<svg xmlns="http://www.w3.org/2000/svg" xmlns:xlink="http://www.w3.org/1999/xlink" viewBox="0 0 600 600"><defs><style>.cls-1,.cls-7{fill:#fff;}.cls-1{opacity:0;}.cls-2{fill:url(#Degradado_sin_nombre_4);}.cls-3{fill:url(#Degradado_sin_nombre_4-2);}.cls-4{fill:#f9894c;}.cls-5{fill:url(#Degradado_sin_nombre_4-3);}.cls-6{opacity:0.38;}</style><linearGradient id="Degradado_sin_nombre_4" x1="117.3" y1="273" x2="495.85" y2="651.55" gradientUnits="userSpaceOnUse"><stop offset="0" stop-color="#ffcf6d"/><stop offset="1" stop-color="#ffad76"/></linearGradient><linearGradient id="Degradado_sin_nombre_4-2" x1="241.91" y1="17.12" x2="362.26" y2="137.47" xlink:href="#Degradado_sin_nombre_4"/><linearGradient id="Degradado_sin_nombre_4-3" x1="197" y1="394.43" x2="403" y2="394.43" xlink:href="#Degradado_sin_nombre_4"/></defs><g id="Capa_2" data-name="Capa 2"><g id="Capa_1-2" data-name="Capa 1"><rect class="cls-1" width="600" height="600"/><path class="cls-2" d="M509.87,525.73c.08-1.48.13-3,.13-4.48V366.7a152.9,152.9,0,0,0-62.38-123.23L300,135,152.37,243.47A152.92,152.92,0,0,0,90,366.7V521.25c0,1.51,0,3,.13,4.48A37.5,37.5,0,0,0,60,562.5h0A37.5,37.5,0,0,0,97.5,600h405A37.5,37.5,0,0,0,540,562.5h0A37.5,37.5,0,0,0,509.87,525.73Z"/><path class="cls-3" d="M382.83,42.84c-6.31-6.15-15-9-24.77-8.93a32.4,32.4,0,0,1-27.14-14.52C322.86,7.37,312,0,300,0s-22.86,7.37-30.93,19.39a32.37,32.37,0,0,1-27.13,14.52c-9.79-.09-18.47,2.78-24.77,8.93-17.79,17.33-10,54.09,17.37,82.1,20.58,21,46.37,31.16,65.46,27.53,19.1,3.63,44.89-6.49,65.46-27.53C392.84,96.93,400.62,60.17,382.83,42.84Z"/><ellipse class="cls-4" cx="300" cy="394.43" rx="125.87" ry="125.88"/><ellipse class="cls-5" cx="300" cy="394.43" rx="103" ry="103.01"/><g class="cls-6"><path class="cls-4" d="M321.27,173.4h17.27a0,0,0,0,1,0,0v29.85a8.63,8.63,0,0,1-8.63,8.63h0a8.63,8.63,0,0,1-8.63-8.63V173.4A0,0,0,0,1,321.27,173.4Z" transform="translate(-48.31 138.79) rotate(-22.18)"/><path class="cls-4" d="M270.1,173.4h0a8.63,8.63,0,0,1,8.63,8.63v29.85a0,0,0,0,1,0,0H261.47a0,0,0,0,1,0,0V182A8.63,8.63,0,0,1,270.1,173.4Z" transform="translate(447.5 472.99) rotate(-157.82)"/></g><g class="cls-6"><path class="cls-4" d="M261.47,91.43h17.27a0,0,0,0,1,0,0v29.85a8.63,8.63,0,0,1-8.63,8.63h0a8.63,8.63,0,0,1-8.63-8.63V91.43a0,0,0,0,1,0,0Z" transform="translate(561.99 111.19) rotate(157.82)"/><path class="cls-4" d="M329.9,91.43h0a8.63,8.63,0,0,1,8.63,8.63v29.85a0,0,0,0,1,0,0H321.27a0,0,0,0,1,0,0V100.06a8.63,8.63,0,0,1,8.63-8.63Z" transform="translate(66.18 -116.35) rotate(22.18)"/></g><rect class="cls-4" x="225" y="120.3" width="150" height="59.9" rx="29.95"/><g id="zgnQ5L.tif"><path class="cls-7" d="M293.61,444.34a20.9,20.9,0,0,1-3.6-1.81,7.51,7.51,0,0,1-2.72-5.77c-.12-1.68,0-3.38,0-5.13h25.62a52.08,52.08,0,0,1-.41,7.1c-.55,2.82-2.56,4.57-5.33,5.38l-.75.23Z"/><path class="cls-7" d="M351.09,394a3.82,3.82,0,0,1-4.12,2.42c-2.39-.1-4.78,0-7.18,0a3.2,3.2,0,1,1,0-6.38c2.4,0,4.79.08,7.18,0a3.83,3.83,0,0,1,4.12,2.43Z"/><path class="cls-7" d="M313,425.13h-26a13.12,13.12,0,0,0-3.69-7.06c-.58-.56-1.22-1-1.83-1.55-9.37-7.94-13.1-18.06-10.4-30s10.4-19.45,22.24-22.31a29.61,29.61,0,0,1,36.41,26.39c.85,10.31-2.85,18.9-10.75,25.61-2.51,2.12-4.66,4.45-5.62,7.68C313.18,424.3,313.08,424.68,313,425.13Zm-11.34-51.05c-2.18,0-3.7,1.21-3.76,3.11s1.43,3.21,3.61,3.27a11.73,11.73,0,0,1,11.3,11.47,3.2,3.2,0,1,0,6.38-.1A18.18,18.18,0,0,0,301.62,374.08Z"/><path class="cls-7" d="M303.19,349.49c0,1.36,0,2.73,0,4.09a3.19,3.19,0,1,1-6.38,0c0-2.73,0-5.45,0-8.18a3.19,3.19,0,1,1,6.38,0C303.21,346.76,303.19,348.13,303.19,349.49Z"/><path class="cls-7" d="M256.26,396.43c-1.37,0-2.73,0-4.09,0a3.19,3.19,0,1,1,0-6.37q4.08,0,8.18,0a3.19,3.19,0,1,1,0,6.37C259,396.44,257.62,396.43,256.26,396.43Z"/><path class="cls-7" d="M272,368.65a8.67,8.67,0,0,1-2.13-1.14c-2-1.91-4-3.9-5.95-5.9a3.18,3.18,0,0,1,4.46-4.54q3,3,6,6a3,3,0,0,1,.61,3.43A3.8,3.8,0,0,1,272,368.65Z"/><path class="cls-7" d="M328.28,368.49a3.37,3.37,0,0,1-3.17-1.89,2.84,2.84,0,0,1,.42-3.35q3.09-3.25,6.34-6.35a3.16,3.16,0,0,1,4.45,4.45c-2.05,2.18-4.18,4.29-6.35,6.34A5.32,5.32,0,0,1,328.28,368.49Z"/><path class="cls-7" d="M333.49,430.35a6.72,6.72,0,0,1-1.78-.94c-2.06-1.94-4-4-6-6a3.18,3.18,0,0,1,4.46-4.53q3.07,3,6.06,6.07a2.94,2.94,0,0,1,.55,3.43C336.22,429.65,335.19,430.22,333.49,430.35Z"/><path class="cls-7" d="M266.5,430.34a3.37,3.37,0,0,1-3.22-1.83,2.88,2.88,0,0,1,.43-3.44q3.06-3.21,6.27-6.28a3.16,3.16,0,0,1,4.46,4.46c-2,2.15-4.14,4.24-6.28,6.27A5.51,5.51,0,0,1,266.5,430.34Z"/></g></g></g></svg>