<svg xmlns="http://www.w3.org/2000/svg" xmlns:xlink="http://www.w3.org/1999/xlink" viewBox="0 0 600 600"><defs><style>.cls-1,.cls-7{fill:#fff;}.cls-1{opacity:0;}.cls-2{fill:url(#Degradado_sin_nombre_4);}.cls-3{fill:url(#Degradado_sin_nombre_4-2);}.cls-4{fill:#f9894c;}.cls-5{fill:url(#Degradado_sin_nombre_4-3);}.cls-6{opacity:0.38;}</style><linearGradient id="Degradado_sin_nombre_4" x1="117.3" y1="273" x2="495.85" y2="651.55" gradientUnits="userSpaceOnUse"><stop offset="0" stop-color="#ffcf6d"/><stop offset="1" stop-color="#ffad76"/></linearGradient><linearGradient id="Degradado_sin_nombre_4-2" x1="241.91" y1="17.12" x2="362.26" y2="137.47" xlink:href="#Degradado_sin_nombre_4"/><linearGradient id="Degradado_sin_nombre_4-3" x1="197" y1="394.43" x2="403" y2="394.43" xlink:href="#Degradado_sin_nombre_4"/></defs><g id="Capa_2" data-name="Capa 2"><g id="Capa_1-2" data-name="Capa 1"><rect class="cls-1" width="600" height="600"/><path class="cls-2" d="M509.87,525.73c.08-1.48.13-3,.13-4.48V366.7a152.9,152.9,0,0,0-62.38-123.23L300,135,152.37,243.47A152.92,152.92,0,0,0,90,366.7V521.25c0,1.51,0,3,.13,4.48A37.5,37.5,0,0,0,60,562.5h0A37.5,37.5,0,0,0,97.5,600h405A37.5,37.5,0,0,0,540,562.5h0A37.5,37.5,0,0,0,509.87,525.73Z"/><path class="cls-3" d="M382.83,42.84c-6.31-6.15-15-9-24.77-8.93a32.4,32.4,0,0,1-27.14-14.52C322.86,7.37,312,0,300,0s-22.86,7.37-30.93,19.39a32.37,32.37,0,0,1-27.13,14.52c-9.79-.09-18.47,2.78-24.77,8.93-17.79,17.33-10,54.09,17.37,82.1,20.58,21,46.37,31.16,65.46,27.53,19.1,3.63,44.89-6.49,65.46-27.53C392.84,96.93,400.62,60.17,382.83,42.84Z"/><ellipse class="cls-4" cx="300" cy="394.43" rx="125.87" ry="125.88"/><ellipse class="cls-5" cx="300" cy="394.43" rx="103" ry="103.01"/><g class="cls-6"><path class="cls-4" d="M321.27,173.4h17.27a0,0,0,0,1,0,0v29.85a8.63,8.63,0,0,1-8.63,8.63h0a8.63,8.63,0,0,1-8.63-8.63V173.4A0,0,0,0,1,321.27,173.4Z" transform="matrix(0.93, -0.38, 0.38, 0.93, -48.31, 138.79)"/><path class="cls-4" d="M270.1,173.4h0a8.63,8.63,0,0,1,8.63,8.63v29.85a0,0,0,0,1,0,0H261.47a0,0,0,0,1,0,0V182a8.63,8.63,0,0,1,8.63-8.63Z" transform="translate(447.5 472.99) rotate(-157.82)"/></g><g class="cls-6"><path class="cls-4" d="M261.47,91.43h17.27a0,0,0,0,1,0,0v29.85a8.63,8.63,0,0,1-8.63,8.63h0a8.63,8.63,0,0,1-8.63-8.63V91.43A0,0,0,0,1,261.47,91.43Z" transform="translate(561.99 111.19) rotate(157.82)"/><path class="cls-4" d="M329.9,91.43h0a8.63,8.63,0,0,1,8.63,8.63v29.85a0,0,0,0,1,0,0H321.27a0,0,0,0,1,0,0V100.06a8.63,8.63,0,0,1,8.63-8.63Z" transform="translate(66.18 -116.35) rotate(22.18)"/></g><rect class="cls-4" x="225" y="120.3" width="150" height="59.9" rx="29.95"/><g id="Yy4UtM.tif"><path class="cls-7" d="M360.68,395.27v11.29l-.48,1.33c-1.22,3.61-4.93,6.17-8.33,5.76A15.58,15.58,0,0,0,337.3,395.5a15.18,15.18,0,0,0-11.11,4.06c-4.11,3.83-5.57,8.62-4.79,14.14H282.47a15.46,15.46,0,1,0-30.44-.05,10.73,10.73,0,0,1-12.69-10.58q0-5.16,0-10.33a8.64,8.64,0,0,1,8.77-8.76c2.37,0,4.73,0,7.1,0a2,2,0,0,0,1.73-.8c3.75-4.44,7.56-8.82,11.3-13.27a11.28,11.28,0,0,1,9.14-4.23q13.53.07,27.08,0a11.43,11.43,0,0,1,7.62,2.74q9,7.47,18,14.86a3.85,3.85,0,0,0,1.68.83c6.81,1.26,13.63,2.52,20.46,3.69,3.11.53,5.79,1.66,7.36,4.56A23.41,23.41,0,0,1,360.68,395.27ZM304.92,384v0H318.4c.76,0,1.48,0,1.8-.88a1.61,1.61,0,0,0-.75-2c-4.1-3.21-8.17-6.46-12.3-9.63a4,4,0,0,0-2.2-.76c-4.46-.07-8.91-.05-13.36,0a2.89,2.89,0,0,0-3.13,3.17q0,3.36,0,6.72c0,2.21,1.11,3.31,3.35,3.32Zm-32.23,0c2,0,4,0,6,0a2.84,2.84,0,0,0,3-2.92q.06-3.72,0-7.44a2.82,2.82,0,0,0-2.84-2.83c-1,0-2,0-3,0a3.2,3.2,0,0,0-2.61,1.23c-2.65,3.11-5.33,6.19-7.93,9.34a2.09,2.09,0,0,0-.39,1.78,2.19,2.19,0,0,0,1.64.83C268.6,384,270.65,384,272.69,384Zm21.54,10.57h0c.71,0,1.44.05,2.15,0a2.87,2.87,0,0,0-.05-5.72c-1.4-.07-2.8-.06-4.2,0a2.86,2.86,0,0,0-2.71,2.83,2.9,2.9,0,0,0,2.77,2.9C292.86,394.57,293.55,394.54,294.23,394.54Z"/><path class="cls-7" d="M265.58,423.38l-1.71-.48a12.46,12.46,0,1,1,5.86.24,7,7,0,0,0-.78.24ZM273,410.91a5.78,5.78,0,1,0-5.74,5.74A5.78,5.78,0,0,0,273,410.91Z"/><path class="cls-7" d="M334.92,423.38l-1.72-.48a12.46,12.46,0,1,1,5.87.24,7,7,0,0,0-.78.24Zm7.45-12.46a5.77,5.77,0,1,0-5.73,5.73A5.78,5.78,0,0,0,342.37,410.92Z"/></g></g></g></svg>