<svg xmlns="http://www.w3.org/2000/svg" xmlns:xlink="http://www.w3.org/1999/xlink" viewBox="0 0 600 600"><defs><style>.cls-1,.cls-7{fill:#fff;}.cls-1{opacity:0;}.cls-2{fill:url(#Degradado_sin_nombre_4);}.cls-3{fill:url(#Degradado_sin_nombre_4-2);}.cls-4{fill:#f9894c;}.cls-5{fill:url(#Degradado_sin_nombre_4-3);}.cls-6{opacity:0.38;}</style><linearGradient id="Degradado_sin_nombre_4" x1="117.3" y1="273" x2="495.85" y2="651.55" gradientUnits="userSpaceOnUse"><stop offset="0" stop-color="#ffcf6d"/><stop offset="1" stop-color="#ffad76"/></linearGradient><linearGradient id="Degradado_sin_nombre_4-2" x1="241.91" y1="17.12" x2="362.26" y2="137.47" xlink:href="#Degradado_sin_nombre_4"/><linearGradient id="Degradado_sin_nombre_4-3" x1="197" y1="394.43" x2="403" y2="394.43" xlink:href="#Degradado_sin_nombre_4"/></defs><g id="Capa_2" data-name="Capa 2"><g id="Capa_1-2" data-name="Capa 1"><rect class="cls-1" width="600" height="600"/><path class="cls-2" d="M509.87,525.73c.08-1.48.13-3,.13-4.48V366.7a152.9,152.9,0,0,0-62.38-123.23L300,135,152.37,243.47A152.92,152.92,0,0,0,90,366.7V521.25c0,1.51,0,3,.13,4.48A37.5,37.5,0,0,0,60,562.5h0A37.5,37.5,0,0,0,97.5,600h405A37.5,37.5,0,0,0,540,562.5h0A37.5,37.5,0,0,0,509.87,525.73Z"/><path class="cls-3" d="M382.83,42.84c-6.31-6.15-15-9-24.77-8.93a32.4,32.4,0,0,1-27.14-14.52C322.86,7.37,312,0,300,0s-22.86,7.37-30.93,19.39a32.37,32.37,0,0,1-27.13,14.52c-9.79-.09-18.47,2.78-24.77,8.93-17.79,17.33-10,54.09,17.37,82.1,20.58,21,46.37,31.16,65.46,27.53,19.1,3.63,44.89-6.49,65.46-27.53C392.84,96.93,400.62,60.17,382.83,42.84Z"/><ellipse class="cls-4" cx="300" cy="394.43" rx="125.87" ry="125.88"/><ellipse class="cls-5" cx="300" cy="394.43" rx="103" ry="103.01"/><g class="cls-6"><path class="cls-4" d="M321.27,173.4h17.27a0,0,0,0,1,0,0v29.85a8.63,8.63,0,0,1-8.63,8.63h0a8.63,8.63,0,0,1-8.63-8.63V173.4a0,0,0,0,1,0,0Z" transform="translate(-48.31 138.79) rotate(-22.18)"/><path class="cls-4" d="M270.1,173.4h0a8.63,8.63,0,0,1,8.63,8.63v29.85a0,0,0,0,1,0,0H261.47a0,0,0,0,1,0,0V182A8.63,8.63,0,0,1,270.1,173.4Z" transform="translate(447.5 472.99) rotate(-157.82)"/></g><g class="cls-6"><path class="cls-4" d="M261.47,91.43h17.27a0,0,0,0,1,0,0v29.85a8.63,8.63,0,0,1-8.63,8.63h0a8.63,8.63,0,0,1-8.63-8.63V91.43a0,0,0,0,1,0,0Z" transform="translate(561.99 111.19) rotate(157.82)"/><path class="cls-4" d="M329.9,91.43h0a8.63,8.63,0,0,1,8.63,8.63v29.85a0,0,0,0,1,0,0H321.27a0,0,0,0,1,0,0V100.06a8.63,8.63,0,0,1,8.63-8.63Z" transform="translate(66.18 -116.35) rotate(22.18)"/></g><rect class="cls-4" x="225" y="120.3" width="150" height="59.9" rx="29.95"/><g id="_2N0zbR.tif" data-name="2N0zbR.tif"><path class="cls-7" d="M349.1,390.26a6.18,6.18,0,0,1-3.13,4,5.45,5.45,0,0,1-6-.6,11.14,11.14,0,0,1-1.13-1l-36-36c-2-2-3.73-2-5.76,0l-36.22,36.2c-2.22,2.22-4.76,2.67-7.2,1.29A5.59,5.59,0,0,1,252,386a12.55,12.55,0,0,1,1.08-1.22l36.21-36.2a14.76,14.76,0,0,1,21.42,0l9.7,9.69c.24.24.49.47.91.87v-5.51a5.67,5.67,0,0,1,1.9-4.53,5.35,5.35,0,0,1,6-1,5.48,5.48,0,0,1,3.39,5.43q0,7.82,0,15.62a2.72,2.72,0,0,0,.89,2.17c4.28,4.22,8.5,8.5,12.77,12.73a9.33,9.33,0,0,1,2.88,4.3Z"/><path class="cls-7" d="M309.12,435.34v-25H290.84v25c-.36,0-.61.05-.86.05-5,0-10,0-15.05,0a10.13,10.13,0,0,1-10.34-8.77,12.13,12.13,0,0,1-.09-1.81c0-7.61,0-15.22,0-22.82a3.94,3.94,0,0,1,1.24-3l31.88-31.85c1.68-1.68,3.09-1.69,4.77,0q15.94,15.93,31.88,31.85a3.87,3.87,0,0,1,1.25,3c0,7.64,0,15.27,0,22.91a10.13,10.13,0,0,1-10.41,10.51c-5,0-10,0-15.05,0C309.77,435.39,309.52,435.36,309.12,435.34Z"/></g></g></g></svg>