<svg xmlns="http://www.w3.org/2000/svg" xmlns:xlink="http://www.w3.org/1999/xlink" viewBox="0 0 600 600"><defs><style>.cls-1,.cls-7{fill:#fff;}.cls-1{opacity:0;}.cls-2{fill:url(#Degradado_sin_nombre_4);}.cls-3{fill:url(#Degradado_sin_nombre_4-2);}.cls-4{fill:#f9894c;}.cls-5{fill:url(#Degradado_sin_nombre_4-3);}.cls-6{opacity:0.38;}</style><linearGradient id="Degradado_sin_nombre_4" x1="117.3" y1="273" x2="495.85" y2="651.55" gradientUnits="userSpaceOnUse"><stop offset="0" stop-color="#ffcf6d"/><stop offset="1" stop-color="#ffad76"/></linearGradient><linearGradient id="Degradado_sin_nombre_4-2" x1="241.91" y1="17.12" x2="362.26" y2="137.47" xlink:href="#Degradado_sin_nombre_4"/><linearGradient id="Degradado_sin_nombre_4-3" x1="197" y1="394.43" x2="403" y2="394.43" xlink:href="#Degradado_sin_nombre_4"/></defs><g id="Capa_2" data-name="Capa 2"><g id="Capa_1-2" data-name="Capa 1"><rect class="cls-1" width="600" height="600"/><path class="cls-2" d="M509.87,525.73c.08-1.48.13-3,.13-4.48V366.7a152.9,152.9,0,0,0-62.38-123.23L300,135,152.37,243.47A152.92,152.92,0,0,0,90,366.7V521.25c0,1.51,0,3,.13,4.48A37.5,37.5,0,0,0,60,562.5h0A37.5,37.5,0,0,0,97.5,600h405A37.5,37.5,0,0,0,540,562.5h0A37.5,37.5,0,0,0,509.87,525.73Z"/><path class="cls-3" d="M382.83,42.84c-6.31-6.15-15-9-24.77-8.93a32.4,32.4,0,0,1-27.14-14.52C322.86,7.37,312,0,300,0s-22.86,7.37-30.93,19.39a32.37,32.37,0,0,1-27.13,14.52c-9.79-.09-18.47,2.78-24.77,8.93-17.79,17.33-10,54.09,17.37,82.1,20.58,21,46.37,31.16,65.46,27.53,19.1,3.63,44.89-6.49,65.46-27.53C392.84,96.93,400.62,60.17,382.83,42.84Z"/><ellipse class="cls-4" cx="300" cy="394.43" rx="125.87" ry="125.88"/><ellipse class="cls-5" cx="300" cy="394.43" rx="103" ry="103.01"/><g class="cls-6"><path class="cls-4" d="M321.27,173.4h17.27a0,0,0,0,1,0,0v29.85a8.63,8.63,0,0,1-8.63,8.63h0a8.63,8.63,0,0,1-8.63-8.63V173.4a0,0,0,0,1,0,0Z" transform="translate(-48.31 138.79) rotate(-22.18)"/><path class="cls-4" d="M270.1,173.4h0a8.63,8.63,0,0,1,8.63,8.63v29.85a0,0,0,0,1,0,0H261.47a0,0,0,0,1,0,0V182A8.63,8.63,0,0,1,270.1,173.4Z" transform="translate(447.5 472.99) rotate(-157.82)"/></g><g class="cls-6"><path class="cls-4" d="M261.47,91.43h17.27a0,0,0,0,1,0,0v29.85a8.63,8.63,0,0,1-8.63,8.63h0a8.63,8.63,0,0,1-8.63-8.63V91.43A0,0,0,0,1,261.47,91.43Z" transform="translate(561.99 111.19) rotate(157.82)"/><path class="cls-4" d="M329.9,91.43h0a8.63,8.63,0,0,1,8.63,8.63v29.85a0,0,0,0,1,0,0H321.27a0,0,0,0,1,0,0V100.06a8.63,8.63,0,0,1,8.63-8.63Z" transform="translate(66.18 -116.35) rotate(22.18)"/></g><rect class="cls-4" x="225" y="120.3" width="150" height="59.9" rx="29.95"/><g id="bNNJWZ.tif"><path class="cls-7" d="M352.82,378.08v1.36c-.46.6-.8,1.41-1.41,1.76a5.26,5.26,0,0,1-2.41.49,2.32,2.32,0,0,0-1.78.76c-1,1-1.93,2-3,3a2.39,2.39,0,0,0-.82,1.94c0,3.17.08,6.37-.23,9.52a38.86,38.86,0,0,1-35.84,34.7c-3.88.26-7.78.11-11.67.2a2.53,2.53,0,0,0-1.5.63c-3.58,3.52-7.1,7.12-10.7,10.62a4,4,0,0,1-2.34,1.16c-6.29.09-12.58.06-18.87,0a2.85,2.85,0,0,1-2.81-2.49,3.3,3.3,0,0,1,1.24-2.91q14.29-14.26,28.55-28.54c.26-.26.5-.53.84-.89a5.7,5.7,0,0,0-.63-.16,42.85,42.85,0,0,1-25.39-14.15,40.21,40.21,0,0,1-10.46-23.38c-.53-6-.34-12-.41-18.06a2.75,2.75,0,0,1,2.83-2.75,5,5,0,0,1,2,.61q29.61,14.78,59.17,29.59a1.07,1.07,0,0,0,1.49-.23q4.61-4.68,9.28-9.3a10.72,10.72,0,0,1,15.7,0c1.2,1.19,2.41,2.36,3.57,3.59a2,2,0,0,0,1.78.72A3.3,3.3,0,0,1,352.82,378.08Z"/><path class="cls-7" d="M294.64,344.61a15.34,15.34,0,0,1,2.22,2.19c5.57,8.35,11.08,16.74,16.61,25.11a2.29,2.29,0,0,1,.41,1l-29.46-14.73c.22-.42.41-.78.61-1.14,2-3.53,4-7.08,6.15-10.57a9.48,9.48,0,0,1,1.91-1.82Z"/></g></g></g></svg>