<svg xmlns="http://www.w3.org/2000/svg" xmlns:xlink="http://www.w3.org/1999/xlink" viewBox="0 0 600 600"><defs><style>.cls-1,.cls-7{fill:#fff;}.cls-1{opacity:0;}.cls-2{fill:url(#Degradado_sin_nombre_4);}.cls-3{fill:url(#Degradado_sin_nombre_4-2);}.cls-4{fill:#f9894c;}.cls-5{fill:url(#Degradado_sin_nombre_4-3);}.cls-6{opacity:0.38;}</style><linearGradient id="Degradado_sin_nombre_4" x1="117.3" y1="273" x2="495.85" y2="651.55" gradientUnits="userSpaceOnUse"><stop offset="0" stop-color="#ffcf6d"/><stop offset="1" stop-color="#ffad76"/></linearGradient><linearGradient id="Degradado_sin_nombre_4-2" x1="241.91" y1="17.12" x2="362.26" y2="137.47" xlink:href="#Degradado_sin_nombre_4"/><linearGradient id="Degradado_sin_nombre_4-3" x1="197" y1="394.43" x2="403" y2="394.43" xlink:href="#Degradado_sin_nombre_4"/></defs><g id="Capa_2" data-name="Capa 2"><g id="Capa_1-2" data-name="Capa 1"><rect class="cls-1" width="600" height="600"/><path class="cls-2" d="M509.87,525.73c.08-1.48.13-3,.13-4.48V366.7a152.9,152.9,0,0,0-62.38-123.23L300,135,152.37,243.47A152.92,152.92,0,0,0,90,366.7V521.25c0,1.51,0,3,.13,4.48A37.5,37.5,0,0,0,60,562.5h0A37.5,37.5,0,0,0,97.5,600h405A37.5,37.5,0,0,0,540,562.5h0A37.5,37.5,0,0,0,509.87,525.73Z"/><path class="cls-3" d="M382.83,42.84c-6.31-6.15-15-9-24.77-8.93a32.4,32.4,0,0,1-27.14-14.52C322.86,7.37,312,0,300,0s-22.86,7.37-30.93,19.39a32.37,32.37,0,0,1-27.13,14.52c-9.79-.09-18.47,2.78-24.77,8.93-17.79,17.33-10,54.09,17.37,82.1,20.58,21,46.37,31.16,65.46,27.53,19.1,3.63,44.89-6.49,65.46-27.53C392.84,96.93,400.62,60.17,382.83,42.84Z"/><ellipse class="cls-4" cx="300" cy="394.43" rx="125.87" ry="125.88"/><ellipse class="cls-5" cx="300" cy="394.43" rx="103" ry="103.01"/><g class="cls-6"><path class="cls-4" d="M321.27,173.4h17.27a0,0,0,0,1,0,0v29.85a8.63,8.63,0,0,1-8.63,8.63h0a8.63,8.63,0,0,1-8.63-8.63V173.4a0,0,0,0,1,0,0Z" transform="translate(-48.31 138.79) rotate(-22.18)"/><path class="cls-4" d="M270.1,173.4h0a8.63,8.63,0,0,1,8.63,8.63v29.85a0,0,0,0,1,0,0H261.47a0,0,0,0,1,0,0V182a8.63,8.63,0,0,1,8.63-8.63Z" transform="translate(447.5 472.99) rotate(-157.82)"/></g><g class="cls-6"><path class="cls-4" d="M261.47,91.43h17.27a0,0,0,0,1,0,0v29.85a8.63,8.63,0,0,1-8.63,8.63h0a8.63,8.63,0,0,1-8.63-8.63V91.43A0,0,0,0,1,261.47,91.43Z" transform="translate(561.99 111.19) rotate(157.82)"/><path class="cls-4" d="M329.9,91.43h0a8.63,8.63,0,0,1,8.63,8.63v29.85a0,0,0,0,1,0,0H321.27a0,0,0,0,1,0,0V100.06A8.63,8.63,0,0,1,329.9,91.43Z" transform="translate(66.18 -116.35) rotate(22.18)"/></g><rect class="cls-4" x="225" y="120.3" width="150" height="59.9" rx="29.95"/><g id="lP3uTc.tif"><path class="cls-7" d="M356.82,385.55c-.43.6-.82,1.23-1.3,1.78q-7.69,8.82-15.41,17.62c-1.49,1.7-2.78,1.74-4.41.11-3.56-3.55-7.1-7.13-10.68-10.66a3.85,3.85,0,0,1-1.33-3.24c.06-.73,0-1.46,0-2.39-5,.61-8.81,3.55-12.75,5.82-5.17-5.17-10.31-10.32-15.49-15.49a16.16,16.16,0,0,0,4.24-8c1-5.63-.44-11-5.73-13.93a21.56,21.56,0,0,0-7.78-2.44c-2-.25-4-.33-6-.49-.51,0-1,0-1.55-.06a2.36,2.36,0,0,1-2.15-1.5,2.41,2.41,0,0,1,.61-2.65c7.15-7.78,16-10.89,26.46-9.86A29.36,29.36,0,0,1,321.86,349q9.83,9.78,19.63,19.6a3.43,3.43,0,0,1,1.14,2.76c0,.52,0,1,0,1.73.53,0,1,0,1.53,0a3.72,3.72,0,0,1,3.14,1.3c2.69,2.75,5.44,5.44,8.14,8.18a15.84,15.84,0,0,1,1.39,1.84Z"/><path class="cls-7" d="M291.76,382.61l15.35,15.32-2.84,3.15q-19.77,21.75-39.55,43.48c-3.35,3.68-7.5,5.11-12.32,3.88a11.53,11.53,0,0,1-8.84-9,12.06,12.06,0,0,1,2.89-11.33c.32-.36.66-.7,1-1L291,383.55C291.25,383.26,291.49,382.93,291.76,382.61Z"/></g></g></g></svg>