<svg xmlns="http://www.w3.org/2000/svg" xmlns:xlink="http://www.w3.org/1999/xlink" viewBox="0 0 600 600"><defs><style>.cls-1,.cls-7{fill:#fff;}.cls-1{opacity:0;}.cls-2{fill:url(#Degradado_sin_nombre_4);}.cls-3{fill:url(#Degradado_sin_nombre_4-2);}.cls-4{fill:#f9894c;}.cls-5{fill:url(#Degradado_sin_nombre_4-3);}.cls-6{opacity:0.38;}</style><linearGradient id="Degradado_sin_nombre_4" x1="117.3" y1="273" x2="495.85" y2="651.55" gradientUnits="userSpaceOnUse"><stop offset="0" stop-color="#ffcf6d"/><stop offset="1" stop-color="#ffad76"/></linearGradient><linearGradient id="Degradado_sin_nombre_4-2" x1="241.91" y1="17.12" x2="362.26" y2="137.47" xlink:href="#Degradado_sin_nombre_4"/><linearGradient id="Degradado_sin_nombre_4-3" x1="197" y1="394.43" x2="403" y2="394.43" xlink:href="#Degradado_sin_nombre_4"/></defs><g id="Capa_2" data-name="Capa 2"><g id="Capa_1-2" data-name="Capa 1"><rect class="cls-1" width="600" height="600"/><path class="cls-2" d="M509.87,525.73c.08-1.48.13-3,.13-4.48V366.7a152.9,152.9,0,0,0-62.38-123.23L300,135,152.37,243.47A152.92,152.92,0,0,0,90,366.7V521.25c0,1.51,0,3,.13,4.48A37.5,37.5,0,0,0,60,562.5h0A37.5,37.5,0,0,0,97.5,600h405A37.5,37.5,0,0,0,540,562.5h0A37.5,37.5,0,0,0,509.87,525.73Z"/><path class="cls-3" d="M382.83,42.84c-6.31-6.15-15-9-24.77-8.93a32.4,32.4,0,0,1-27.14-14.52C322.86,7.37,312,0,300,0s-22.86,7.37-30.93,19.39a32.37,32.37,0,0,1-27.13,14.52c-9.79-.09-18.47,2.78-24.77,8.93-17.79,17.33-10,54.09,17.37,82.1,20.58,21,46.37,31.16,65.46,27.53,19.1,3.63,44.89-6.49,65.46-27.53C392.84,96.93,400.62,60.17,382.83,42.84Z"/><ellipse class="cls-4" cx="300" cy="394.43" rx="125.87" ry="125.88"/><ellipse class="cls-5" cx="300" cy="394.43" rx="103" ry="103.01"/><g class="cls-6"><path class="cls-4" d="M321.27,173.4h17.27a0,0,0,0,1,0,0v29.85a8.63,8.63,0,0,1-8.63,8.63h0a8.63,8.63,0,0,1-8.63-8.63V173.4a0,0,0,0,1,0,0Z" transform="translate(-48.31 138.79) rotate(-22.18)"/><path class="cls-4" d="M270.1,173.4h0a8.63,8.63,0,0,1,8.63,8.63v29.85a0,0,0,0,1,0,0H261.47a0,0,0,0,1,0,0V182A8.63,8.63,0,0,1,270.1,173.4Z" transform="translate(447.5 472.99) rotate(-157.82)"/></g><g class="cls-6"><path class="cls-4" d="M261.47,91.43h17.27a0,0,0,0,1,0,0v29.85a8.63,8.63,0,0,1-8.63,8.63h0a8.63,8.63,0,0,1-8.63-8.63V91.43A0,0,0,0,1,261.47,91.43Z" transform="translate(561.99 111.19) rotate(157.82)"/><path class="cls-4" d="M329.9,91.43h0a8.63,8.63,0,0,1,8.63,8.63v29.85a0,0,0,0,1,0,0H321.27a0,0,0,0,1,0,0V100.06a8.63,8.63,0,0,1,8.63-8.63Z" transform="translate(66.18 -116.35) rotate(22.18)"/></g><rect class="cls-4" x="225" y="120.3" width="150" height="59.9" rx="29.95"/><g id="YJoGko.tif"><path class="cls-7" d="M276.85,346.61h1.49a3.5,3.5,0,0,1,2.08,3.76c-.1,2.2,0,4.41,0,6.62,0,.27,0,.53.05.77H286c0-2.49.07-4.95,0-7.39a3.52,3.52,0,0,1,2.08-3.76h1.5a3.5,3.5,0,0,1,2.07,3.76c-.09,2.2,0,4.41,0,6.62,0,.27,0,.53,0,.77h5.55c0-2.49.07-4.95,0-7.39a3.51,3.51,0,0,1,2.08-3.76h1.49a3.52,3.52,0,0,1,2.08,3.76c-.1,2.2,0,4.41,0,6.62,0,.27,0,.53.05.77h5.54c0-2.49.08-4.95,0-7.39a3.51,3.51,0,0,1,2.08-3.76H312a3.5,3.5,0,0,1,2.08,3.76c-.1,2.2,0,4.41,0,6.62,0,.27,0,.53.05.77h5.55c0-2.49.07-4.95,0-7.39a3.52,3.52,0,0,1,2.08-3.76h1.49a3.51,3.51,0,0,1,2.08,3.76c-.09,2.45,0,4.9,0,7.44h4.35c4.32,0,7,2.73,7,7.07v4.32h8.12a2.81,2.81,0,1,1,0,5.59h-7.18c-.3,0-.6,0-.9,0v5.56h.95c2.43,0,4.86,0,7.29,0a2.8,2.8,0,1,1,0,5.59c-1.81,0-3.61,0-5.42,0h-2.77v5.6h8a2.82,2.82,0,1,1,0,5.6c-2.39,0-4.79,0-7.18,0h-.86v5.6h8.07a2.81,2.81,0,1,1,0,5.6h-7.19c-.3,0-.6,0-.9,0V414h.95c2.43,0,4.86,0,7.28,0a2.8,2.8,0,1,1,0,5.59c-1.74,0-3.48,0-5.23,0h-3c0,1.75,0,3.39,0,5a6.39,6.39,0,0,1-4.43,6,9.54,9.54,0,0,1-2.56.37c-1.45.06-2.9,0-4.39,0v1.15c0,2.39,0,4.79,0,7.19a2.71,2.71,0,0,1-1.74,2.63,2.4,2.4,0,0,1-2.91-.56,3.9,3.9,0,0,1-.9-2.23c-.11-2.69,0-5.39,0-8.13H314c0,2.76,0,5.46,0,8.16a2.8,2.8,0,1,1-5.59,0c0-2.43,0-4.86,0-7.29,0-.29,0-.59,0-.89H302.8V432c0,2.43,0,4.86,0,7.28a2.8,2.8,0,1,1-5.59,0c0-1.81,0-3.61,0-5.42v-2.77h-5.6v8a2.82,2.82,0,1,1-5.6,0c0-2.39,0-4.79,0-7.19v-.85h-5.6c0,2.76,0,5.46,0,8.16a2.8,2.8,0,1,1-5.59,0c0-2.43,0-4.86,0-7.28,0-.3,0-.6,0-.94h-4.37a6.56,6.56,0,0,1-7-6.94c0-1.46,0-2.91,0-4.45-2.54,0-5-.08-7.44,0a3.52,3.52,0,0,1-3.77-2.08v-1.49A3.51,3.51,0,0,1,256,414c2.17.1,4.35,0,6.53,0h.87v-5.61c-2.5,0-4.95-.07-7.4,0a3.52,3.52,0,0,1-3.76-2.08v-1.49a3.5,3.5,0,0,1,3.76-2.08c2.17.1,4.35,0,6.53,0h.87v-5.6c-2.5,0-4.95-.07-7.4,0a3.54,3.54,0,0,1-3.76-2.08v-1.5a3.5,3.5,0,0,1,3.76-2.07c2.17.09,4.35,0,6.53,0h.87V386c-2.5,0-4.95-.07-7.4,0A3.51,3.51,0,0,1,252.2,384v-1.49a3.51,3.51,0,0,1,3.76-2.08c2.17.1,4.35,0,6.53,0h.87v-5.6c-2.5,0-4.95-.08-7.4,0a3.52,3.52,0,0,1-3.76-2.08v-1.49a3.5,3.5,0,0,1,3.76-2.08c2.18.1,4.36,0,6.53,0h.92c0-1.57,0-3,0-4.43a6.55,6.55,0,0,1,6.95-6.95h4.44c0-2.54.07-5,0-7.44A3.51,3.51,0,0,1,276.85,346.61ZM300,425.4h29.22c1.64,0,1.78-.13,1.78-1.72V365.14c0-1.57-.15-1.72-1.69-1.72H270.69c-1.51,0-1.68.17-1.68,1.63v58.72c0,1.46.17,1.63,1.68,1.63Z"/><path class="cls-7" d="M299.91,419.8H278c-2.32,0-3.37-1-3.37-3.35V372.32c0-2.24,1.07-3.3,3.32-3.3h44.14c2.26,0,3.32,1.06,3.32,3.3q0,22.11,0,44.23c0,2.17-1.08,3.25-3.27,3.25Zm-19.63-45.14v39.47h39.46V374.66Z"/></g></g></g></svg>