<svg xmlns="http://www.w3.org/2000/svg" xmlns:xlink="http://www.w3.org/1999/xlink" viewBox="0 0 600 600"><defs><style>.cls-1,.cls-7{fill:#fff;}.cls-1{opacity:0;}.cls-2{fill:url(#Degradado_sin_nombre_4);}.cls-3{fill:url(#Degradado_sin_nombre_4-2);}.cls-4{fill:#f9894c;}.cls-5{fill:url(#Degradado_sin_nombre_4-3);}.cls-6{opacity:0.38;}</style><linearGradient id="Degradado_sin_nombre_4" x1="117.3" y1="273" x2="495.85" y2="651.55" gradientUnits="userSpaceOnUse"><stop offset="0" stop-color="#ffcf6d"/><stop offset="1" stop-color="#ffad76"/></linearGradient><linearGradient id="Degradado_sin_nombre_4-2" x1="241.91" y1="17.12" x2="362.26" y2="137.47" xlink:href="#Degradado_sin_nombre_4"/><linearGradient id="Degradado_sin_nombre_4-3" x1="197" y1="394.43" x2="403" y2="394.43" xlink:href="#Degradado_sin_nombre_4"/></defs><g id="Capa_2" data-name="Capa 2"><g id="Capa_1-2" data-name="Capa 1"><rect class="cls-1" width="600" height="600"/><path class="cls-2" d="M509.87,525.73c.08-1.48.13-3,.13-4.48V366.7a152.9,152.9,0,0,0-62.38-123.23L300,135,152.37,243.47A152.92,152.92,0,0,0,90,366.7V521.25c0,1.51,0,3,.13,4.48A37.5,37.5,0,0,0,60,562.5h0A37.5,37.5,0,0,0,97.5,600h405A37.5,37.5,0,0,0,540,562.5h0A37.5,37.5,0,0,0,509.87,525.73Z"/><path class="cls-3" d="M382.83,42.84c-6.31-6.15-15-9-24.77-8.93a32.4,32.4,0,0,1-27.14-14.52C322.86,7.37,312,0,300,0s-22.86,7.37-30.93,19.39a32.37,32.37,0,0,1-27.13,14.52c-9.79-.09-18.47,2.78-24.77,8.93-17.79,17.33-10,54.09,17.37,82.1,20.58,21,46.37,31.16,65.46,27.53,19.1,3.63,44.89-6.49,65.46-27.53C392.84,96.93,400.62,60.17,382.83,42.84Z"/><ellipse class="cls-4" cx="300" cy="394.43" rx="125.87" ry="125.88"/><ellipse class="cls-5" cx="300" cy="394.43" rx="103" ry="103.01"/><g class="cls-6"><path class="cls-4" d="M321.27,173.4h17.27a0,0,0,0,1,0,0v29.85a8.63,8.63,0,0,1-8.63,8.63h0a8.63,8.63,0,0,1-8.63-8.63V173.4A0,0,0,0,1,321.27,173.4Z" transform="translate(-48.31 138.79) rotate(-22.18)"/><path class="cls-4" d="M270.1,173.4h0a8.63,8.63,0,0,1,8.63,8.63v29.85a0,0,0,0,1,0,0H261.47a0,0,0,0,1,0,0V182A8.63,8.63,0,0,1,270.1,173.4Z" transform="translate(447.5 472.99) rotate(-157.82)"/></g><g class="cls-6"><path class="cls-4" d="M261.47,91.43h17.27a0,0,0,0,1,0,0v29.85a8.63,8.63,0,0,1-8.63,8.63h0a8.63,8.63,0,0,1-8.63-8.63V91.43A0,0,0,0,1,261.47,91.43Z" transform="translate(561.99 111.19) rotate(157.82)"/><path class="cls-4" d="M329.9,91.43h0a8.63,8.63,0,0,1,8.63,8.63v29.85a0,0,0,0,1,0,0H321.27a0,0,0,0,1,0,0V100.06A8.63,8.63,0,0,1,329.9,91.43Z" transform="translate(66.18 -116.35) rotate(22.18)"/></g><rect class="cls-4" x="225" y="120.3" width="150" height="59.9" rx="29.95"/><g id="IefyMp.tif"><path class="cls-7" d="M256.89,397.51v-1.85a7.78,7.78,0,0,1,.73-1.75c.88-1.23,1.83-2.4,2.83-3.54a1.87,1.87,0,0,1,2.44-.37c.44.24.86.53,1.27.81a28.82,28.82,0,0,0,9.06,3.85,44.61,44.61,0,0,0,13.08,1.12,35.82,35.82,0,0,0,11.4-2.16,2,2,0,0,0,1.5-2.58,2,2,0,0,0-2.78-1.1c-.69.22-1.37.48-2.07.67a41.37,41.37,0,0,1-16.31.95,27.32,27.32,0,0,1-12.22-4.33,10.58,10.58,0,0,1-4.58-11.9,14.17,14.17,0,0,1,4.74-7.25,31.16,31.16,0,0,1,17.76-7.36,1.58,1.58,0,0,0,1-.5c1.42-1.69,2.85-3.39,4.18-5.15a5.47,5.47,0,0,1,5.63-2.13,25.57,25.57,0,0,1,10.37,4.54,91.2,91.2,0,0,1,25.67,25.74,29.39,29.39,0,0,1,4.22,9,6.44,6.44,0,0,1-2.39,7.21q-18.63,14.94-37.16,30a6.43,6.43,0,0,1-6.18,1.24,26,26,0,0,1-7.37-3.55,70.91,70.91,0,0,1-14.44-12.61C262.77,409.48,258.49,404.3,256.89,397.51Zm68.34-7.26.33-.33a83.82,83.82,0,0,0-27.64-27.63l-.3.31A84.74,84.74,0,0,0,325.23,390.25Zm-44.45-25.14a29,29,0,0,0-10.35,4.38,14.58,14.58,0,0,0-4.73,5,6.84,6.84,0,0,0,.88,8.2Z"/><path class="cls-7" d="M332,438.82c-.53-.13-1.08-.24-1.61-.4a9.61,9.61,0,0,1-6.44-12.28,62.37,62.37,0,0,1,5.94-11.33c.49-.79,1-1.55,1.53-2.31a2,2,0,0,1,3.48,0,70.34,70.34,0,0,1,6.73,11.77c1,2.26,1.72,4.55,1,7.07a9.65,9.65,0,0,1-7.89,7.31,1.57,1.57,0,0,0-.38.14Z"/></g></g></g></svg>