<svg xmlns="http://www.w3.org/2000/svg" xmlns:xlink="http://www.w3.org/1999/xlink" viewBox="0 0 600 600"><defs><style>.cls-1,.cls-7{fill:#fff;}.cls-1{opacity:0;}.cls-2{fill:url(#Degradado_sin_nombre_4);}.cls-3{fill:url(#Degradado_sin_nombre_4-2);}.cls-4{fill:#f9894c;}.cls-5{fill:url(#Degradado_sin_nombre_4-3);}.cls-6{opacity:0.38;}</style><linearGradient id="Degradado_sin_nombre_4" x1="117.3" y1="273" x2="495.85" y2="651.55" gradientUnits="userSpaceOnUse"><stop offset="0" stop-color="#ffcf6d"/><stop offset="1" stop-color="#ffad76"/></linearGradient><linearGradient id="Degradado_sin_nombre_4-2" x1="241.91" y1="17.12" x2="362.26" y2="137.47" xlink:href="#Degradado_sin_nombre_4"/><linearGradient id="Degradado_sin_nombre_4-3" x1="197" y1="394.43" x2="403" y2="394.43" xlink:href="#Degradado_sin_nombre_4"/></defs><g id="Capa_2" data-name="Capa 2"><g id="Capa_1-2" data-name="Capa 1"><rect class="cls-1" width="600" height="600"/><path class="cls-2" d="M509.87,525.73c.08-1.48.13-3,.13-4.48V366.7a152.9,152.9,0,0,0-62.38-123.23L300,135,152.37,243.47A152.92,152.92,0,0,0,90,366.7V521.25c0,1.51,0,3,.13,4.48A37.5,37.5,0,0,0,60,562.5h0A37.5,37.5,0,0,0,97.5,600h405A37.5,37.5,0,0,0,540,562.5h0A37.5,37.5,0,0,0,509.87,525.73Z"/><path class="cls-3" d="M382.83,42.84c-6.31-6.15-15-9-24.77-8.93a32.4,32.4,0,0,1-27.14-14.52C322.86,7.37,312,0,300,0s-22.86,7.37-30.93,19.39a32.37,32.37,0,0,1-27.13,14.52c-9.79-.09-18.47,2.78-24.77,8.93-17.79,17.33-10,54.09,17.37,82.1,20.58,21,46.37,31.16,65.46,27.53,19.1,3.63,44.89-6.49,65.46-27.53C392.84,96.93,400.62,60.17,382.83,42.84Z"/><ellipse class="cls-4" cx="300" cy="394.43" rx="125.87" ry="125.88"/><ellipse class="cls-5" cx="300" cy="394.43" rx="103" ry="103.01"/><g class="cls-6"><path class="cls-4" d="M321.27,173.4h17.27a0,0,0,0,1,0,0v29.85a8.63,8.63,0,0,1-8.63,8.63h0a8.63,8.63,0,0,1-8.63-8.63V173.4A0,0,0,0,1,321.27,173.4Z" transform="translate(-48.31 138.79) rotate(-22.18)"/><path class="cls-4" d="M270.1,173.4h0a8.63,8.63,0,0,1,8.63,8.63v29.85a0,0,0,0,1,0,0H261.47a0,0,0,0,1,0,0V182a8.63,8.63,0,0,1,8.63-8.63Z" transform="translate(447.5 472.99) rotate(-157.82)"/></g><g class="cls-6"><path class="cls-4" d="M261.47,91.43h17.27a0,0,0,0,1,0,0v29.85a8.63,8.63,0,0,1-8.63,8.63h0a8.63,8.63,0,0,1-8.63-8.63V91.43a0,0,0,0,1,0,0Z" transform="translate(561.99 111.19) rotate(157.82)"/><path class="cls-4" d="M329.9,91.43h0a8.63,8.63,0,0,1,8.63,8.63v29.85a0,0,0,0,1,0,0H321.27a0,0,0,0,1,0,0V100.06A8.63,8.63,0,0,1,329.9,91.43Z" transform="translate(66.18 -116.35) rotate(22.18)"/></g><rect class="cls-4" x="225" y="120.3" width="150" height="59.9" rx="29.95"/><g id="CsHbei.tif"><path class="cls-7" d="M256,376l33.51,17.5c2.11,1.09,4.22,2.17,6.3,3.31a1.21,1.21,0,0,1,.58.87q0,19.92,0,39.84a4.26,4.26,0,0,1-.06.44l-.86-.43c-11.61-6.16-23.21-12.35-34.84-18.46-2.23-1.17-4-2.56-4.65-5.11Z"/><path class="cls-7" d="M301.6,438v-1q0-19.49,0-39a1.29,1.29,0,0,1,.86-1.35c5.06-2.46,10.09-5,15.14-7.47l.94-.42v1c0,2.57,0,5.15,0,7.72a2.49,2.49,0,0,0,2.34,2.5,2.54,2.54,0,0,0,2.75-2.17,6.9,6.9,0,0,0,.05-1c0-3.32,0-6.64,0-10a1.21,1.21,0,0,1,.48-.93c6.44-3.22,12.89-6.4,19.35-9.59a3.2,3.2,0,0,1,.38-.13c0,.29.05.53.05.77q0,17.73,0,35.45a6.17,6.17,0,0,1-3.61,5.94l-38,19.25Z"/><path class="cls-7" d="M341.57,371.57l-15.73,7.79c-1.18.59-2.35,1.19-3.55,1.73a1.31,1.31,0,0,1-1,0Q301.12,370.49,281,359.8a1.66,1.66,0,0,1-.19-.17c.19-.12.35-.26.53-.35l11.7-6.22a13.07,13.07,0,0,1,12-.12l35.25,17.87C340.7,371,341.08,371.27,341.57,371.57Z"/><path class="cls-7" d="M258.55,371.42c.49-.28.85-.51,1.22-.71,4.9-2.6,9.8-5.19,14.68-7.81a1.29,1.29,0,0,1,1.4,0q19.65,10.43,39.31,20.81c.25.13.48.28.8.48l-.74.4-15.51,7.69a1.18,1.18,0,0,1-1.25,0q-19.6-10.25-39.21-20.46C259.06,371.73,258.87,371.61,258.55,371.42Z"/></g></g></g></svg>