<svg xmlns="http://www.w3.org/2000/svg" xmlns:xlink="http://www.w3.org/1999/xlink" viewBox="0 0 600 600"><defs><style>.cls-1,.cls-6{fill:#fff;}.cls-1{opacity:0;}.cls-2{fill:url(#Degradado_sin_nombre_159);}.cls-3{fill:#725e5e;opacity:0.17;}.cls-4{fill:url(#Degradado_sin_nombre_28);}.cls-5{fill:url(#Degradado_sin_nombre_30);}</style><linearGradient id="Degradado_sin_nombre_159" x1="269.66" y1="346.72" x2="345.4" y2="589.46" gradientUnits="userSpaceOnUse"><stop offset="0" stop-color="#ffdabe"/><stop offset="1" stop-color="#ffafac"/></linearGradient><linearGradient id="Degradado_sin_nombre_28" x1="273.74" y1="84.19" x2="405.94" y2="258.44" gradientUnits="userSpaceOnUse"><stop offset="0" stop-color="#00e566"/><stop offset="1" stop-color="#00bad2"/></linearGradient><linearGradient id="Degradado_sin_nombre_30" x1="128.21" y1="569.28" x2="20.01" y2="390.6" gradientUnits="userSpaceOnUse"><stop offset="0" stop-color="#356cff"/><stop offset="1" stop-color="#00aefa"/></linearGradient></defs><g id="Capa_2" data-name="Capa 2"><g id="Capa_1-2" data-name="Capa 1"><rect class="cls-1" width="600" height="600"/><path class="cls-2" d="M587.73,385.36c-12.77-10.84-32.26-11.08-46.38-.53L480,430.93A30.49,30.49,0,0,1,461.8,437H397.15a33.78,33.78,0,0,0,26.69-33.37c0-16.74-12.49-34.54-35.65-34.54h-144A96.19,96.19,0,0,0,186,388.58L148.6,417.14H45.11a41.52,41.52,0,0,0-35,18.35C3.6,444.9,0,457.38,0,470.64,0,498.13,15.49,526,45.11,526H450a59.21,59.21,0,0,0,35.55-11.88L586.12,438.6a33.67,33.67,0,0,0,1.61-53.24Z"/><path class="cls-3" d="M371.26,437H258.78a33.89,33.89,0,0,0,27.55,14.16h84.93A33.88,33.88,0,0,0,398.81,437H371.26Z"/><path class="cls-4" d="M363.53,150.13l-22.67-6.64c-9.36-2.65-14.11-6.34-14.11-11,0-6.33,6.68-10.93,15.89-10.93a25,25,0,0,1,20.26,10c10,12.46,23.71,14.91,36.76,6.56a25.43,25.43,0,0,0,9.06-33.62c-9.26-17.65-25.28-29.56-45.59-34.1V56.17c0-10.08-8.57-18.29-19.11-18.29a19.15,19.15,0,0,0-18.84,18.29V70c-33.31,6.76-55.95,32-55.95,63.6,0,20.64,9.57,48.19,55.39,62.35l22.81,6.33c16.87,4.81,16.71,9.68,16.61,13-.19,8.6-10,11.67-19.2,11.67-14.35,0-20.45-8.17-22.8-13-5.54-11.47-20.39-19.83-35.68-14-13.63,5.22-20.32,19.21-15.87,33.38,7.68,23.35,27.85,39.77,54.69,45v16.54c0,9.92,8.62,18.29,18.84,18.29,10.54,0,19.11-8.2,19.11-18.29V278.38c35.42-6.31,58.18-30.19,58.7-62.38C422.5,193.79,412.93,164.32,363.53,150.13Z"/><rect class="cls-5" y="379.51" width="137.17" height="182.61" rx="27.12"/><circle class="cls-6" cx="102.02" cy="520.49" r="15.83"/></g></g></svg>