<svg xmlns="http://www.w3.org/2000/svg" xmlns:xlink="http://www.w3.org/1999/xlink" viewBox="0 0 600 600"><defs><style>.cls-1{fill:#fff;opacity:0;}.cls-2{fill:url(#Degradado_sin_nombre_24);}.cls-3{fill:#bac8e2;opacity:0.56;}.cls-4{fill:#00c9ff;}.cls-5{fill:#dce4f6;}</style><linearGradient id="Degradado_sin_nombre_24" x1="140.47" y1="67.47" x2="506.89" y2="747.63" gradientUnits="userSpaceOnUse"><stop offset="0" stop-color="#fff"/><stop offset="1" stop-color="#e2e1f1"/></linearGradient></defs><g id="Capa_2" data-name="Capa 2"><g id="Capa_1-2" data-name="Capa 1"><rect class="cls-1" width="600" height="600"/><path class="cls-2" d="M167.63,0H303.77a98.37,98.37,0,0,1,69.56,28.81L496.19,151.67A98.37,98.37,0,0,1,525,221.23V507.37A92.63,92.63,0,0,1,432.37,600H167.63A92.63,92.63,0,0,1,75,507.37V92.63A92.63,92.63,0,0,1,167.63,0Z"/><path class="cls-3" d="M496.19,151.67,373.33,28.81A98.59,98.59,0,0,0,359.1,17.09c-1.45-1-2.93-1.87-4.42-2.76-.8-.48-1.59-1-2.4-1.43-2.54-1.41-5.12-2.74-7.76-4h0V152.18a56.27,56.27,0,0,0,56.27,56.27H524.06A98.27,98.27,0,0,0,496.19,151.67Z"/><rect class="cls-4" x="140.87" y="291.83" width="318.54" height="22.12" rx="10.58"/><rect class="cls-4" x="140.87" y="353.86" width="318.54" height="22.12" rx="10.58"/><rect class="cls-4" x="140.87" y="415.89" width="263.42" height="22.12" rx="10.58"/><rect class="cls-4" x="430.28" y="415.89" width="29.13" height="22.12" rx="10.58"/><path class="cls-5" d="M496.19,151.67,434.76,90.24,373.32,28.81A98.25,98.25,0,0,0,344.52,9V133.16a47.31,47.31,0,0,0,47.32,47.32H516.05A98.43,98.43,0,0,0,496.19,151.67Z"/><circle class="cls-4" cx="165.41" cy="94.72" r="27.96"/></g></g></svg>