<svg xmlns="http://www.w3.org/2000/svg" xmlns:xlink="http://www.w3.org/1999/xlink" viewBox="0 0 600 600"><defs><style>.cls-1{fill:#fff;opacity:0;}.cls-2{fill:#dce4f6;}.cls-3{fill:url(#Degradado_sin_nombre_24);}.cls-4{fill:url(#Degradado_sin_nombre_4);}.cls-5{fill:#d1deed;}.cls-6{fill:#f38046;opacity:0.38;}.cls-7{fill:#f4e7dc;}</style><linearGradient id="Degradado_sin_nombre_24" x1="123.82" y1="64.61" x2="468.39" y2="486.11" gradientUnits="userSpaceOnUse"><stop offset="0" stop-color="#fff"/><stop offset="1" stop-color="#e2e1f1"/></linearGradient><linearGradient id="Degradado_sin_nombre_4" x1="63.91" y1="262.13" x2="545.51" y2="641.06" gradientUnits="userSpaceOnUse"><stop offset="0" stop-color="#ffcf6d"/><stop offset="1" stop-color="#ffad76"/></linearGradient></defs><g id="Capa_2" data-name="Capa 2"><g id="Capa_1-2" data-name="Capa 1"><rect class="cls-1" width="600" height="600"/><rect class="cls-2" x="131.19" y="31.52" width="377.45" height="531.86" rx="51.04"/><rect class="cls-3" x="99.67" width="377.45" height="531.86" rx="63.99"/><path class="cls-4" d="M240.14,264.69l-7.29-15a55.25,55.25,0,0,0-49.69-31.09h-65.8a55.24,55.24,0,0,0-55.25,55.24V544.75A55.25,55.25,0,0,0,117.36,600H482.64a55.25,55.25,0,0,0,55.25-55.25V351a55.25,55.25,0,0,0-55.25-55.25H289.83A55.25,55.25,0,0,1,240.14,264.69Z"/><rect class="cls-5" x="160.32" y="92.26" width="256.14" height="19.12" rx="9.56"/><rect class="cls-5" x="160.32" y="145.86" width="256.14" height="19.12" rx="9.56"/><rect class="cls-5" x="267.39" y="199.46" width="109.98" height="19.12" rx="9.56"/><rect class="cls-5" x="394.34" y="199.46" width="25.17" height="19.12" rx="9.56"/><rect class="cls-6" x="116.53" y="532.37" width="25.94" height="25.94" rx="12.97"/><rect class="cls-7" x="169.9" y="532.38" width="51.45" height="25.94" rx="12.97"/></g></g></svg>