<svg xmlns="http://www.w3.org/2000/svg" xmlns:xlink="http://www.w3.org/1999/xlink" viewBox="0 0 600 600"><defs><style>.cls-1{fill:#fff;opacity:0;}.cls-2{fill:url(#Degradado_sin_nombre_24);}.cls-3{fill:#bac8e2;opacity:0.56;}.cls-4{fill:#dce4f6;}.cls-5{fill:#00c9ff;}.cls-6{fill:#33379f;}</style><linearGradient id="Degradado_sin_nombre_24" x1="130.23" y1="26.84" x2="454.49" y2="641.81" gradientUnits="userSpaceOnUse"><stop offset="0" stop-color="#fff"/><stop offset="1" stop-color="#e2e1f1"/></linearGradient></defs><g id="Capa_2" data-name="Capa 2"><g id="Capa_1-2" data-name="Capa 1"><rect class="cls-1" width="600" height="600"/><path class="cls-2" d="M175.6.5H311.51A98.21,98.21,0,0,1,381,29.27L503.61,151.92a98.24,98.24,0,0,1,28.76,69.44V507a92.47,92.47,0,0,1-92.48,92.48H175.6A92.47,92.47,0,0,1,83.12,507V93A92.47,92.47,0,0,1,175.6.5Z"/><path class="cls-3" d="M503.61,151.92,381,29.27a97.63,97.63,0,0,0-14.2-11.71c-1.45-1-2.93-1.87-4.42-2.75-.79-.48-1.58-1-2.39-1.43-2.54-1.41-5.11-2.74-7.75-3.94h0v143a56.17,56.17,0,0,0,56.17,56.18H531.43A98.17,98.17,0,0,0,503.61,151.92Z"/><path class="cls-4" d="M503.61,151.92,442.28,90.59,381,29.26A98.21,98.21,0,0,0,352.19,9.44v124a47.24,47.24,0,0,0,47.24,47.24h124A97.94,97.94,0,0,0,503.61,151.92Z"/><circle class="cls-5" cx="165.87" cy="205.87" r="25.19"/><rect class="cls-5" x="149.31" y="269.88" width="320.12" height="28.04" rx="14.02"/><rect class="cls-5" x="149.31" y="332.32" width="181.09" height="28.04" rx="14.02"/><ellipse class="cls-6" cx="482.39" cy="377.08" rx="148.06" ry="31.55" transform="translate(-125.35 451.55) rotate(-45)"/><polygon class="cls-6" points="391.02 495.1 377.7 481.77 364.37 468.45 328.48 481.42 309.37 550.11 378.05 531 391.02 495.1"/><path class="cls-5" d="M309.37,550.11l12.51-3.49L349.56,519a6.39,6.39,0,0,0-9-9l-27.67,27.67Z"/><path class="cls-5" d="M411.16,470.62,400,459.47l-11.16-11.16a15.77,15.77,0,0,0-22.3,22.31l11.15,11.15,11.15,11.16a15.78,15.78,0,0,0,22.31-22.31Z"/><path class="cls-5" d="M147.56,528c15.11-3.68,62.1-16.5,47.94-38.49-4.21-5.93-14.6-5.68-19.33-.38-3,3-3.94,7.75-4.78,12-4.43,26.62,12.18,32.31,35.76,28,5-.82,9.54-2.1,13.39-5.33,2.93-2.21,7-1.9,10.07-.12,4.11,2.09,7.8,5.1,11.39,7.32,8.63,5.85,19.67,7.35,31.31,7.75a1.93,1.93,0,0,1,1.88,2,2,2,0,0,1-1.47,1.83,63.82,63.82,0,0,1-18.16,2c-11.07.16-21-6.64-30.26-11.57-.58-.15.18.1.47,0,.35.1,1-.3.94-.22-3.75,3.7-11.86,6.81-17.34,7.73-13.12,2.36-26.59,4.39-38.81-3.42-17.74-12.31-18-42.41-5.31-58.07,12.37-14.14,37.72-11.73,45.86,5.76,11.4,20.81-7.1,39.79-25,47.77a162.31,162.31,0,0,1-35,12.21,8.53,8.53,0,1,1-3.5-16.69Z"/></g></g></svg>