<svg xmlns="http://www.w3.org/2000/svg" xmlns:xlink="http://www.w3.org/1999/xlink" viewBox="0 0 600 600"><defs><style>.cls-1{fill:#fff;opacity:0;}.cls-2{fill:url(#Degradado_sin_nombre_45);}.cls-3{fill:#7063f9;}.cls-3,.cls-4{isolation:isolate;}.cls-5{fill:#c3c2ff;}</style><linearGradient id="Degradado_sin_nombre_45" x1="511.42" y1="558.68" x2="130.91" y2="34.58" gradientUnits="userSpaceOnUse"><stop offset="0" stop-color="#7669f7"/><stop offset="1" stop-color="#a58ffc"/></linearGradient></defs><g id="Capa_2" data-name="Capa 2"><g id="Capa_1-2" data-name="Capa 1"><rect class="cls-1" width="600" height="600"/><path class="cls-2" d="M181.55,0h236.9a75.33,75.33,0,0,1,75.33,75.33V484.11a0,0,0,0,1,0,0H106.22a0,0,0,0,1,0,0V75.33A75.33,75.33,0,0,1,181.55,0Z"/><path class="cls-3" d="M96.59,484.11H503.41A74.59,74.59,0,0,1,578,558.69V600a0,0,0,0,1,0,0H22a0,0,0,0,1,0,0V558.69A74.59,74.59,0,0,1,96.59,484.11Z"/><g class="cls-4"><rect class="cls-5" x="184.86" y="70.47" width="72.76" height="72.76" rx="20.58"/><rect class="cls-5" x="342.38" y="70.47" width="72.76" height="72.76" rx="20.58"/></g><g class="cls-4"><rect class="cls-5" x="184.86" y="205.67" width="72.76" height="72.76" rx="20.58"/><rect class="cls-5" x="342.38" y="205.67" width="72.76" height="72.76" rx="20.58"/></g><g class="cls-4"><rect class="cls-5" x="184.86" y="340.87" width="72.76" height="72.76" rx="20.58"/><rect class="cls-5" x="342.38" y="340.87" width="72.76" height="72.76" rx="20.58"/></g></g></g></svg>