<svg xmlns="http://www.w3.org/2000/svg" xmlns:xlink="http://www.w3.org/1999/xlink" viewBox="0 0 600 600"><defs><style>.cls-1{fill:#fff;opacity:0;}.cls-2{fill:url(#Degradado_sin_nombre_50);}.cls-3{fill:#ffc077;}</style><linearGradient id="Degradado_sin_nombre_50" x1="470.15" y1="492.36" x2="10.49" y2="-83.45" gradientUnits="userSpaceOnUse"><stop offset="0" stop-color="#ff395f"/><stop offset="1" stop-color="#ff9b4d"/></linearGradient></defs><g id="Capa_2" data-name="Capa 2"><g id="Capa_1-2" data-name="Capa 1"><rect class="cls-1" width="600" height="600"/><path class="cls-2" d="M577.27,142.18a44.1,44.1,0,0,0-60,17.19L505,181.53c-43.69-87.61-134.19-148-238.57-148C119.53,33.56,0,153.08,0,300S119.53,566.44,266.44,566.44a264.15,264.15,0,0,0,161.07-54.17A44.12,44.12,0,0,0,374.13,442a176.55,176.55,0,0,1-107.69,36.2c-98.26,0-178.21-79.95-178.21-178.21s80-178.21,178.21-178.21A178.29,178.29,0,0,1,421.7,212.66l-30.78-17.07a44.12,44.12,0,0,0-42.79,77.16L468,339.22A44.09,44.09,0,0,0,528,322l66.47-119.88A44.12,44.12,0,0,0,577.27,142.18Z"/><circle class="cls-3" cx="400.34" cy="477.24" r="44.35"/></g></g></svg>