<svg xmlns="http://www.w3.org/2000/svg" xmlns:xlink="http://www.w3.org/1999/xlink" viewBox="0 0 600 600"><defs><style>.cls-1{fill:url(#Degradado_sin_nombre_28);}.cls-2{fill:#11726b;opacity:0.26;}.cls-3{fill:url(#Degradado_sin_nombre_4);}.cls-4{fill:url(#Degradado_sin_nombre_4-2);}.cls-5{fill:#fddabc;}.cls-6{fill:#fff;opacity:0;}</style><linearGradient id="Degradado_sin_nombre_28" x1="132.13" y1="12.44" x2="559.24" y2="439.55" gradientUnits="userSpaceOnUse"><stop offset="0" stop-color="#00e566"/><stop offset="1" stop-color="#00bad2"/></linearGradient><linearGradient id="Degradado_sin_nombre_4" x1="53.71" y1="182.29" x2="444.39" y2="572.98" gradientUnits="userSpaceOnUse"><stop offset="0" stop-color="#ffcf6d"/><stop offset="1" stop-color="#ffad76"/></linearGradient><linearGradient id="Degradado_sin_nombre_4-2" x1="-61.03" y1="296.79" x2="329.74" y2="687.56" xlink:href="#Degradado_sin_nombre_4"/></defs><g id="Capa_2" data-name="Capa 2"><g id="Capa_1-2" data-name="Capa 1"><rect class="cls-1" x="119.38" width="480.62" height="480" rx="83.58"/><path class="cls-2" d="M476.46,140.6H390.71c-29.54,0-44.33,35.66-23.44,56.52l25.29,25.26L353.87,261l-55.66-55.58a24.86,24.86,0,0,0-35.16,0L171.35,297a24.85,24.85,0,0,0,35.17,35.12l74.11-74,55.66,55.58a24.89,24.89,0,0,0,35.17,0l56.27-56.2L453,282.76c20.89,20.86,56.59,6.09,56.59-23.41V173.71A33.13,33.13,0,0,0,476.46,140.6Z"/><ellipse class="cls-3" cx="140.61" cy="269.19" rx="89.32" ry="89.2"/><path class="cls-4" d="M123.53,352.76h34.41A123.53,123.53,0,0,1,281.47,476.29v75.88A47.83,47.83,0,0,1,233.65,600H47.83A47.83,47.83,0,0,1,0,552.17V476.29A123.53,123.53,0,0,1,123.53,352.76Z"/><rect class="cls-5" x="179.33" y="430.93" width="55.32" height="33.41" rx="11.66"/><rect class="cls-6" width="600" height="600"/></g></g></svg>