<svg xmlns="http://www.w3.org/2000/svg" xmlns:xlink="http://www.w3.org/1999/xlink" viewBox="0 0 600 600"><defs><style>.cls-1,.cls-3{fill:#fff;}.cls-1{opacity:0;}.cls-2{fill:url(#Degradado_sin_nombre_34);}.cls-3{opacity:0.52;}</style><linearGradient id="Degradado_sin_nombre_34" x1="-5.19" y1="-44.06" x2="540.04" y2="554.36" gradientUnits="userSpaceOnUse"><stop offset="0" stop-color="#00f4f3"/><stop offset="1" stop-color="#0bf"/></linearGradient></defs><g id="Capa_2" data-name="Capa 2"><g id="Capa_1-2" data-name="Capa 1"><rect class="cls-1" width="600" height="600"/><path class="cls-2" d="M551.43,213.39,364.94,26.9c-.54-.54-1.13-1-1.69-1.53-1.61-1.53-3.22-3.06-4.94-4.48-.72-.59-1.49-1.09-2.22-1.66-1.65-1.27-3.29-2.55-5-3.71-.59-.4-1.22-.73-1.83-1.11-1.93-1.23-3.88-2.45-5.9-3.53-.41-.22-.85-.4-1.26-.61C339.83,9.11,337.55,8,335.2,7c-.27-.11-.54-.19-.81-.3-2.5-1-5-1.94-7.63-2.73-.3-.09-.61-.15-.91-.23-2.55-.75-5.13-1.43-7.78-2-.74-.15-1.5-.21-2.24-.34-2.21-.39-4.41-.77-6.67-1-3-.3-6.09-.46-9.16-.46s-6.14.16-9.17.46c-2.24.23-4.43.61-6.63,1-.76.13-1.53.2-2.28.35-2.62.52-5.17,1.2-7.7,1.93-.33.1-.67.16-1,.26-2.55.77-5,1.69-7.47,2.67-.32.13-.66.23-1,.36-2.28,1-4.48,2-6.66,3.15-.49.25-1,.46-1.49.72-1.93,1-3.79,2.2-5.63,3.37-.7.44-1.42.82-2.1,1.27-1.63,1.09-3.16,2.3-4.71,3.49-.84.64-1.71,1.22-2.52,1.88-1.65,1.36-3.2,2.83-4.74,4.3-.62.58-1.28,1.1-1.88,1.7L48.57,213.39a91.85,91.85,0,0,0,129.9,129.89l29.68-29.68V508.15a91.85,91.85,0,1,0,183.69,0V313.59l29.69,29.69a91.85,91.85,0,1,0,129.9-129.89Z"/><rect class="cls-3" x="259.56" y="352.48" width="80.87" height="119.31" rx="40.44"/></g></g></svg>