<svg xmlns="http://www.w3.org/2000/svg" xmlns:xlink="http://www.w3.org/1999/xlink" viewBox="0 0 600 600"><defs><style>.cls-1,.cls-3{fill:#fff;}.cls-1{opacity:0;}.cls-2{fill:url(#Degradado_sin_nombre_28);}.cls-3{opacity:0.73;}.cls-4{fill:#108279;opacity:0.33;}.cls-5{fill:#dce4f6;}.cls-6{fill:#01a882;}.cls-7{fill:url(#Degradado_sin_nombre_28-2);}</style><linearGradient id="Degradado_sin_nombre_28" x1="81.9" y1="49.08" x2="500.68" y2="670.55" gradientUnits="userSpaceOnUse"><stop offset="0" stop-color="#00e566"/><stop offset="1" stop-color="#00bad2"/></linearGradient><linearGradient id="Degradado_sin_nombre_28-2" x1="346.88" y1="351.73" x2="563.9" y2="568.75" xlink:href="#Degradado_sin_nombre_28"/></defs><g id="Capa_2" data-name="Capa 2"><g id="Capa_1-2" data-name="Capa 1"><rect class="cls-1" width="600" height="600"/><rect class="cls-2" x="4.85" y="70.88" width="488.07" height="452.04" rx="82.73"/><rect class="cls-3" x="76.3" y="257.03" width="345.49" height="23.99" rx="12"/><rect class="cls-3" x="76.3" y="324.31" width="345.49" height="23.99" rx="12"/><rect class="cls-3" x="76.3" y="391.59" width="100.82" height="23.99" rx="12"/><rect class="cls-3" x="212.46" y="391.59" width="31.59" height="23.99" rx="12"/><path class="cls-4" d="M343.06,74.3H313a65.37,65.37,0,0,0-127,0H155.8a17.58,17.58,0,0,0-17.59,17.59v52.67A41.46,41.46,0,0,0,179.67,186H319.2a41.46,41.46,0,0,0,41.46-41.46V91.89A17.59,17.59,0,0,0,343.06,74.3Z"/><path class="cls-5" d="M342.52,49.91H312.41a65.38,65.38,0,0,0-127,0H155.26a17.59,17.59,0,0,0-17.59,17.6v52.67a41.45,41.45,0,0,0,41.45,41.46H318.66a41.45,41.45,0,0,0,41.45-41.46V67.51A17.59,17.59,0,0,0,342.52,49.91Z"/><path class="cls-6" d="M448.46,278.86a174.48,174.48,0,0,0-160,244H410.19a82.74,82.74,0,0,0,82.74-82.73V284.6A174.81,174.81,0,0,0,448.46,278.86Z"/><circle class="cls-7" cx="448.46" cy="453.32" r="146.68"/><path class="cls-3" d="M422.34,519.74a23.7,23.7,0,0,1-16.75-6.94l-41.74-41.74a23.7,23.7,0,0,1,33.51-33.51l25,25,63.71-63.71a23.7,23.7,0,0,1,33.51,33.52L439.1,512.8A23.71,23.71,0,0,1,422.34,519.74Z"/></g></g></svg>