<svg xmlns="http://www.w3.org/2000/svg" xmlns:xlink="http://www.w3.org/1999/xlink" viewBox="0 0 600 600"><defs><style>.cls-1,.cls-5{fill:#fff;}.cls-1{opacity:0;}.cls-2{fill:url(#Degradado_sin_nombre_30);}.cls-3{fill:#a4eaff;}.cls-4{fill:#33379f;opacity:0.3;}</style><linearGradient id="Degradado_sin_nombre_30" x1="525.97" y1="612.17" x2="94.4" y2="72.25" gradientUnits="userSpaceOnUse"><stop offset="0" stop-color="#356cff"/><stop offset="1" stop-color="#00aefa"/></linearGradient></defs><g id="Capa_2" data-name="Capa 2"><g id="Capa_1-2" data-name="Capa 1"><rect class="cls-1" width="600" height="600"/><path class="cls-2" d="M419.37,58.93H180.63A83.54,83.54,0,0,0,97.1,142.47v374A83.53,83.53,0,0,0,180.63,600H419.37a83.53,83.53,0,0,0,83.53-83.53v-374A83.54,83.54,0,0,0,419.37,58.93Z"/><rect class="cls-3" x="182.77" y="434.77" width="234.72" height="19.95" rx="9.97"/><rect class="cls-3" x="182.77" y="490.71" width="194.1" height="19.95" rx="9.97"/><rect class="cls-3" x="396.02" y="490.71" width="21.46" height="19.95" rx="9.97"/><path class="cls-4" d="M378.3,61.77h-25a54.36,54.36,0,0,0-105.63,0h-25A14.62,14.62,0,0,0,208,76.4v43.79a34.46,34.46,0,0,0,34.46,34.47h116a34.47,34.47,0,0,0,34.47-34.47V76.4A14.63,14.63,0,0,0,378.3,61.77Z"/><path class="cls-3" d="M377.85,41.5h-25a54.35,54.35,0,0,0-105.62,0h-25a14.63,14.63,0,0,0-14.63,14.63V99.92A34.47,34.47,0,0,0,242,134.39H358a34.47,34.47,0,0,0,34.47-34.47V56.13A14.63,14.63,0,0,0,377.85,41.5Z"/><polygon class="cls-5" points="261.44 382.52 183.42 382.52 183.42 304.5 261.44 260.02 261.44 382.52"/><polygon class="cls-5" points="339.46 382.52 261.44 382.52 261.44 304.5 339.46 260.02 339.46 382.52"/><polygon class="cls-5" points="417.49 382.52 339.46 382.52 339.46 304.5 417.49 260.02 417.49 382.52"/><polygon class="cls-5" points="239.46 300.61 194.04 300.61 202.55 206.91 230.96 206.91 239.46 300.61"/><rect class="cls-3" x="242.67" y="333.2" width="31.31" height="21.79" rx="8.48"/><rect class="cls-3" x="299.49" y="333.2" width="31.31" height="21.79" rx="8.48"/><rect class="cls-3" x="356.31" y="333.2" width="31.31" height="21.79" rx="8.48"/></g></g></svg>