<svg xmlns="http://www.w3.org/2000/svg" xmlns:xlink="http://www.w3.org/1999/xlink" viewBox="0 0 600 600"><defs><style>.cls-1{fill:none;}.cls-2{fill:#fff;opacity:0;}.cls-3{fill:url(#Degradado_sin_nombre_4);}.cls-4{fill:#f38046;opacity:0.38;}.cls-5{fill:#f4e7dc;}.cls-6{clip-path:url(#clip-path);}</style><linearGradient id="Degradado_sin_nombre_4" x1="105.46" y1="207.69" x2="556.76" y2="465.73" gradientUnits="userSpaceOnUse"><stop offset="0" stop-color="#ffcf6d"/><stop offset="1" stop-color="#ffad76"/></linearGradient><clipPath id="clip-path"><rect class="cls-1" x="56.71" y="238.12" width="161.61" height="161.61" rx="80.8"/></clipPath></defs><g id="Capa_2" data-name="Capa 2"><g id="Capa_1-2" data-name="Capa 1"><rect class="cls-2" width="600" height="600"/><rect class="cls-3" y="138.92" width="600" height="360" rx="92.94"/><rect class="cls-4" x="205.94" y="115.05" width="195.6" height="75.67" rx="37.84"/><rect class="cls-4" x="36.13" y="217.53" width="202.77" height="202.77" rx="101.38"/><rect class="cls-4" x="303.74" y="237.65" width="27.46" height="27.46" rx="13.73"/><rect class="cls-5" x="360.24" y="237.65" width="54.46" height="27.46" rx="13.73"/><rect class="cls-5" x="303.74" y="305.19" width="200.78" height="27.46" rx="13.73"/><rect class="cls-5" x="303.74" y="372.73" width="122.47" height="27.46" rx="13.73"/><rect class="cls-5" x="205.94" y="101.08" width="195.6" height="75.67" rx="37.84"/><g class="cls-6"><circle class="cls-5" cx="137.47" cy="303.86" r="34.88"/><path class="cls-5" d="M137.51,333.36h0a63.37,63.37,0,0,1,63.37,63.37v8.86a39.24,39.24,0,0,1-39.24,39.24H113.38a39.24,39.24,0,0,1-39.24-39.24v-8.86A63.37,63.37,0,0,1,137.51,333.36Z"/></g></g></g></svg>