<svg xmlns="http://www.w3.org/2000/svg" xmlns:xlink="http://www.w3.org/1999/xlink" viewBox="0 0 600 600"><defs><style>.cls-1,.cls-7{fill:#fff;}.cls-1{opacity:0;}.cls-2{fill:url(#Degradado_sin_nombre_2);}.cls-3,.cls-6{fill:#f99bb0;}.cls-3{opacity:0.76;}.cls-4{fill:url(#Degradado_sin_nombre_2-2);}.cls-5{fill:#ef0c23;}</style><linearGradient id="Degradado_sin_nombre_2" x1="30" y1="254.92" x2="462.29" y2="254.92" gradientUnits="userSpaceOnUse"><stop offset="0" stop-color="#ff5c4d"/><stop offset="1" stop-color="#ff395f"/></linearGradient><linearGradient id="Degradado_sin_nombre_2-2" x1="137.71" y1="344.99" x2="570" y2="344.99" xlink:href="#Degradado_sin_nombre_2"/></defs><g id="Capa_2" data-name="Capa 2"><g id="Capa_1-2" data-name="Capa 1"><rect class="cls-1" width="600" height="600"/><path class="cls-2" d="M133.62,0h225A103.63,103.63,0,0,1,462.29,103.63V406.22A103.62,103.62,0,0,1,358.66,509.84h-225A103.63,103.63,0,0,1,30,406.21V103.62A103.62,103.62,0,0,1,133.62,0Z"/><path class="cls-3" d="M149.36,0H360.23a0,0,0,0,1,0,0V17a38.67,38.67,0,0,1-38.67,38.67H188A38.67,38.67,0,0,1,149.36,17V0a0,0,0,0,1,0,0Z"/><path class="cls-4" d="M241.34,90h225A103.63,103.63,0,0,1,570,193.61V496.38A103.62,103.62,0,0,1,466.38,600h-225A103.63,103.63,0,0,1,137.71,496.37V193.61A103.62,103.62,0,0,1,241.34,90Z"/><path class="cls-5" d="M457.81,73.51H238.31a117.05,117.05,0,0,0-117.09,117V509a104.73,104.73,0,0,0,12.47.82h4.89a105,105,0,0,1-.87-13.47V193.61A103.66,103.66,0,0,1,241.4,90H461.29A104.37,104.37,0,0,0,457.81,73.51Z"/><ellipse class="cls-6" cx="260.07" cy="217.09" rx="27.24" ry="27.22"/><rect class="cls-7" x="305.83" y="189.87" width="169.04" height="54.44" rx="27.22"/><rect class="cls-7" x="232.84" y="316.91" width="242.04" height="54.44" rx="27.22"/><rect class="cls-7" x="232.84" y="443.96" width="242.04" height="54.44" rx="27.22"/></g></g></svg>