<svg xmlns="http://www.w3.org/2000/svg" xmlns:xlink="http://www.w3.org/1999/xlink" viewBox="0 0 600 600"><defs><style>.cls-1,.cls-5{fill:#fff;}.cls-1{opacity:0;}.cls-2{fill:url(#Degradado_sin_nombre_4);}.cls-3{fill:#f38046;opacity:0.38;}.cls-4{fill:#f4e7dc;}.cls-5{opacity:0.5;}</style><linearGradient id="Degradado_sin_nombre_4" x1="122.19" y1="26.38" x2="446.99" y2="642.38" gradientUnits="userSpaceOnUse"><stop offset="0" stop-color="#ffcf6d"/><stop offset="1" stop-color="#ffad76"/></linearGradient></defs><g id="Capa_2" data-name="Capa 2"><g id="Capa_1-2" data-name="Capa 1"><rect class="cls-1" width="600" height="600"/><path class="cls-2" d="M167.63,0H303.77a98.37,98.37,0,0,1,69.56,28.81L496.19,151.67A98.37,98.37,0,0,1,525,221.23V507.37A92.63,92.63,0,0,1,432.37,600H167.63A92.63,92.63,0,0,1,75,507.37V92.63A92.63,92.63,0,0,1,167.63,0Z"/><path class="cls-3" d="M496.19,151.67,373.33,28.81A98.59,98.59,0,0,0,359.1,17.09c-1.45-1-2.93-1.87-4.42-2.76-.8-.48-1.59-1-2.4-1.43-2.54-1.41-5.12-2.74-7.76-4h0V152.18a56.27,56.27,0,0,0,56.27,56.27H524.06A98.27,98.27,0,0,0,496.19,151.67Z"/><path class="cls-4" d="M496.19,151.67,434.76,90.24,373.32,28.81A98.25,98.25,0,0,0,344.52,9V133.16a47.31,47.31,0,0,0,47.32,47.32H516.05A98.43,98.43,0,0,0,496.19,151.67Z"/><circle class="cls-3" cx="160.62" cy="108.7" r="27.96"/><rect class="cls-5" x="237.31" y="258.63" width="224.64" height="41.37" rx="20.69"/><rect class="cls-5" x="237.31" y="350.7" width="224.64" height="41.37" rx="20.69"/><rect class="cls-5" x="237.31" y="442.78" width="224.64" height="41.37" rx="20.69"/><circle class="cls-5" cx="164.27" cy="467.12" r="28"/><path class="cls-5" d="M154.5,405.29a15.63,15.63,0,0,1-11.09-4.59l-18.22-18.22a15.68,15.68,0,1,1,22.18-22.18l7.13,7.13L183.93,338a15.68,15.68,0,0,1,22.18,22.17L165.59,400.7A15.64,15.64,0,0,1,154.5,405.29Z"/><path class="cls-5" d="M154.5,315.26a15.64,15.64,0,0,1-11.09-4.6l-18.22-18.22a15.68,15.68,0,0,1,22.18-22.17l7.13,7.13L183.93,248a15.68,15.68,0,0,1,22.18,22.18l-40.52,40.52A15.65,15.65,0,0,1,154.5,315.26Z"/></g></g></svg>