<svg xmlns="http://www.w3.org/2000/svg" xmlns:xlink="http://www.w3.org/1999/xlink" viewBox="0 0 600 600"><defs><style>.cls-1,.cls-3{fill:#fff;}.cls-1{opacity:0;}.cls-2{fill:url(#Degradado_sin_nombre_28);}.cls-4{fill:#bbffe5;}</style><linearGradient id="Degradado_sin_nombre_28" x1="83.41" y1="81.8" x2="558.49" y2="560.41" gradientUnits="userSpaceOnUse"><stop offset="0" stop-color="#00e566"/><stop offset="1" stop-color="#00bad2"/></linearGradient></defs><g id="Capa_2" data-name="Capa 2"><g id="Capa_1-2" data-name="Capa 1"><rect class="cls-1" width="600" height="600"/><rect class="cls-2" x="0.83" y="120.5" width="598.33" height="359" rx="68.78"/><path class="cls-3" d="M138.62,211a16.52,16.52,0,0,1,7.4,1.76l144.81,72.4a16.59,16.59,0,0,1,0,29.68L146,387.24a16.58,16.58,0,1,1-14.83-29.67L246.32,300,131.19,242.43A16.59,16.59,0,0,1,138.62,211Z"/><circle class="cls-4" cx="269.93" cy="300" r="8.78"/><path class="cls-3" d="M461.94,279.08H323A16,16,0,1,1,323,247H461.94a16,16,0,1,1,0,32.09Z"/><path class="cls-3" d="M461.94,353H323a16,16,0,1,1,0-32.09H461.94a16,16,0,1,1,0,32.09Z"/></g></g></svg>