<svg xmlns="http://www.w3.org/2000/svg" xmlns:xlink="http://www.w3.org/1999/xlink" viewBox="0 0 600 600"><defs><style>.cls-1{fill:#fff;opacity:0;}.cls-2{fill:url(#Degradado_sin_nombre_24);}.cls-3{fill:url(#Degradado_sin_nombre_34);}.cls-4{fill:url(#Degradado_sin_nombre_34-2);}.cls-5{fill:#84a5af;}.cls-6{fill:url(#Degradado_sin_nombre_34-3);}.cls-7{fill:url(#Degradado_sin_nombre_34-4);}.cls-8{fill:url(#Degradado_sin_nombre_34-5);}.cls-9{fill:url(#Degradado_sin_nombre_34-6);}</style><linearGradient id="Degradado_sin_nombre_24" x1="146.4" y1="229.49" x2="468.52" y2="482.49" gradientUnits="userSpaceOnUse"><stop offset="0" stop-color="#fff"/><stop offset="1" stop-color="#e2e1f1"/></linearGradient><linearGradient id="Degradado_sin_nombre_34" x1="29.6" y1="107.65" x2="495.32" y2="552.53" gradientUnits="userSpaceOnUse"><stop offset="0" stop-color="#00f4f3"/><stop offset="1" stop-color="#0bf"/></linearGradient><linearGradient id="Degradado_sin_nombre_34-2" x1="186.79" y1="-56.9" x2="652.5" y2="387.99" xlink:href="#Degradado_sin_nombre_34"/><linearGradient id="Degradado_sin_nombre_34-3" x1="-110.02" y1="253.81" x2="355.7" y2="698.69" gradientTransform="translate(59.83 774.97) rotate(180)" xlink:href="#Degradado_sin_nombre_34"/><linearGradient id="Degradado_sin_nombre_34-4" x1="142.79" y1="-10.84" x2="608.51" y2="434.04" xlink:href="#Degradado_sin_nombre_34"/><linearGradient id="Degradado_sin_nombre_34-5" x1="-61.35" y1="202.86" x2="404.37" y2="647.74" xlink:href="#Degradado_sin_nombre_34"/><linearGradient id="Degradado_sin_nombre_34-6" x1="-18.18" y1="157.67" x2="447.54" y2="602.55" xlink:href="#Degradado_sin_nombre_34"/></defs><g id="Capa_2" data-name="Capa 2"><g id="Capa_1-2" data-name="Capa 1"><rect class="cls-1" width="600" height="600"/><path class="cls-2" d="M241,205.35l-72.67,47.32a34.38,34.38,0,0,1-18.75,5.57H123.46A33.72,33.72,0,0,0,89.73,292V476.28A33.73,33.73,0,0,0,123.46,510H328.28a58.15,58.15,0,0,0,35.85-12.37l88.63-69.45a42.39,42.39,0,0,1,26.16-9h9.75a33.72,33.72,0,0,0,33.72-33.72V233.51a33.72,33.72,0,0,0-33.72-33.72H259.79A34.4,34.4,0,0,0,241,205.35Z"/><path class="cls-3" d="M337.41,339.61H317.69L328.74,306a11.86,11.86,0,0,0-11.26-15.57H282.7a11.87,11.87,0,0,0-11.35,8.41l-17.94,58.9a15.94,15.94,0,0,0,15.25,20.59h22.69L273.07,430.5c-2.94,8.39,8.05,14.51,13.63,7.6l61.43-76A13.79,13.79,0,0,0,337.41,339.61Z"/><rect class="cls-4" x="540.17" y="210" width="59.83" height="198.51" rx="29.92"/><rect class="cls-5" x="522.39" y="249.8" width="17.78" height="118.91"/><rect class="cls-6" y="288.23" width="59.83" height="198.51" rx="29.92" transform="translate(59.83 774.97) rotate(-180)"/><rect class="cls-5" x="59.83" y="328.03" width="29.9" height="118.91" transform="translate(149.57 774.97) rotate(180)"/><rect class="cls-5" x="268.75" y="159.67" width="62.03" height="40.11"/><path class="cls-7" d="M251.36,90H347.3a53.09,53.09,0,0,1,53.09,53.09v3.24a25,25,0,0,1-25,25H223.23a25,25,0,0,1-25-25v-3.24A53.09,53.09,0,0,1,251.36,90Z"/><rect class="cls-8" x="130.58" y="340.14" width="19.89" height="111.12" rx="9.94"/><rect class="cls-9" x="130.58" y="299.33" width="19.89" height="19.89" rx="9.94"/></g></g></svg>