<svg xmlns="http://www.w3.org/2000/svg" xmlns:xlink="http://www.w3.org/1999/xlink" viewBox="0 0 600 600"><defs><style>.cls-1{fill:#fff;opacity:0;}.cls-2{fill:url(#Degradado_sin_nombre_24);}.cls-3{fill:#7eb9f4;}.cls-4{fill:#33379f;opacity:0.36;}.cls-5{fill:url(#Degradado_sin_nombre_24-2);}.cls-6{fill:url(#Degradado_sin_nombre_34);}.cls-7{fill:url(#Degradado_sin_nombre_24-3);}</style><linearGradient id="Degradado_sin_nombre_24" x1="228.07" y1="24.64" x2="373.86" y2="393.97" gradientUnits="userSpaceOnUse"><stop offset="0" stop-color="#fff"/><stop offset="1" stop-color="#e2e1f1"/></linearGradient><linearGradient id="Degradado_sin_nombre_24-2" x1="271.44" y1="359.76" x2="329.67" y2="707.23" xlink:href="#Degradado_sin_nombre_24"/><linearGradient id="Degradado_sin_nombre_34" x1="220.63" y1="492.48" x2="379.37" y2="492.48" gradientUnits="userSpaceOnUse"><stop offset="0" stop-color="#00f4f3"/><stop offset="1" stop-color="#0bf"/></linearGradient><linearGradient id="Degradado_sin_nombre_24-3" x1="243.88" y1="492.48" x2="356.12" y2="492.48" xlink:href="#Degradado_sin_nombre_24"/></defs><g id="Capa_2" data-name="Capa 2"><g id="Capa_1-2" data-name="Capa 1"><rect class="cls-1" width="600" height="600"/><rect class="cls-2" x="147.81" y="59.53" width="304.38" height="294.68" rx="79.82"/><rect class="cls-3" x="236.3" y="354.21" width="127.39" height="32.12"/><rect class="cls-4" x="236.3" y="354.21" width="127.39" height="13.11"/><path class="cls-3" d="M299.64,1.37h.71a13.88,13.88,0,0,1,13.88,13.88V59.53a0,0,0,0,1,0,0H285.76a0,0,0,0,1,0,0V15.25A13.88,13.88,0,0,1,299.64,1.37Z"/><path class="cls-3" d="M100.55,162.68h4.18a43.08,43.08,0,0,1,43.08,43.08V208a43.08,43.08,0,0,1-43.08,43.08h-4.18a0,0,0,0,1,0,0V162.68A0,0,0,0,1,100.55,162.68Z" transform="translate(248.36 413.74) rotate(180)"/><path class="cls-3" d="M452.19,162.68h4.18a43.08,43.08,0,0,1,43.08,43.08V208a43.08,43.08,0,0,1-43.08,43.08h-4.18a0,0,0,0,1,0,0V162.68A0,0,0,0,1,452.19,162.68Z"/><path class="cls-5" d="M123.27,386.33H476.73A123.27,123.27,0,0,1,600,509.6v48.11a40.92,40.92,0,0,1-40.92,40.92H40.92A40.92,40.92,0,0,1,0,557.72V509.6A123.27,123.27,0,0,1,123.27,386.33Z"/><path class="cls-3" d="M367.58,165.48a32.33,32.33,0,0,0-32.33,32.33h64.66A32.32,32.32,0,0,0,367.58,165.48Z"/><path class="cls-3" d="M232.42,165.48a32.32,32.32,0,0,0-32.33,32.33h64.66A32.33,32.33,0,0,0,232.42,165.48Z"/><circle class="cls-6" cx="300" cy="492.48" r="79.37"/><circle class="cls-7" cx="300" cy="492.48" r="56.12"/><circle class="cls-3" cx="300" cy="492.48" r="17.06"/><rect class="cls-3" x="268.28" y="229.93" width="63.43" height="21.12" rx="10.3"/></g></g></svg>