<svg xmlns="http://www.w3.org/2000/svg" xmlns:xlink="http://www.w3.org/1999/xlink" viewBox="0 0 600 600"><defs><style>.cls-1{fill:url(#Degradado_sin_nombre_4);}.cls-2{fill:url(#Degradado_sin_nombre_34);}.cls-3{fill:url(#Degradado_sin_nombre_37);}.cls-4,.cls-7{fill:#fff;}.cls-4{opacity:0.52;}.cls-5{fill:#fddabc;}.cls-6{fill:#00abff;}.cls-7{opacity:0;}</style><linearGradient id="Degradado_sin_nombre_4" x1="37.67" y1="372.08" x2="573.55" y2="563.14" gradientUnits="userSpaceOnUse"><stop offset="0" stop-color="#ffcf6d"/><stop offset="1" stop-color="#ffad76"/></linearGradient><linearGradient id="Degradado_sin_nombre_34" x1="38.25" y1="38.85" x2="303.31" y2="303.91" gradientUnits="userSpaceOnUse"><stop offset="0" stop-color="#00f4f3"/><stop offset="1" stop-color="#0bf"/></linearGradient><linearGradient id="Degradado_sin_nombre_37" x1="374.43" y1="188.5" x2="593.6" y2="312.6" gradientUnits="userSpaceOnUse"><stop offset="0" stop-color="#ff6d62"/><stop offset="1" stop-color="#ff0352"/></linearGradient></defs><g id="Capa_2" data-name="Capa 2"><g id="Capa_1-2" data-name="Capa 1"><rect class="cls-1" y="361.22" width="600" height="208.78" rx="104.39"/><rect class="cls-2" x="29.26" y="30" width="269.48" height="269.21" rx="61.54"/><rect class="cls-3" x="360" y="180.36" width="210" height="118.84" rx="42.82"/><rect class="cls-4" x="395.29" y="210.34" width="139.42" height="58.89" rx="25.51"/><ellipse class="cls-5" cx="105" cy="465.61" rx="44.49" ry="44.44"/><ellipse class="cls-5" cx="295.03" cy="465.61" rx="44.49" ry="44.44"/><ellipse class="cls-5" cx="487.03" cy="465.61" rx="44.49" ry="44.44"/><rect class="cls-6" x="70.37" y="180.37" width="187.8" height="29.97" rx="14.98"/><rect class="cls-4" x="70.37" y="65.01" width="187.8" height="85.39" rx="15"/><rect class="cls-6" x="70.37" y="240.31" width="187.8" height="29.97" rx="14.98"/><rect class="cls-7" width="600" height="600"/></g></g></svg>