<svg xmlns="http://www.w3.org/2000/svg" xmlns:xlink="http://www.w3.org/1999/xlink" viewBox="0 0 600 600"><defs><style>.cls-1,.cls-5{fill:#fff;}.cls-1{opacity:0;}.cls-2{fill:url(#Degradado_sin_nombre_4);}.cls-3{fill:url(#Degradado_sin_nombre_42);}.cls-4{fill:#fddabc;}</style><linearGradient id="Degradado_sin_nombre_4" x1="133.99" y1="95.44" x2="414.26" y2="479.11" gradientUnits="userSpaceOnUse"><stop offset="0" stop-color="#ffcf6d"/><stop offset="1" stop-color="#ffad76"/></linearGradient><linearGradient id="Degradado_sin_nombre_42" x1="369.09" y1="557.92" x2="81.14" y2="557.92" gradientUnits="userSpaceOnUse"><stop offset="0" stop-color="#f9894c"/><stop offset="1" stop-color="#ffad76"/></linearGradient></defs><g id="Capa_2" data-name="Capa 2"><g id="Capa_1-2" data-name="Capa 1"><rect class="cls-1" width="600" height="600"/><path class="cls-2" d="M585,309.56c-23.57-53.05-54.53-170.8-82.26-210.22A234.09,234.09,0,0,0,311.36,0H232.94C115.8,0,16.18,91.14,12,208.21c-2.41,67.11,26,127.49,71.9,168.68V504.3a72,72,0,0,0,72,72H300a72,72,0,0,0,72-72h72a72.05,72.05,0,0,0,72.05-72.05v-72h36A36,36,0,0,0,585,309.56Z"/><rect class="cls-3" x="70.32" y="515.83" width="315.28" height="84.17" rx="24.85"/><circle class="cls-4" cx="344.06" cy="557.92" r="17.76"/><path class="cls-5" d="M372,180.11A35.61,35.61,0,0,1,406.84,225h-69.6A35.61,35.61,0,0,1,372,180.11Z"/></g></g></svg>