<svg xmlns="http://www.w3.org/2000/svg" xmlns:xlink="http://www.w3.org/1999/xlink" viewBox="0 0 600 600"><defs><style>.cls-1,.cls-5{fill:#fff;}.cls-1{opacity:0;}.cls-2{fill:url(#Degradado_sin_nombre_34);}.cls-3{fill:url(#Degradado_sin_nombre_4);}.cls-4{fill:url(#Degradado_sin_nombre_37);}.cls-5{opacity:0.52;}.cls-6{fill:#00abff;}</style><linearGradient id="Degradado_sin_nombre_34" y1="189.63" x2="351.36" y2="189.63" gradientUnits="userSpaceOnUse"><stop offset="0" stop-color="#00f4f3"/><stop offset="1" stop-color="#0bf"/></linearGradient><linearGradient id="Degradado_sin_nombre_4" y1="508.26" x2="600" y2="508.26" gradientUnits="userSpaceOnUse"><stop offset="0" stop-color="#ffcf6d"/><stop offset="1" stop-color="#ffad76"/></linearGradient><linearGradient id="Degradado_sin_nombre_37" x1="417.06" y1="273.84" x2="600" y2="273.84" gradientUnits="userSpaceOnUse"><stop offset="0" stop-color="#ff6d62"/><stop offset="1" stop-color="#ff0352"/></linearGradient></defs><g id="Capa_2" data-name="Capa 2"><g id="Capa_1-2" data-name="Capa 1"><rect class="cls-1" width="600" height="600"/><rect class="cls-2" y="13.94" width="351.36" height="351.36" rx="56.56"/><path class="cls-3" d="M577.39,540.84H497V475.68h80.37a22.61,22.61,0,1,0,0-45.21H22.61a22.61,22.61,0,1,0,0,45.21H103v65.16H22.61a22.61,22.61,0,0,0,0,45.22H577.39a22.61,22.61,0,0,0,0-45.22Zm-128.82,0H324.23V475.68H448.57ZM151.43,475.68H275.77v65.16H151.43Z"/><rect class="cls-4" x="417.06" y="182.36" width="182.94" height="182.94" rx="60.74"/><rect class="cls-2" y="13.94" width="351.36" height="351.36" rx="56.56"/><path class="cls-3" d="M577.39,540.84H497V475.68h80.37a22.61,22.61,0,1,0,0-45.21H22.61a22.61,22.61,0,1,0,0,45.21H103v65.16H22.61a22.61,22.61,0,0,0,0,45.22H577.39a22.61,22.61,0,0,0,0-45.22Zm-128.82,0H324.23V475.68H448.57ZM151.43,475.68H275.77v65.16H151.43Z"/><rect class="cls-4" x="417.06" y="182.36" width="182.94" height="182.94" rx="60.74"/><rect class="cls-5" x="37.93" y="53.52" width="275.5" height="116.77" rx="27.55"/><circle class="cls-5" cx="508.53" cy="273.84" r="44.56"/><rect class="cls-6" x="37.93" y="209.08" width="275.5" height="28.52" rx="13.82"/><rect class="cls-6" x="37.93" y="256.82" width="165.49" height="28.52" rx="13.82"/></g></g></svg>