<svg xmlns="http://www.w3.org/2000/svg" xmlns:xlink="http://www.w3.org/1999/xlink" viewBox="0 0 600 600"><defs><style>.cls-1{fill:#fff;opacity:0;}.cls-2{fill:url(#Degradado_sin_nombre_28);}.cls-3{fill:url(#Degradado_sin_nombre_28-2);}.cls-4{fill:url(#Degradado_sin_nombre_28-3);}.cls-5{fill:url(#Degradado_sin_nombre_28-4);}.cls-6{fill:url(#Degradado_sin_nombre_4);}.cls-7{fill:#f9894c;}</style><linearGradient id="Degradado_sin_nombre_28" x1="24.98" y1="29.58" x2="621.08" y2="561.23" gradientUnits="userSpaceOnUse"><stop offset="0" stop-color="#00e566"/><stop offset="1" stop-color="#00bad2"/></linearGradient><linearGradient id="Degradado_sin_nombre_28-2" x1="246.76" y1="-219.08" x2="842.86" y2="312.58" xlink:href="#Degradado_sin_nombre_28"/><linearGradient id="Degradado_sin_nombre_28-3" x1="-221.77" y1="306.23" x2="374.33" y2="837.89" xlink:href="#Degradado_sin_nombre_28"/><linearGradient id="Degradado_sin_nombre_28-4" x1="0.01" y1="57.58" x2="596.12" y2="589.24" xlink:href="#Degradado_sin_nombre_28"/><linearGradient id="Degradado_sin_nombre_4" x1="158.14" y1="158.14" x2="432.02" y2="432.02" gradientUnits="userSpaceOnUse"><stop offset="0" stop-color="#ffcf6d"/><stop offset="1" stop-color="#ffad76"/></linearGradient></defs><g id="Capa_2" data-name="Capa 2"><g id="Capa_1-2" data-name="Capa 1"><rect class="cls-1" width="600" height="600"/><path class="cls-2" d="M105,0H36.21A36.21,36.21,0,0,0,0,36.21V105a30,30,0,0,0,30,30h0a30,30,0,0,0,30-30V60h45a30,30,0,0,0,30-30h0A30,30,0,0,0,105,0Z"/><path class="cls-3" d="M600,105V36.21A36.21,36.21,0,0,0,563.79,0H495a30,30,0,0,0-30,30h0a30,30,0,0,0,30,30h45v45a30,30,0,0,0,30,30h0A30,30,0,0,0,600,105Z"/><path class="cls-4" d="M105,600H36.21A36.21,36.21,0,0,1,0,563.79V495a30,30,0,0,1,30-30h0a30,30,0,0,1,30,30v45h45a30,30,0,0,1,30,30h0A30,30,0,0,1,105,600Z"/><path class="cls-5" d="M600,495v68.79A36.21,36.21,0,0,1,563.79,600H495a30,30,0,0,1-30-30h0a30,30,0,0,1,30-30h45V495a30,30,0,0,1,30-30h0A30,30,0,0,1,600,495Z"/><circle class="cls-6" cx="300" cy="300" r="209.8"/><circle class="cls-7" cx="208.69" cy="279.01" r="19.27"/><circle class="cls-7" cx="391.31" cy="279.01" r="19.27"/><path class="cls-7" d="M300,372.94a141.31,141.31,0,0,1-73.89-20.84,13.89,13.89,0,1,1,14.51-23.68,113.63,113.63,0,0,0,118.76,0,13.89,13.89,0,1,1,14.51,23.68A141.31,141.31,0,0,1,300,372.94Z"/></g></g></svg>