<svg xmlns="http://www.w3.org/2000/svg" xmlns:xlink="http://www.w3.org/1999/xlink" viewBox="0 0 600 600"><defs><style>.cls-1{fill:#fff;opacity:0;}.cls-2{fill:url(#Degradado_sin_nombre_4);}.cls-3{fill:#f9894c;}.cls-4{fill:#fddabc;}</style><linearGradient id="Degradado_sin_nombre_4" y1="300" x2="600" y2="300" gradientUnits="userSpaceOnUse"><stop offset="0" stop-color="#ffcf6d"/><stop offset="1" stop-color="#ffad76"/></linearGradient></defs><g id="Capa_2" data-name="Capa 2"><g id="Capa_1-2" data-name="Capa 1"><rect class="cls-1" width="600" height="600"/><path class="cls-2" d="M120.88,201.1l278,278h-278v-278M64.7,0C31.68,0,0,25.64,0,64.37V535.76A64.24,64.24,0,0,0,64.24,600H535.63c57.23,0,85.89-69.2,45.43-109.66L109.66,18.94A62.9,62.9,0,0,0,64.7,0Z"/><path class="cls-3" d="M108.87,531.21h0a12,12,0,0,1,12,12V600a0,0,0,0,1,0,0h-24a0,0,0,0,1,0,0V543.22A12,12,0,0,1,108.87,531.21Z"/><path class="cls-3" d="M177.5,565.61h0a12,12,0,0,1,12,12V600a0,0,0,0,1,0,0h-24a0,0,0,0,1,0,0V577.62a12,12,0,0,1,12-12Z"/><path class="cls-3" d="M246.14,531.21h0a12,12,0,0,1,12,12V600a0,0,0,0,1,0,0h-24a0,0,0,0,1,0,0V543.22A12,12,0,0,1,246.14,531.21Z"/><path class="cls-3" d="M314.78,565.61h0a12,12,0,0,1,12,12V600a0,0,0,0,1,0,0h-24a0,0,0,0,1,0,0V577.62A12,12,0,0,1,314.78,565.61Z"/><path class="cls-3" d="M383.41,531.21h0a12,12,0,0,1,12,12V600a0,0,0,0,1,0,0h-24a0,0,0,0,1,0,0V543.22A12,12,0,0,1,383.41,531.21Z"/><path class="cls-3" d="M518.69,531.21h0a12,12,0,0,1,12,12V600a0,0,0,0,1,0,0h-24a0,0,0,0,1,0,0V543.22A12,12,0,0,1,518.69,531.21Z"/><path class="cls-3" d="M452,565.61h0a12,12,0,0,1,12,12V600a0,0,0,0,1,0,0H440a0,0,0,0,1,0,0V577.62a12,12,0,0,1,12-12Z"/><path class="cls-3" d="M33.44,53.77h0a12,12,0,0,1,12,12v54.86a0,0,0,0,1,0,0h-24a0,0,0,0,1,0,0V65.78a12,12,0,0,1,12-12Z" transform="translate(120.64 53.77) rotate(90)"/><path class="cls-3" d="M16.72,139.13h0a12,12,0,0,1,12,12v21.43a0,0,0,0,1,0,0h-24a0,0,0,0,1,0,0V151.14A12,12,0,0,1,16.72,139.13Z" transform="translate(172.56 139.13) rotate(90)"/><path class="cls-3" d="M33.44,191h0a12,12,0,0,1,12,12v54.86a0,0,0,0,1,0,0h-24a0,0,0,0,1,0,0V203.05A12,12,0,0,1,33.44,191Z" transform="translate(257.92 191.04) rotate(90)"/><path class="cls-3" d="M16.72,276.4h0a12,12,0,0,1,12,12v21.43a0,0,0,0,1,0,0h-24a0,0,0,0,1,0,0V288.41A12,12,0,0,1,16.72,276.4Z" transform="translate(309.84 276.4) rotate(90)"/><path class="cls-3" d="M33.44,328.32h0a12,12,0,0,1,12,12v54.86a0,0,0,0,1,0,0h-24a0,0,0,0,1,0,0V340.33A12,12,0,0,1,33.44,328.32Z" transform="translate(395.19 328.32) rotate(90)"/><path class="cls-3" d="M33.44,463.59h0a12,12,0,0,1,12,12v54.86a0,0,0,0,1,0,0h-24a0,0,0,0,1,0,0V475.6A12,12,0,0,1,33.44,463.59Z" transform="translate(530.47 463.59) rotate(90)"/><path class="cls-3" d="M16.72,413.67h0a12,12,0,0,1,12,12v21.43a0,0,0,0,1,0,0h-24a0,0,0,0,1,0,0V425.68A12,12,0,0,1,16.72,413.67Z" transform="translate(447.11 413.67) rotate(90)"/><circle class="cls-4" cx="305.74" cy="298.24" r="27.93"/></g></g></svg>