<svg xmlns="http://www.w3.org/2000/svg" xmlns:xlink="http://www.w3.org/1999/xlink" width="90" height="90" viewBox="0 0 90 90">
  <defs>
    <filter id="Trazado_501" x="20.747" y="0" width="48.507" height="48.507" filterUnits="userSpaceOnUse">
      <feOffset dx="5" dy="5" input="SourceAlpha"/>
      <feGaussianBlur stdDeviation="5" result="blur"/>
      <feFlood flood-color="#b1b1b1" flood-opacity="0.161"/>
      <feComposite operator="in" in2="blur"/>
      <feComposite in="SourceGraphic"/>
    </filter>
    <filter id="Trazado_501-2" x="20.747" y="0" width="48.507" height="48.507" filterUnits="userSpaceOnUse">
      <feOffset input="SourceAlpha"/>
      <feGaussianBlur stdDeviation="3" result="blur-2"/>
      <feFlood flood-opacity="0.161" result="color"/>
      <feComposite operator="out" in="SourceGraphic" in2="blur-2"/>
      <feComposite operator="in" in="color"/>
      <feComposite operator="in" in2="SourceGraphic"/>
    </filter>
    <filter id="Trazado_500" x="41.493" y="0" width="48.507" height="48.507" filterUnits="userSpaceOnUse">
      <feOffset dx="5" dy="5" input="SourceAlpha"/>
      <feGaussianBlur stdDeviation="5" result="blur-3"/>
      <feFlood flood-color="#b1b1b1" flood-opacity="0.161"/>
      <feComposite operator="in" in2="blur-3"/>
      <feComposite in="SourceGraphic"/>
    </filter>
    <filter id="Trazado_500-2" x="41.493" y="0" width="48.507" height="48.507" filterUnits="userSpaceOnUse">
      <feOffset input="SourceAlpha"/>
      <feGaussianBlur stdDeviation="3" result="blur-4"/>
      <feFlood flood-opacity="0.161" result="color-2"/>
      <feComposite operator="out" in="SourceGraphic" in2="blur-4"/>
      <feComposite operator="in" in="color-2"/>
      <feComposite operator="in" in2="SourceGraphic"/>
    </filter>
    <filter id="Trazado_502" x="0" y="0" width="48.507" height="48.507" filterUnits="userSpaceOnUse">
      <feOffset dx="5" dy="5" input="SourceAlpha"/>
      <feGaussianBlur stdDeviation="5" result="blur-5"/>
      <feFlood flood-color="#b1b1b1" flood-opacity="0.161"/>
      <feComposite operator="in" in2="blur-5"/>
      <feComposite in="SourceGraphic"/>
    </filter>
    <filter id="Trazado_502-2" x="0" y="0" width="48.507" height="48.507" filterUnits="userSpaceOnUse">
      <feOffset input="SourceAlpha"/>
      <feGaussianBlur stdDeviation="3" result="blur-6"/>
      <feFlood flood-opacity="0.161" result="color-3"/>
      <feComposite operator="out" in="SourceGraphic" in2="blur-6"/>
      <feComposite operator="in" in="color-3"/>
      <feComposite operator="in" in2="SourceGraphic"/>
    </filter>
    <filter id="Trazado_499" x="12.572" y="11.743" width="55.062" height="62.573" filterUnits="userSpaceOnUse">
      <feOffset dy="3" input="SourceAlpha"/>
      <feGaussianBlur stdDeviation="3" result="blur-7"/>
      <feFlood flood-opacity="0.161"/>
      <feComposite operator="in" in2="blur-7"/>
      <feComposite in="SourceGraphic"/>
    </filter>
    <filter id="Trazado_499-2" x="12.572" y="11.743" width="55.062" height="62.573" filterUnits="userSpaceOnUse">
      <feOffset input="SourceAlpha"/>
      <feGaussianBlur stdDeviation="3" result="blur-8"/>
      <feFlood flood-opacity="0.161" result="color-4"/>
      <feComposite operator="out" in="SourceGraphic" in2="blur-8"/>
      <feComposite operator="in" in="color-4"/>
      <feComposite operator="in" in2="SourceGraphic"/>
    </filter>
    <filter id="Trazado_503" x="18.307" y="46.53" width="60.881" height="43.47" filterUnits="userSpaceOnUse">
      <feOffset dx="5" dy="5" input="SourceAlpha"/>
      <feGaussianBlur stdDeviation="5" result="blur-9"/>
      <feFlood flood-color="#b1b1b1" flood-opacity="0.161"/>
      <feComposite operator="in" in2="blur-9"/>
      <feComposite in="SourceGraphic"/>
    </filter>
  </defs>
  <g id="Seleccio패n_multiple" data-name="Seleccio패n multiple" transform="translate(10 10)" style="mix-blend-mode: normal;isolation: isolate">
    <g id="Capa_2" data-name="Capa 2">
      <g id="Capa_1" data-name="Capa 1">
        <g data-type="innerShadowGroup">
          <g transform="matrix(1, 0, 0, 1, -10, -10)" filter="url(#Trazado_501)">
            <path id="Trazado_501-3" data-name="Trazado 501" d="M3.947,0H14.56a3.947,3.947,0,0,1,3.947,3.947V14.56a3.947,3.947,0,0,1-3.947,3.947H3.947A3.947,3.947,0,0,1,0,14.56V3.947A3.947,3.947,0,0,1,3.947,0Z" transform="translate(30.75 10)" fill="#ebebeb"/>
          </g>
          <g transform="matrix(1, 0, 0, 1, -10, -10)" filter="url(#Trazado_501-2)">
            <path id="Trazado_501-4" data-name="Trazado 501" d="M3.947,0H14.56a3.947,3.947,0,0,1,3.947,3.947V14.56a3.947,3.947,0,0,1-3.947,3.947H3.947A3.947,3.947,0,0,1,0,14.56V3.947A3.947,3.947,0,0,1,3.947,0Z" transform="translate(30.75 10)" fill="#fff"/>
          </g>
        </g>
        <circle id="Elipse_133" data-name="Elipse 133" cx="3.476" cy="3.476" r="3.476" transform="translate(26.524 5.778)" fill="#afafaf"/>
        <g data-type="innerShadowGroup">
          <g transform="matrix(1, 0, 0, 1, -10, -10)" filter="url(#Trazado_500)">
            <path id="Trazado_500-3" data-name="Trazado 500" d="M3.947,0H14.56a3.947,3.947,0,0,1,3.947,3.947V14.56a3.947,3.947,0,0,1-3.947,3.947H3.947A3.947,3.947,0,0,1,0,14.56V3.947A3.947,3.947,0,0,1,3.947,0Z" transform="translate(51.49 10)" fill="#d7d7d7"/>
          </g>
          <g transform="matrix(1, 0, 0, 1, -10, -10)" filter="url(#Trazado_500-2)">
            <path id="Trazado_500-4" data-name="Trazado 500" d="M3.947,0H14.56a3.947,3.947,0,0,1,3.947,3.947V14.56a3.947,3.947,0,0,1-3.947,3.947H3.947A3.947,3.947,0,0,1,0,14.56V3.947A3.947,3.947,0,0,1,3.947,0Z" transform="translate(51.49 10)" fill="#fff"/>
          </g>
        </g>
        <g data-type="innerShadowGroup">
          <g transform="matrix(1, 0, 0, 1, -10, -10)" filter="url(#Trazado_502)">
            <path id="Trazado_502-3" data-name="Trazado 502" d="M3.947,0H14.56a3.947,3.947,0,0,1,3.947,3.947V14.56a3.947,3.947,0,0,1-3.947,3.947H3.947A3.947,3.947,0,0,1,0,14.56V3.947A3.947,3.947,0,0,1,3.947,0Z" transform="translate(10 10)" fill="#d7d7d7"/>
          </g>
          <g transform="matrix(1, 0, 0, 1, -10, -10)" filter="url(#Trazado_502-2)">
            <path id="Trazado_502-4" data-name="Trazado 502" d="M3.947,0H14.56a3.947,3.947,0,0,1,3.947,3.947V14.56a3.947,3.947,0,0,1-3.947,3.947H3.947A3.947,3.947,0,0,1,0,14.56V3.947A3.947,3.947,0,0,1,3.947,0Z" transform="translate(10 10)" fill="#fff"/>
          </g>
        </g>
        <g data-type="innerShadowGroup">
          <g transform="matrix(1, 0, 0, 1, -10, -10)" filter="url(#Trazado_499)">
            <path id="Trazado_499-3" data-name="Trazado 499" d="M240.27,154.9a3.1,3.1,0,1,0-6.2,0v-3.009a3.161,3.161,0,1,0-6.322,0V148.91a3.161,3.161,0,1,0-6.322,0v-9.748a3.161,3.161,0,1,0-6.322,0v26.449l-4.5-7.089a4,4,0,0,0-5.544-1.228h0a4.056,4.056,0,0,0-1.22,5.581l8.836,13.913a4.045,4.045,0,0,0,.25.349c2.447,3.407,6.636,3.416,13.335,3.416h2.608a11.439,11.439,0,0,0,11.4-11.475v-.039Z" transform="translate(-181.64 -118.24)" fill="#d8d8d8"/>
          </g>
          <g transform="matrix(1, 0, 0, 1, -10, -10)" filter="url(#Trazado_499-2)">
            <path id="Trazado_499-4" data-name="Trazado 499" d="M240.27,154.9a3.1,3.1,0,1,0-6.2,0v-3.009a3.161,3.161,0,1,0-6.322,0V148.91a3.161,3.161,0,1,0-6.322,0v-9.748a3.161,3.161,0,1,0-6.322,0v26.449l-4.5-7.089a4,4,0,0,0-5.544-1.228h0a4.056,4.056,0,0,0-1.22,5.581l8.836,13.913a4.045,4.045,0,0,0,.25.349c2.447,3.407,6.636,3.416,13.335,3.416h2.608a11.439,11.439,0,0,0,11.4-11.475v-.039Z" transform="translate(-181.64 -118.24)" fill="#fff"/>
          </g>
        </g>
        <g transform="matrix(1, 0, 0, 1, -10, -10)" filter="url(#Trazado_503)">
          <path id="Trazado_503-2" data-name="Trazado 503" d="M4.377,0H26.5a4.377,4.377,0,0,1,4.377,4.377V9.093A4.377,4.377,0,0,1,26.5,13.47H4.377A4.377,4.377,0,0,1,0,9.093V4.377A4.377,4.377,0,0,1,4.377,0Z" transform="translate(28.31 56.53)" fill="#e6e6e6"/>
        </g>
        <circle id="Elipse_134" data-name="Elipse 134" cx="1.538" cy="1.538" r="1.538" transform="translate(20.972 51.728)" fill="#fff"/>
        <circle id="Elipse_135" data-name="Elipse 135" cx="3.476" cy="3.476" r="3.476" transform="translate(5.778 5.778)" fill="#fff"/>
        <circle id="Elipse_136" data-name="Elipse 136" cx="3.476" cy="3.476" r="3.476" transform="translate(47.271 5.778)" fill="#fff"/>
        <rect id="Rect치ngulo_632" data-name="Rect치ngulo 632" width="60" height="60" fill="#fff" opacity="0"/>
      </g>
    </g>
  </g>
</svg>
