<svg xmlns="http://www.w3.org/2000/svg" xmlns:xlink="http://www.w3.org/1999/xlink" viewBox="0 0 600 600"><defs><style>.cls-1{fill:#fff;opacity:0;}.cls-2{fill:url(#Degradado_sin_nombre_28);}.cls-3{fill:url(#Degradado_sin_nombre_45);}.cls-4{fill:#bbffe5;}</style><linearGradient id="Degradado_sin_nombre_28" x1="184.81" y1="67" x2="428.44" y2="370.18" gradientUnits="userSpaceOnUse"><stop offset="0" stop-color="#00e566"/><stop offset="1" stop-color="#00bad2"/></linearGradient><linearGradient id="Degradado_sin_nombre_45" x1="640.99" y1="625.63" x2="17.76" y2="372.45" gradientUnits="userSpaceOnUse"><stop offset="0" stop-color="#7669f7"/><stop offset="1" stop-color="#a58ffc"/></linearGradient></defs><g id="Capa_2" data-name="Capa 2"><g id="Capa_1-2" data-name="Capa 1"><rect class="cls-1" width="600" height="600"/><path class="cls-2" d="M446.5,123.36,339,15.89a54.25,54.25,0,0,0-76.73,0L154.83,123.36a55.07,55.07,0,0,0,0,77.89h0a55.07,55.07,0,0,0,77.89,0L244.93,189v203.2A55.06,55.06,0,0,0,300,447.31h0a55.06,55.06,0,0,0,55.07-55.07V187.71l13.55,13.54a55.06,55.06,0,0,0,77.88,0h0A55.07,55.07,0,0,0,446.5,123.36Z"/><path class="cls-3" d="M489.85,430.32v59.53H110.15V430.32a55.08,55.08,0,0,0-55.08-55.08h0A55.08,55.08,0,0,0,0,430.32V541.78A58.21,58.21,0,0,0,58.22,600H541.78A58.21,58.21,0,0,0,600,541.78V430.32a55.08,55.08,0,0,0-55.07-55.08h0A55.08,55.08,0,0,0,489.85,430.32Z"/><rect class="cls-4" x="272.65" y="174.95" width="54.7" height="105.23" rx="27.35"/></g></g></svg>