<svg xmlns="http://www.w3.org/2000/svg" xmlns:xlink="http://www.w3.org/1999/xlink" viewBox="0 0 600 600"><defs><style>.cls-1{fill:#fff;opacity:0;}.cls-2{fill:url(#Degradado_sin_nombre_30);}.cls-3{fill:url(#Degradado_sin_nombre_24);}.cls-4{fill:url(#Degradado_sin_nombre_18);}.cls-5{fill:#ffb000;}.cls-6{fill:url(#Degradado_sin_nombre_19);}.cls-7{fill:#fff9eb;}</style><linearGradient id="Degradado_sin_nombre_30" x1="300" y1="438.57" x2="300" y2="522.04" gradientUnits="userSpaceOnUse"><stop offset="0" stop-color="#356cff"/><stop offset="1" stop-color="#00aefa"/></linearGradient><linearGradient id="Degradado_sin_nombre_24" x1="300" y1="493.76" x2="300" y2="419.78" gradientUnits="userSpaceOnUse"><stop offset="0" stop-color="#fff"/><stop offset="1" stop-color="#e2e1f1"/></linearGradient><linearGradient id="Degradado_sin_nombre_18" x1="170.69" y1="85.5" x2="439.51" y2="452.55" gradientUnits="userSpaceOnUse"><stop offset="0" stop-color="#fee28d"/><stop offset="1" stop-color="#f8ad14"/></linearGradient><linearGradient id="Degradado_sin_nombre_19" x1="216.26" y1="172.84" x2="455.29" y2="427.53" gradientUnits="userSpaceOnUse"><stop offset="0.06" stop-color="#fee28d"/><stop offset="1" stop-color="#f8ad14"/></linearGradient></defs><g id="Capa_2" data-name="Capa 2"><g id="Capa_1-2" data-name="Capa 1"><rect class="cls-1" width="600" height="600"/><path class="cls-2" d="M360,532.23l-60-33.4-60,33.4a20.75,20.75,0,0,1-30.84-18.13v-152H390.82v152A20.75,20.75,0,0,1,360,532.23Z"/><polygon class="cls-3" points="269.12 516.02 300 498.83 330.88 516.02 330.88 362.06 269.12 362.06 269.12 516.02"/><path class="cls-4" d="M469.6,317.73V206.4A73.17,73.17,0,0,0,433,143L336.59,87.36a73.19,73.19,0,0,0-73.18,0L167,143A73.17,73.17,0,0,0,130.4,206.4V317.73A73.19,73.19,0,0,0,167,381.11l96.42,55.66a73.14,73.14,0,0,0,73.18,0L433,381.11A73.19,73.19,0,0,0,469.6,317.73Z"/><circle class="cls-5" cx="300" cy="262.07" r="126.41"/><circle class="cls-6" cx="300" cy="262.07" r="102.72"/><path class="cls-7" d="M286.74,305.86a16.23,16.23,0,0,1-11.48-4.75l-28.6-28.6a16.24,16.24,0,1,1,23-23l17.12,17.12L330.38,223a16.24,16.24,0,1,1,23,23l-55.13,55.13A16.23,16.23,0,0,1,286.74,305.86Z"/></g></g></svg>