<svg xmlns="http://www.w3.org/2000/svg" xmlns:xlink="http://www.w3.org/1999/xlink" viewBox="0 0 600 600"><defs><style>.cls-1{fill:#fff;opacity:0;}.cls-2{fill:url(#Degradado_sin_nombre_30);}.cls-3{fill:url(#Degradado_sin_nombre_4);}.cls-4{fill:url(#Degradado_sin_nombre_30-2);}.cls-5{fill:url(#Degradado_sin_nombre_30-3);}.cls-6{fill:#fecf6e;}.cls-7{fill:url(#Degradado_sin_nombre_30-4);}.cls-8{fill:url(#Degradado_sin_nombre_30-5);}.cls-9{fill:url(#Degradado_sin_nombre_4-2);}.cls-10{fill:url(#Degradado_sin_nombre_4-3);}.cls-11{fill:url(#Degradado_sin_nombre_4-4);}.cls-12{fill:url(#Degradado_sin_nombre_4-5);}.cls-13{fill:url(#Degradado_sin_nombre_4-6);}.cls-14{fill:url(#Degradado_sin_nombre_4-7);}.cls-15{fill:url(#Degradado_sin_nombre_4-8);}.cls-16{fill:url(#Degradado_sin_nombre_4-9);}.cls-17{fill:url(#Degradado_sin_nombre_4-10);}.cls-18{fill:url(#Degradado_sin_nombre_4-11);}.cls-19{fill:url(#Degradado_sin_nombre_4-12);}.cls-20{fill:url(#Degradado_sin_nombre_4-13);}.cls-21{fill:url(#Degradado_sin_nombre_4-14);}.cls-22{fill:url(#Degradado_sin_nombre_4-15);}</style><linearGradient id="Degradado_sin_nombre_30" x1="71.01" y1="401.95" x2="92.81" y2="401.95" gradientUnits="userSpaceOnUse"><stop offset="0" stop-color="#356cff"/><stop offset="1" stop-color="#00aefa"/></linearGradient><linearGradient id="Degradado_sin_nombre_4" x1="42.1" y1="399.81" x2="51.07" y2="399.81" gradientUnits="userSpaceOnUse"><stop offset="0" stop-color="#ffcf6d"/><stop offset="1" stop-color="#ffad76"/></linearGradient><linearGradient id="Degradado_sin_nombre_30-2" x1="531.74" y1="284.9" x2="558.37" y2="284.9" xlink:href="#Degradado_sin_nombre_30"/><linearGradient id="Degradado_sin_nombre_30-3" x1="562.9" y1="338.28" x2="600" y2="338.28" xlink:href="#Degradado_sin_nombre_30"/><linearGradient id="Degradado_sin_nombre_30-4" x1="51.85" y1="230.02" x2="81.76" y2="230.02" gradientTransform="translate(-143.08 114.61) rotate(-45)" xlink:href="#Degradado_sin_nombre_30"/><linearGradient id="Degradado_sin_nombre_30-5" x1="147.24" y1="95.88" x2="166.51" y2="95.88" gradientTransform="translate(-21.85 139.01) rotate(-45)" xlink:href="#Degradado_sin_nombre_30"/><linearGradient id="Degradado_sin_nombre_4-2" x1="66.3" y1="94.16" x2="92.53" y2="94.16" xlink:href="#Degradado_sin_nombre_4"/><linearGradient id="Degradado_sin_nombre_4-3" x1="70.72" y1="124.84" x2="102.13" y2="124.84" xlink:href="#Degradado_sin_nombre_4"/><linearGradient id="Degradado_sin_nombre_4-4" x1="58.37" y1="149.44" x2="75.24" y2="149.44" xlink:href="#Degradado_sin_nombre_4"/><linearGradient id="Degradado_sin_nombre_4-5" x1="26.9" y1="149.44" x2="43.77" y2="149.44" xlink:href="#Degradado_sin_nombre_4"/><linearGradient id="Degradado_sin_nombre_4-6" x1="0" y1="124.84" x2="31.42" y2="124.84" xlink:href="#Degradado_sin_nombre_4"/><linearGradient id="Degradado_sin_nombre_4-7" x1="9.6" y1="94.16" x2="35.83" y2="94.16" xlink:href="#Degradado_sin_nombre_4"/><linearGradient id="Degradado_sin_nombre_4-8" x1="48.46" y1="80.5" x2="53.67" y2="80.5" xlink:href="#Degradado_sin_nombre_4"/><linearGradient id="Degradado_sin_nombre_4-9" x1="536.12" y1="424.36" x2="562.35" y2="424.36" xlink:href="#Degradado_sin_nombre_4"/><linearGradient id="Degradado_sin_nombre_4-10" x1="540.53" y1="455.04" x2="571.94" y2="455.04" xlink:href="#Degradado_sin_nombre_4"/><linearGradient id="Degradado_sin_nombre_4-11" x1="528.18" y1="479.64" x2="545.05" y2="479.64" xlink:href="#Degradado_sin_nombre_4"/><linearGradient id="Degradado_sin_nombre_4-12" x1="496.71" y1="479.64" x2="513.58" y2="479.64" xlink:href="#Degradado_sin_nombre_4"/><linearGradient id="Degradado_sin_nombre_4-13" x1="469.81" y1="455.03" x2="501.23" y2="455.03" xlink:href="#Degradado_sin_nombre_4"/><linearGradient id="Degradado_sin_nombre_4-14" x1="479.41" y1="424.36" x2="505.64" y2="424.36" xlink:href="#Degradado_sin_nombre_4"/><linearGradient id="Degradado_sin_nombre_4-15" x1="518.27" y1="410.7" x2="523.48" y2="410.7" xlink:href="#Degradado_sin_nombre_4"/></defs><g id="Capa_2" data-name="Capa 2"><g id="Capa_1-2" data-name="Capa 1"><rect class="cls-1" width="600" height="600"/><path class="cls-2" d="M81.91,412.84a10.9,10.9,0,1,1,10.9-10.9A10.91,10.91,0,0,1,81.91,412.84Zm0-18a7.11,7.11,0,1,0,7.11,7.1A7.12,7.12,0,0,0,81.91,394.84Z"/><circle class="cls-3" cx="46.58" cy="399.81" r="4.48"/><path class="cls-4" d="M556.41,282.94a9.41,9.41,0,0,1-9.4-9.39,2,2,0,0,0-3.92,0,9.4,9.4,0,0,1-9.39,9.39,2,2,0,0,0,0,3.92,9.4,9.4,0,0,1,9.39,9.39,2,2,0,1,0,3.92,0,9.41,9.41,0,0,1,9.4-9.39,2,2,0,1,0,0-3.92Z"/><path class="cls-5" d="M598.05,336.33a14.67,14.67,0,0,1-14.65-14.66,2,2,0,1,0-3.9,0,14.67,14.67,0,0,1-14.65,14.66,1.95,1.95,0,1,0,0,3.89,14.67,14.67,0,0,1,14.65,14.66,2,2,0,1,0,3.9,0,14.67,14.67,0,0,1,14.65-14.66,1.95,1.95,0,1,0,0-3.89Z"/><rect class="cls-6" x="494.57" y="110.26" width="21.15" height="21.15" transform="translate(233.4 -321.8) rotate(45)"/><rect class="cls-7" x="56.23" y="219.45" width="21.15" height="21.15" transform="translate(182.22 20.14) rotate(45)"/><rect class="cls-8" x="150.06" y="89.07" width="13.62" height="13.62" transform="translate(113.75 -82.84) rotate(45)"/><path class="cls-9" d="M68.91,104.48a2.61,2.61,0,0,1-1.54-4.71l21-15.43a2.61,2.61,0,0,1,3.08,4.21L70.45,104A2.59,2.59,0,0,1,68.91,104.48Z"/><path class="cls-10" d="M99.53,131.1a2.53,2.53,0,0,1-.71-.1l-26.2-7.31a2.61,2.61,0,1,1,1.4-5L100.23,126a2.6,2.6,0,0,1-.7,5.11Z"/><path class="cls-11" d="M72.63,164.82a2.61,2.61,0,0,1-2.37-1.52L58.6,137.75a2.6,2.6,0,0,1,4.74-2.16L75,161.14a2.6,2.6,0,0,1-2.38,3.68Z"/><path class="cls-12" d="M29.5,164.82a2.6,2.6,0,0,1-2.37-3.68l11.66-25.55a2.62,2.62,0,0,1,3.46-1.29,2.59,2.59,0,0,1,1.28,3.45L31.87,163.3A2.59,2.59,0,0,1,29.5,164.82Z"/><path class="cls-13" d="M2.61,131.1A2.6,2.6,0,0,1,1.9,126l26.21-7.32a2.61,2.61,0,0,1,1.41,5L3.31,131A2.52,2.52,0,0,1,2.61,131.1Z"/><path class="cls-14" d="M33.22,104.48a2.59,2.59,0,0,1-1.54-.51l-21-15.43a2.61,2.61,0,0,1,3.09-4.2l21,15.43a2.61,2.61,0,0,1-1.54,4.71Z"/><path class="cls-15" d="M51.07,95.88a2.6,2.6,0,0,1-2.61-2.6V67.73a2.61,2.61,0,1,1,5.21,0V93.28A2.59,2.59,0,0,1,51.07,95.88Z"/><path class="cls-16" d="M538.72,434.68a2.61,2.61,0,0,1-1.54-4.71l21-15.43a2.6,2.6,0,0,1,3.08,4.2l-21,15.43A2.59,2.59,0,0,1,538.72,434.68Z"/><path class="cls-17" d="M569.34,461.3a2.42,2.42,0,0,1-.7-.1l-26.21-7.31a2.61,2.61,0,0,1,1.41-5l26.2,7.31a2.61,2.61,0,0,1-.7,5.12Z"/><path class="cls-18" d="M542.45,495a2.59,2.59,0,0,1-2.37-1.52L528.41,468a2.61,2.61,0,0,1,4.75-2.16l11.66,25.55a2.6,2.6,0,0,1-2.37,3.68Z"/><path class="cls-19" d="M499.31,495a2.6,2.6,0,0,1-2.37-3.68l11.66-25.55a2.61,2.61,0,0,1,4.75,2.16L501.69,493.5A2.61,2.61,0,0,1,499.31,495Z"/><path class="cls-20" d="M472.42,461.3a2.61,2.61,0,0,1-.7-5.12l26.2-7.31a2.61,2.61,0,1,1,1.41,5l-26.21,7.31A2.42,2.42,0,0,1,472.42,461.3Z"/><path class="cls-21" d="M503,434.68a2.59,2.59,0,0,1-1.54-.51l-21-15.43a2.6,2.6,0,0,1,3.08-4.2l21,15.43a2.61,2.61,0,0,1-1.55,4.71Z"/><path class="cls-22" d="M520.88,426.08a2.6,2.6,0,0,1-2.61-2.6V397.93a2.61,2.61,0,1,1,5.21,0v25.55A2.59,2.59,0,0,1,520.88,426.08Z"/></g></g></svg>