<svg xmlns="http://www.w3.org/2000/svg" xmlns:xlink="http://www.w3.org/1999/xlink" viewBox="0 0 600 600"><defs><style>.cls-1,.cls-4{fill:#fff;}.cls-1{opacity:0;}.cls-2{fill:url(#Degradado_sin_nombre_45);}.cls-3{fill:url(#Degradado_sin_nombre_45-2);}.cls-5{fill:url(#Degradado_sin_nombre_45-3);}.cls-6{fill:#c3c2ff;}</style><linearGradient id="Degradado_sin_nombre_45" x1="465" y1="594.04" x2="13.18" y2="142.22" gradientUnits="userSpaceOnUse"><stop offset="0" stop-color="#7669f7"/><stop offset="1" stop-color="#a58ffc"/></linearGradient><linearGradient id="Degradado_sin_nombre_45-2" x1="721.07" y1="341.99" x2="269.25" y2="-109.83" xlink:href="#Degradado_sin_nombre_45"/><linearGradient id="Degradado_sin_nombre_45-3" x1="519.2" y1="648.16" x2="-37.75" y2="91.21" xlink:href="#Degradado_sin_nombre_45"/></defs><g id="Capa_2" data-name="Capa 2"><g id="Capa_1-2" data-name="Capa 1"><rect class="cls-1" width="600" height="600"/><g id="nrHwOZ.tif"><path class="cls-2" d="M184.07,124h96.41c12.17,3.29,17.58,11.45,18.79,23.82,1.43,14.56,4.14,29,6.05,43.51.53,4,2.06,6.46,5.86,8.39,7.55,3.82,14.84,8.2,22,12.75,3,1.92,5.41,2.38,8.84.95,14.8-6.18,29.72-12.06,44.63-18,12.81-5.08,22.43-1.73,29.39,10.26q21.51,37,42.92,74.14c7,12.15,5,22.31-6,30.93q-19.15,15-38.37,29.93a6.58,6.58,0,0,0-2.9,6.17c.31,9.57.33,19.15,0,28.72a7,7,0,0,0,3.1,6.54c12.84,9.9,25.6,19.92,38.36,29.93,10.64,8.34,12.77,18.55,6.09,30.17Q437.58,480,415.71,517.6c-6.71,11.56-16.2,14.77-28.69,9.82-15.2-6-30.4-12-45.49-18.31-3.12-1.29-5.26-.9-8,.84a253.91,253.91,0,0,1-22,12.77c-4.15,2.07-5.7,4.72-6.27,9.11-2.15,16.36-4.41,32.71-7.15,49-1.85,10.94-9.67,17.5-20.65,17.56q-45.18.27-90.38,0c-11-.08-18.76-6.66-20.6-17.61-2.73-16.27-5-32.61-7.18-49-.56-4.17-1.92-6.81-5.94-8.84-7.69-3.88-15.07-8.41-22.38-13-2.75-1.74-4.89-2.13-8-.83-14.66,6.13-29.43,12-44.18,17.85-13.66,5.46-23.18,2.22-30.5-10.4Q26.92,479.72,5.62,442.82c-7-12.17-5-22.23,6-30.9,12.52-9.82,25-19.66,37.64-29.35,2.68-2.05,3.79-4,3.59-7.66a243.1,243.1,0,0,1,0-26.86c.22-3.82-.93-5.89-3.74-8.05C36.51,330.32,24,320.47,11.49,310.66c-10.85-8.5-12.88-18.58-6-30.53q21.6-37.51,43.36-74.95C55.6,193.56,65,190.3,77.5,195.25c15.34,6.08,30.66,12.2,45.91,18.5,2.79,1.15,4.76.74,7.21-.76,7.9-4.81,15.86-9.53,24-13.91A7.69,7.69,0,0,0,159,192.7C161,178.81,162.71,164.88,165,151a73.54,73.54,0,0,1,4.64-17.22C172.16,127.89,178.36,126,184.07,124Z"/></g><g id="nrHwOZ.tif-2" data-name="nrHwOZ.tif"><path class="cls-3" d="M513.48,222.47h-44.9c-5.66-1.53-8.18-5.33-8.75-11.09-.67-6.78-1.93-13.5-2.82-20.26a4.51,4.51,0,0,0-2.72-3.91c-3.52-1.78-6.92-3.82-10.25-5.94a3.94,3.94,0,0,0-4.11-.44c-6.89,2.88-13.84,5.62-20.79,8.37-6,2.37-10.44.81-13.68-4.77q-10-17.25-20-34.53c-3.26-5.66-2.33-10.39,2.79-14.4q8.92-7,17.87-13.94a3.07,3.07,0,0,0,1.35-2.88q-.21-6.68,0-13.37a3.21,3.21,0,0,0-1.44-3q-9-6.93-17.86-13.94c-5-3.89-5.95-8.64-2.84-14q10.1-17.58,20.28-35.1c3.12-5.39,7.54-6.89,13.36-4.58,7.08,2.81,14.15,5.61,21.18,8.53a3.57,3.57,0,0,0,3.74-.4c3.33-2.1,6.71-4.18,10.24-5.94a4.83,4.83,0,0,0,2.92-4.24c1-7.62,2.05-15.23,3.33-22.81A9.27,9.27,0,0,1,470,1.56q21-.12,42.09,0a9.24,9.24,0,0,1,9.59,8.2C523,17.34,524,25,525,32.57a4.67,4.67,0,0,0,2.76,4.11c3.59,1.81,7,3.92,10.43,6.06a3.54,3.54,0,0,0,3.73.38c6.82-2.85,13.7-5.57,20.57-8.31,6.36-2.54,10.8-1,14.2,4.84q10,17.18,19.87,34.35c3.27,5.66,2.34,10.35-2.81,14.39-5.83,4.57-11.65,9.15-17.53,13.66a3.7,3.7,0,0,0-1.67,3.57,111.08,111.08,0,0,1,0,12.51,3.83,3.83,0,0,0,1.75,3.75c5.88,4.51,11.7,9.09,17.53,13.66,5,4,6,8.66,2.79,14.22q-10.07,17.48-20.19,34.9c-3.14,5.41-7.54,6.93-13.34,4.63-7.14-2.83-14.28-5.68-21.38-8.62a3.3,3.3,0,0,0-3.36.36c-3.68,2.24-7.39,4.44-11.18,6.47a3.6,3.6,0,0,0-2.05,3c-.89,6.48-1.71,13-2.76,19.41a33.83,33.83,0,0,1-2.16,8C519,220.66,516.14,221.54,513.48,222.47Z"/></g><circle class="cls-4" cx="232.28" cy="361.24" r="97.68"/><circle class="cls-5" cx="232.28" cy="361.24" r="65.53"/><circle class="cls-6" cx="491.03" cy="111.99" r="46.56"/><circle class="cls-4" cx="491.03" cy="111.99" r="23.04"/></g></g></svg>