<svg xmlns="http://www.w3.org/2000/svg" xmlns:xlink="http://www.w3.org/1999/xlink" viewBox="0 0 600 600"><defs><style>.cls-1{fill:#fff;opacity:0;}.cls-2{fill:url(#Degradado_sin_nombre_45);}.cls-3{fill:#c3c2ff;isolation:isolate;}</style><linearGradient id="Degradado_sin_nombre_45" x1="519.04" y1="519" x2="76.12" y2="76.08" gradientUnits="userSpaceOnUse"><stop offset="0" stop-color="#7669f7"/><stop offset="1" stop-color="#a58ffc"/></linearGradient></defs><g id="Capa_2" data-name="Capa 2"><g id="Capa_1-2" data-name="Capa 1"><rect class="cls-1" width="600" height="600"/><g id="_5IoXnZ.tif" data-name="5IoXnZ.tif"><path class="cls-2" d="M246.1,0H353.91c9.44,2.92,13.85,9.62,15.56,19.12,2.2,12.27,5,24.44,8,36.53a10.27,10.27,0,0,0,5.06,6c9,4.15,18.35,7.57,27.43,11.59,3,1.32,5.15,1.33,7.94-.53,10.88-7.23,21.92-14.22,32.94-21.25s18.61-6.24,27.71,2.83q33.6,33.49,67.08,67.08c9.09,9.12,9.85,16.77,2.88,27.71-7.12,11.18-14.44,22.25-21.36,33.56a8.7,8.7,0,0,0-.52,6.72c3.59,9.46,7.42,18.85,11.66,28a10.24,10.24,0,0,0,6,5.08c12.29,3.05,24.66,5.85,37.11,8.16,9.31,1.72,15.73,6.27,18.58,15.45V353.9c-2.85,9.18-9.28,13.72-18.59,15.45-12.46,2.3-24.83,5.11-37.12,8.16a10.22,10.22,0,0,0-6,5.1c-4.24,9.18-8.08,18.57-11.67,28a8.72,8.72,0,0,0,.56,6.72c6.93,11.31,14.25,22.38,21.37,33.57,6.95,10.92,6.16,18.57-3,27.71q-33.3,33.38-66.7,66.67c-9.49,9.46-17,10.28-28.14,3.14-11-7-21.91-14.27-33.07-21.07a9.44,9.44,0,0,0-7.22-.63c-9.48,3.54-18.87,7.38-28.05,11.62a10.23,10.23,0,0,0-4.95,6.09c-3.09,12.69-5.67,25.5-8.43,38.26-2.6,12-9,17.22-21.36,17.24q-47.74.06-95.48,0c-12.35,0-18.62-5.21-21.26-17.34-2.77-12.77-5.35-25.58-8.45-38.26a10.25,10.25,0,0,0-5-6c-9-4.16-18.36-7.58-27.44-11.6-3-1.33-5.16-1.33-8,.52-10.89,7.23-21.93,14.23-33,21.25s-18.56,6.25-27.7-2.86q-33.6-33.49-67.1-67.1c-9.1-9.13-9.84-16.73-2.85-27.7s14-22.07,21.25-33c1.86-2.79,1.84-5,.52-7.95-4-9.08-7.45-18.43-11.6-27.44a10.25,10.25,0,0,0-6-5c-12.68-3.1-25.5-5.67-38.26-8.43C5.29,366.45.05,360.11,0,347.76Q0,300,0,252.29c0-12.37,5.24-18.75,17.27-21.35,12.76-2.77,25.5-5.68,38.32-8.17,3.61-.7,5.2-2.48,6.44-5.68,3.44-8.9,7-17.76,10.92-26.46,1.51-3.35,1.69-5.78-.48-9-7.21-10.67-14-21.58-21-32.44s-6.31-18.6,2.77-27.72q33.48-33.61,67.07-67.11c9.13-9.11,16.78-9.89,27.71-2.92,11.19,7.12,22.27,14.44,33.58,21.37a8.71,8.71,0,0,0,6.72.52q14.48-5.49,28.6-11.85a8.87,8.87,0,0,0,4.45-5.21c3-12.51,5.91-25.06,8.25-37.7C232.4,9.26,236.93,2.85,246.1,0ZM192.4,300c.06,59,48.24,107.22,107.36,107.57,58.9.34,107.91-48.58,107.86-107.65S359.34,192.69,300.26,192.38,192.34,241,192.4,300Z"/></g><circle class="cls-3" cx="304.56" cy="122.97" r="30.43"/><circle class="cls-3" cx="300" cy="480.09" r="30.43"/></g></g></svg>