<svg xmlns="http://www.w3.org/2000/svg" xmlns:xlink="http://www.w3.org/1999/xlink" viewBox="0 0 600 600"><defs><style>.cls-1{fill:#fff;opacity:0;}.cls-2{fill:url(#Degradado_sin_nombre_45);}.cls-3{fill:url(#Degradado_sin_nombre_45-2);}.cls-4{fill:url(#Degradado_sin_nombre_45-3);}.cls-5{fill:url(#Degradado_sin_nombre_45-4);}.cls-6{fill:url(#Degradado_sin_nombre_45-5);}.cls-7{fill:#7063f9;isolation:isolate;opacity:0.67;}.cls-8{fill:url(#Degradado_sin_nombre_45-6);}.cls-9{fill:url(#Degradado_sin_nombre_45-7);}.cls-10{fill:url(#Degradado_sin_nombre_45-8);}.cls-11{fill:#c3c2ff;}</style><linearGradient id="Degradado_sin_nombre_45" x1="300.2" y1="486.57" x2="102.7" y2="182.02" gradientUnits="userSpaceOnUse"><stop offset="0" stop-color="#7669f7"/><stop offset="1" stop-color="#a58ffc"/></linearGradient><linearGradient id="Degradado_sin_nombre_45-2" x1="202.04" y1="538.93" x2="6.45" y2="237.32" xlink:href="#Degradado_sin_nombre_45"/><linearGradient id="Degradado_sin_nombre_45-3" x1="670.85" y1="486.57" x2="473.35" y2="182.02" xlink:href="#Degradado_sin_nombre_45"/><linearGradient id="Degradado_sin_nombre_45-4" x1="572.69" y1="538.93" x2="377.1" y2="237.32" xlink:href="#Degradado_sin_nombre_45"/><linearGradient id="Degradado_sin_nombre_45-5" x1="240.88" y1="513.74" x2="45.29" y2="212.13" xlink:href="#Degradado_sin_nombre_45"/><linearGradient id="Degradado_sin_nombre_45-6" x1="531.26" y1="565.8" x2="335.67" y2="264.18" xlink:href="#Degradado_sin_nombre_45"/><linearGradient id="Degradado_sin_nombre_45-7" x1="529.01" y1="523.13" x2="286.79" y2="149.62" xlink:href="#Degradado_sin_nombre_45"/><linearGradient id="Degradado_sin_nombre_45-8" x1="408.63" y1="587.35" x2="168.75" y2="217.44" xlink:href="#Degradado_sin_nombre_45"/></defs><g id="Capa_2" data-name="Capa 2"><g id="Capa_1-2" data-name="Capa 1"><rect class="cls-1" width="600" height="600"/><circle class="cls-2" cx="114.57" cy="200.32" r="74.38"/><path class="cls-3" d="M100.78,281.61h27.78A100.78,100.78,0,0,1,229.35,382.39V444.3a39,39,0,0,1-39,39H39a39,39,0,0,1-39-39V382.39A100.78,100.78,0,0,1,100.78,281.61Z"/><circle class="cls-4" cx="485.23" cy="200.32" r="74.38"/><path class="cls-5" d="M471.44,281.61h27.78A100.78,100.78,0,0,1,600,382.39V444.3a39,39,0,0,1-39,39H409.67a39,39,0,0,1-39-39V382.39A100.78,100.78,0,0,1,471.44,281.61Z"/><path class="cls-6" d="M229.35,444.3V382.39a100.73,100.73,0,0,0-64.77-94,138,138,0,0,0-36.38,93.39V483.32h62.13A39,39,0,0,0,229.35,444.3Z"/><path class="cls-7" d="M229.35,444.3V382.39a100.73,100.73,0,0,0-64.77-94,138,138,0,0,0-36.38,93.39V483.32h62.13A39,39,0,0,0,229.35,444.3Z"/><path class="cls-8" d="M437.64,287.54a100.72,100.72,0,0,0-67,94.85V444.3a39,39,0,0,0,39,39h65.08V381.74A138,138,0,0,0,437.64,287.54Z"/><path class="cls-7" d="M437.64,287.54a100.72,100.72,0,0,0-67,94.85V444.3a39,39,0,0,0,39,39h65.08V381.74A138,138,0,0,0,437.64,287.54Z"/><circle class="cls-9" cx="301.35" cy="172.07" r="91.23"/><path class="cls-10" d="M284.44,271.76h34.07A123.61,123.61,0,0,1,442.12,395.37V471.3a47.85,47.85,0,0,1-47.85,47.85H208.69a47.85,47.85,0,0,1-47.85-47.85V395.37A123.61,123.61,0,0,1,284.44,271.76Z"/><rect class="cls-11" x="340.04" y="349.98" width="55.29" height="33.43" rx="11.67"/></g></g></svg>