<svg xmlns="http://www.w3.org/2000/svg" xmlns:xlink="http://www.w3.org/1999/xlink" viewBox="0 0 600 600"><defs><style>.cls-1,.cls-3{fill:#fff;}.cls-1{opacity:0;}.cls-2{fill:url(#Degradado_sin_nombre_2);}.cls-3{opacity:0.88;}.cls-4{fill:#f99bb0;opacity:0.76;}</style><linearGradient id="Degradado_sin_nombre_2" x1="87.15" y1="87.15" x2="526.54" y2="526.54" gradientUnits="userSpaceOnUse"><stop offset="0" stop-color="#ff5c4d"/><stop offset="1" stop-color="#ff395f"/></linearGradient></defs><g id="Capa_2" data-name="Capa 2"><g id="Capa_1-2" data-name="Capa 1"><rect class="cls-1" width="600" height="600"/><circle class="cls-2" cx="300" cy="300" r="300"/><path class="cls-3" d="M358.33,300,300,358.34l73.91,73.91a41.25,41.25,0,1,0,58.34-58.33Z"/><path class="cls-3" d="M226.09,167.76a41.25,41.25,0,0,0-58.34,58.33L241.67,300,300,241.67Z"/><path class="cls-3" d="M167.75,373.92a41.25,41.25,0,0,0,58.34,58.33L300,358.34,241.67,300Z"/><path class="cls-3" d="M432.25,226.09a41.25,41.25,0,1,0-58.34-58.33L300,241.67,358.33,300Z"/><rect class="cls-4" x="258.75" y="258.75" width="82.5" height="82.5" transform="translate(-124.27 300) rotate(-45)"/><rect class="cls-4" x="258.75" y="258.75" width="82.5" height="82.5" transform="translate(-124.27 300) rotate(-45)"/></g></g></svg>