<svg xmlns="http://www.w3.org/2000/svg" width="152" height="28" viewBox="0 0 152 28">
  <g id="Grupo_455" data-name="Grupo 455" transform="translate(380 -252) rotate(90)">
    <path id="Polígono_5" data-name="Polígono 5" d="M4.152,1.357a1,1,0,0,1,1.7,0l3.2,5.113A1,1,0,0,1,8.2,8H1.8A1,1,0,0,1,.956,6.47Z" transform="translate(252 228)" fill="#ff004c"/>
    <path id="Polígono_7" data-name="Polígono 7" d="M4.152,1.357a1,1,0,0,1,1.7,0l3.2,5.113A1,1,0,0,1,8.2,8H1.8A1,1,0,0,1,.956,6.47Z" transform="translate(252 260)" fill="#ff004c"/>
    <path id="Polígono_9" data-name="Polígono 9" d="M4.152,1.357a1,1,0,0,1,1.7,0l3.2,5.113A1,1,0,0,1,8.2,8H1.8A1,1,0,0,1,.956,6.47Z" transform="translate(252 292)" fill="#ff004c"/>
    <path id="Polígono_15" data-name="Polígono 15" d="M4.152,1.357a1,1,0,0,1,1.7,0l3.2,5.113A1,1,0,0,1,8.2,8H1.8A1,1,0,0,1,.956,6.47Z" transform="translate(270 292)" fill="#ff004c"/>
    <path id="Polígono_11" data-name="Polígono 11" d="M4.152,1.357a1,1,0,0,1,1.7,0l3.2,5.113A1,1,0,0,1,8.2,8H1.8A1,1,0,0,1,.956,6.47Z" transform="translate(252 324)" fill="#506698"/>
    <path id="Polígono_16" data-name="Polígono 16" d="M4.152,1.357a1,1,0,0,1,1.7,0l3.2,5.113A1,1,0,0,1,8.2,8H1.8A1,1,0,0,1,.956,6.47Z" transform="translate(270 324)" fill="#ff004c"/>
    <path id="Polígono_13" data-name="Polígono 13" d="M4.152,1.357a1,1,0,0,1,1.7,0l3.2,5.113A1,1,0,0,1,8.2,8H1.8A1,1,0,0,1,.956,6.47Z" transform="translate(252 356)" fill="#506698"/>
    <path id="Polígono_19" data-name="Polígono 19" d="M4.152,1.357a1,1,0,0,1,1.7,0l3.2,5.113A1,1,0,0,1,8.2,8H1.8A1,1,0,0,1,.956,6.47Z" transform="translate(270 356)" fill="#506698"/>
    <path id="Polígono_6" data-name="Polígono 6" d="M4.152,1.357a1,1,0,0,1,1.7,0l3.2,5.113A1,1,0,0,1,8.2,8H1.8A1,1,0,0,1,.956,6.47Z" transform="translate(252 244)" fill="#ff004c"/>
    <path id="Polígono_8" data-name="Polígono 8" d="M4.152,1.357a1,1,0,0,1,1.7,0l3.2,5.113A1,1,0,0,1,8.2,8H1.8A1,1,0,0,1,.956,6.47Z" transform="translate(252 276)" fill="#ff004c"/>
    <path id="Polígono_10" data-name="Polígono 10" d="M4.152,1.357a1,1,0,0,1,1.7,0l3.2,5.113A1,1,0,0,1,8.2,8H1.8A1,1,0,0,1,.956,6.47Z" transform="translate(252 308)" fill="#ff004c"/>
    <path id="Polígono_17" data-name="Polígono 17" d="M4.152,1.357a1,1,0,0,1,1.7,0l3.2,5.113A1,1,0,0,1,8.2,8H1.8A1,1,0,0,1,.956,6.47Z" transform="translate(270 308)" fill="#ff004c"/>
    <path id="Polígono_12" data-name="Polígono 12" d="M4.152,1.357a1,1,0,0,1,1.7,0l3.2,5.113A1,1,0,0,1,8.2,8H1.8A1,1,0,0,1,.956,6.47Z" transform="translate(252 340)" fill="#506698"/>
    <path id="Polígono_18" data-name="Polígono 18" d="M4.152,1.357a1,1,0,0,1,1.7,0l3.2,5.113A1,1,0,0,1,8.2,8H1.8A1,1,0,0,1,.956,6.47Z" transform="translate(270 340)" fill="#ff004c"/>
    <path id="Polígono_14" data-name="Polígono 14" d="M4.152,1.357a1,1,0,0,1,1.7,0l3.2,5.113A1,1,0,0,1,8.2,8H1.8A1,1,0,0,1,.956,6.47Z" transform="translate(252 372)" fill="#506698"/>
    <path id="Polígono_20" data-name="Polígono 20" d="M4.152,1.357a1,1,0,0,1,1.7,0l3.2,5.113A1,1,0,0,1,8.2,8H1.8A1,1,0,0,1,.956,6.47Z" transform="translate(270 372)" fill="#506698"/>
  </g>
</svg>
