<svg id="Grupo_10" data-name="Grupo 10" xmlns="http://www.w3.org/2000/svg" xmlns:xlink="http://www.w3.org/1999/xlink" width="312.664" height="78.82" viewBox="0 0 312.664 78.82">
  <defs>
    <clipPath id="clip-path">
      <rect id="Rectángulo_23" data-name="Rectángulo 23" width="312.664" height="78.82" fill="none"/>
    </clipPath>
  </defs>
  <g id="Grupo_9" data-name="Grupo 9" clip-path="url(#clip-path)">
    <path id="Trazado_11" data-name="Trazado 11" d="M270.961,100.914c2.388,6.19,5.255,12.874,8.019,18.757H264.9l-4.285-13.794c-.549-1.776-1.345-2.512-3.118-2.512h-2.021l-3.489,16.305H239.811l9.18-43.278h16.828c8.2,0,16.158,2.942,16.158,11.524,0,7.172-4.345,11.342-11.016,13m-7.588-16.061H259.4L257.068,95.58h4.409c3.854,0,8.145-1.471,8.145-6.193-.005-3.555-3.25-4.535-6.252-4.535Z" transform="translate(-159.589 -50.838)"/>
    <path id="Trazado_12" data-name="Trazado 12" d="M375.19,124.722c-1.469,0-2.937-.123-4.406-.247a5.146,5.146,0,0,0,.063.982c.3,3.923,3.415,5.518,7.4,5.518a17.275,17.275,0,0,0,8.508-2.391l1.1,7.969a31.264,31.264,0,0,1-12.546,2.575c-8.447,0-15.483-4.046-15.483-13.365,0-11.708,7.772-21.7,19.95-21.7,5.63,0,11.936,2.512,11.936,9.2,0,9.009-9.12,11.463-16.526,11.463m2.877-13.61c-3.61,0-5.63,3.371-6.364,6.681.977.063,1.958.123,2.938.123,2.569,0,6.363-.788,6.363-4.046a2.753,2.753,0,0,0-2.752-2.754c-.061,0-.123,0-.185.006Z" transform="translate(-239.46 -69.252)"/>
    <path id="Trazado_13" data-name="Trazado 13" d="M484.4,116.006h-10.28l1.345-6.253c-2.693,3.25-6.608,7.173-11.506,7.173-6.426,0-9.18-5.578-9.18-11.708,0-10.727,5.875-23.121,17.866-23.121a9.253,9.253,0,0,1,7.16,2.451l2.938-13.662h11.2ZM474.179,89.77c-6,0-7.651,8.407-7.651,12.751,0,3.126.98,4.729,2.877,4.729,2.388,0,4.958-3.066,6.242-5.15a5.311,5.311,0,0,0,.857-2.023l1.408-6.306c.552-2.714-1.285-4-3.734-4" transform="translate(-302.646 -47.174)"/>
    <path id="Trazado_14" data-name="Trazado 14" d="M599.8,84.731a16.48,16.48,0,0,0-8.144-2.147c-9.427,0-14.451,7.785-14.451,16.489a9.067,9.067,0,0,0,9.984,9.687,16.243,16.243,0,0,0,8.263-2.086l1.224,9.319a31.342,31.342,0,0,1-12.546,2.391c-11.2,0-19.4-6.437-19.4-17.9,0-15.081,10.341-27.587,27.356-27.587a34.832,34.832,0,0,1,12.057,1.96Z" transform="translate(-375.814 -48.509)" fill="#ff004c"/>
    <path id="Trazado_15" data-name="Trazado 15" d="M681.147,139c-8.447,0-14.505-4.23-14.505-13.363,0-11.892,7.9-21.947,20.2-21.947,8.507,0,14.566,4.291,14.566,13.365,0,11.892-7.958,21.944-20.257,21.944m4.466-27.217c-5.386,0-7.357,9.38-7.357,13.426,0,2.759.857,5.7,4.162,5.7,5.326,0,7.357-9.319,7.357-13.426,0-2.7-.859-5.7-4.161-5.7Z" transform="translate(-443.637 -69.006)" fill="#ff004c"/>
    <path id="Trazado_16" data-name="Trazado 16" d="M791.8,116.006a4.543,4.543,0,0,0-2.693-.859,8.309,8.309,0,0,0-5.874,3.494,6.476,6.476,0,0,0-1.345,3.187l-3.55,16.736H767.081l5.018-23.785c.673-3,1.225-6.8,1.653-9.2h9.984l-1.408,6.742c2.449-3.555,5.814-7.54,10.342-7.54a9.934,9.934,0,0,1,2.756.431Z" transform="translate(-510.477 -69.732)" fill="#ff004c"/>
    <path id="Trazado_17" data-name="Trazado 17" d="M854.708,124.722c-1.469,0-2.94-.123-4.409-.247a5.149,5.149,0,0,0,.063.982c.3,3.923,3.416,5.518,7.4,5.518a17.267,17.267,0,0,0,8.508-2.391l1.1,7.969a31.265,31.265,0,0,1-12.546,2.575c-8.444,0-15.483-4.046-15.483-13.365,0-11.708,7.772-21.7,19.952-21.7,5.63,0,11.933,2.512,11.933,9.2-.01,9.009-9.12,11.463-16.523,11.463m2.874-13.61c-3.61,0-5.63,3.371-6.363,6.681.98.063,1.957.123,2.938.123,2.57,0,6.363-.788,6.363-4.046a2.753,2.753,0,0,0-2.753-2.754c-.062,0-.123,0-.185.006Z" transform="translate(-558.568 -69.252)" fill="#ff004c"/>
    <path id="Trazado_18" data-name="Trazado 18" d="M106.362,19.992l-3.055-2.851A69.6,69.6,0,0,0,85.07,29.723a13.785,13.785,0,0,1,12.11-3.589c7.294,1.679,8.733,7.908,8.029,14.046a30.6,30.6,0,0,1-.58,3.337,57.053,57.053,0,0,1-3.069,9.138c-.67,1.639-1.185,2.659-1.353,2.982a50.874,50.874,0,0,1-8.284,12.59,73.074,73.074,0,0,1-19.59,18.008l2.123,1.978a7.485,7.485,0,0,0,7.3,1.684L113,80.3a7.5,7.5,0,0,0,5.107-5.494l7.322-31.9a7.52,7.52,0,0,0-2.2-7.178Z" transform="translate(-48.136 -11.407)" fill="#ff004c"/>
    <path id="Trazado_19" data-name="Trazado 19" d="M29.277,62.738c-8.626-1.986-9.1-10.181-7.446-17.383a53.071,53.071,0,0,1,2.1-6.773c.357-.943.749-1.91,1.174-2.89a41.577,41.577,0,0,1,4.6-8.786,36.8,36.8,0,0,1,7.217-8.589A69.59,69.59,0,0,1,55.162,5.735L51.168,2.012A7.485,7.485,0,0,0,43.867.33L12.62,9.931a7.5,7.5,0,0,0-5.1,5.494L.19,47.328a7.514,7.514,0,0,0,2.2,7.175l21.4,19.952.4.373a73.074,73.074,0,0,0,19.59-18.008c-4.159,4.432-9.1,7.162-14.5,5.917" transform="translate(0 0)" fill="#910d33"/>
  </g>
</svg>
