<svg id="Grupo_4" data-name="Grupo 4" xmlns="http://www.w3.org/2000/svg" xmlns:xlink="http://www.w3.org/1999/xlink" width="32" height="32" viewBox="0 0 32 32">
  <defs>
    <clipPath id="clip-path">
      <rect id="Rectángulo_17" data-name="Rectángulo 17" width="32" height="32" fill="none"/>
    </clipPath>
  </defs>
  <g id="Grupo_3" data-name="Grupo 3" clip-path="url(#clip-path)">
    <path id="Trazado_10" data-name="Trazado 10" d="M30.813,9.6,22.987,2.422,22.964,2.4,21.416.983A3.781,3.781,0,0,0,17.78.16L5.511,3.869A3.705,3.705,0,0,0,2.97,6.559L.094,18.884A3.652,3.652,0,0,0,1.188,22.4l8.4,7.709.158.144c.006.005.012.009.018.013l.818.75a3.782,3.782,0,0,0,3.637.825l12.268-3.709a3.709,3.709,0,0,0,2.542-2.69l2.875-12.326A3.655,3.655,0,0,0,30.813,9.6m-13.4,12.586-.01.008c-1.655,1.736-3.318,2.429-4.942,2.061h0a2.972,2.972,0,0,1-2.4-2.076,7.258,7.258,0,0,1,.066-3.7,19.58,19.58,0,0,1,.8-2.522c.139-.361.289-.725.447-1.082l.014-.034a15.217,15.217,0,0,1,1.719-3.23l.024-.036A13.477,13.477,0,0,1,15.8,8.433l.007-.007c.007-.006.015-.01.022-.017h0a4.683,4.683,0,0,1,4.048-1.187c1.981.455,2.833,2,2.532,4.577a10.892,10.892,0,0,1-.211,1.2A21.094,21.094,0,0,1,21.04,16.4l-.006.015c-.245.59-.432.957-.5,1.088l-.016.032a18.842,18.842,0,0,1-3.106,4.651M1.63,19.231,4.506,6.905A2.141,2.141,0,0,1,5.974,5.351L18.243,1.642a2.183,2.183,0,0,1,2.1.475l.739.678c-.063.033-.124.068-.187.1q-.242.128-.481.26c-.094.052-.189.1-.283.157q-.3.169-.588.345-.151.091-.3.183-.285.176-.566.359c-.1.064-.2.13-.295.2q-.21.141-.417.285t-.4.285q-.2.141-.389.286c-.1.073-.2.146-.293.221q-.256.2-.508.4-.152.122-.3.247-.244.2-.483.41c-.1.087-.2.176-.3.265s-.211.19-.315.287c-.072.066-.145.13-.216.2a15.041,15.041,0,0,0-2.963,3.469A16.769,16.769,0,0,0,9.916,14.27c-.165.375-.322.756-.466,1.13a21.137,21.137,0,0,0-.858,2.722c-.966,4.134.315,6.92,3.515,7.645a5.375,5.375,0,0,0,1.965.08,27.759,27.759,0,0,1-3.7,2.858L2.263,21.263a2.112,2.112,0,0,1-.633-2.032m28.739-6.465L27.494,25.093a2.143,2.143,0,0,1-1.469,1.554L13.758,30.356a2.183,2.183,0,0,1-2.1-.477l-.1-.088a29.159,29.159,0,0,0,7.027-6.573A20.389,20.389,0,0,0,21.94,18.2c.085-.162.291-.57.55-1.193a22.653,22.653,0,0,0,1.246-3.656,12.509,12.509,0,0,0,.243-1.376c.4-3.4-.938-5.632-3.759-6.27l-.03-.006a6.309,6.309,0,0,0-.817-.1,26.655,26.655,0,0,1,2.934-1.684l.8.738h0l6.626,6.077a2.115,2.115,0,0,1,.632,2.033" transform="translate(0 0.001)" fill="#fff"/>
  </g>
</svg>
