<svg xmlns="http://www.w3.org/2000/svg" xmlns:xlink="http://www.w3.org/1999/xlink" width="32.991" height="30.777" viewBox="0 0 32.991 30.777">
  <defs>
    <clipPath id="clip-path">
      <rect id="Rectángulo_497" data-name="Rectángulo 497" width="32.991" height="30.777" transform="translate(0 0)" fill="none"/>
    </clipPath>
  </defs>
  <g id="Grupo_1501" data-name="Grupo 1501" transform="translate(0 0)">
    <g id="Grupo_1501-2" data-name="Grupo 1501" transform="translate(0 0)" clip-path="url(#clip-path)">
      <path id="Trazado_544" data-name="Trazado 544" d="M22.937,62.168,17.191,52.053a3.455,3.455,0,0,0-2.722-1.581H2.872a1.044,1.044,0,0,0-1.017.5h0l-.547,1.014a1.12,1.12,0,0,1,.95-.389h11.6a3.455,3.455,0,0,1,2.722,1.581L22.321,63.3a1.152,1.152,0,0,1,.149.986L23,63.307h0a1.044,1.044,0,0,0-.064-1.139" transform="translate(-0.882 -34.061)" fill="#fff"/>
      <path id="Trazado_545" data-name="Trazado 545" d="M1,55.7H1Z" transform="translate(-0.676 -37.587)" fill="#fff"/>
      <path id="Trazado_546" data-name="Trazado 546" d="M13.549,54.5a2.879,2.879,0,0,1,2.231,1.3l5.746,10.115a.6.6,0,0,1,.1.525.624.624,0,0,1-.524.175h-.019l-11.6-.132A2.878,2.878,0,0,1,7.3,65.2L1.557,55.219a.628.628,0,0,1-.111-.546.6.6,0,0,1,.5-.169Zm0-.564H1.952c-.985,0-1.379.7-.883,1.56l5.747,9.983a3.453,3.453,0,0,0,2.669,1.562l11.6.132h.025c.988,0,1.4-.686.911-1.542L16.27,55.521a3.455,3.455,0,0,0-2.722-1.581" transform="translate(-0.577 -36.401)" fill="#fff"/>
      <path id="Trazado_547" data-name="Trazado 547" d="M66.047,1.122h0Z" transform="translate(-44.571 -0.757)" fill="#fff"/>
      <path id="Trazado_548" data-name="Trazado 548" d="M22.584,3.365h0L21.91,1.988a1.254,1.254,0,0,1-.187.934L15.9,13.035a3.5,3.5,0,0,1-2.7,1.583l-11.747.134a1.163,1.163,0,0,1-1.013-.408L1.124,15.8h0a1.085,1.085,0,0,0,1.081.525l11.746-.134a3.5,3.5,0,0,0,2.7-1.583L22.477,4.494a1.114,1.114,0,0,0,.107-1.13" transform="translate(-0.296 -1.342)" fill="#fff"/>
      <path id="Trazado_549" data-name="Trazado 549" d="M.09,39.244h0l0,.007,0-.007" transform="translate(-0.06 -26.484)" fill="#fff"/>
      <path id="Trazado_550" data-name="Trazado 550" d="M20.532.564a.613.613,0,0,1,.518.175.641.641,0,0,1-.112.56L15.116,11.412a2.923,2.923,0,0,1-2.221,1.3l-11.746.134H1.13a.638.638,0,0,1-.537-.18.619.619,0,0,1,.1-.539L6.518,1.88A2.924,2.924,0,0,1,8.784.564Zm0-.564H8.784A3.5,3.5,0,0,0,6.027,1.6L.207,11.848c-.493.867-.078,1.562.922,1.562h.025L12.9,13.276a3.5,3.5,0,0,0,2.7-1.583L21.427,1.581c.5-.872.1-1.581-.895-1.581" transform="translate(0 0)" fill="#fff"/>
      <path id="Trazado_551" data-name="Trazado 551" d="M66.53,12.334c.115,0,.266.142.384.361l5.316,9.83a2.817,2.817,0,0,1-.057,2.441l-5.8,9.642c-.155.259-.313.351-.4.351-.112,0-.254-.132-.37-.344l-5.426-9.9a2.818,2.818,0,0,1,.066-2.486l5.907-9.576c.147-.238.291-.323.378-.323m0-.564a1.058,1.058,0,0,0-.858.59l-5.907,9.576a3.352,3.352,0,0,0-.08,3.053l5.426,9.9a1.039,1.039,0,0,0,.865.637,1.092,1.092,0,0,0,.885-.624l5.8-9.642a3.349,3.349,0,0,0,.069-3l-5.315-9.83a1.061,1.061,0,0,0-.881-.656" transform="translate(-40.056 -7.943)" fill="#fff"/>
      <path id="Trazado_552" data-name="Trazado 552" d="M61.777,34.885l-5.426-9.9a3.353,3.353,0,0,1,.081-3.053l5.907-9.576a1.079,1.079,0,0,1,.815-.587v0H61.572v0a1.064,1.064,0,0,0-.84.588l-5.907,9.576a3.353,3.353,0,0,0-.081,3.053l5.426,9.9a1.024,1.024,0,0,0,.889.635h1.553a1.054,1.054,0,0,1-.835-.635" transform="translate(-36.722 -7.943)" fill="#fff"/>
      <path id="Trazado_553" data-name="Trazado 553" d="M79.787,84.81h0Z" transform="translate(-53.844 -57.233)" fill="#fff"/>
    </g>
  </g>
</svg>
