<?xml version="1.0" standalone="no"?>
<!DOCTYPE svg PUBLIC "-//W3C//DTD SVG 20010904//EN"
 "http://www.w3.org/TR/2001/REC-SVG-20010904/DTD/svg10.dtd">
<svg version="1.0" xmlns="http://www.w3.org/2000/svg"
 width="160.000000pt" height="160.000000pt" viewBox="0 0 160.000000 160.000000"
 preserveAspectRatio="xMidYMid meet">
<metadata>
Created by potrace 1.14, written by Peter Selinger 2001-2017
</metadata>
<g transform="translate(0.000000,160.000000) scale(0.100000,-0.100000)"
fill="#000000" stroke="none">
<path d="M365 1524 c-51 -26 -63 -42 -177 -243 -61 -108 -124 -218 -140 -246
-52 -91 -52 -89 -34 -137 32 -81 32 -81 158 -81 486 4 515 5 555 27 20 12 49
39 64 61 51 77 289 498 289 512 0 33 -42 111 -63 117 -12 3 -157 6 -322 6
-253 0 -305 -3 -330 -16z"/>
<path d="M1188 1348 c-15 -5 -29 -16 -33 -25 -3 -9 -49 -87 -103 -172 -53 -86
-101 -164 -107 -173 -5 -9 -27 -45 -49 -80 -62 -101 -58 -118 59 -333 54 -99
111 -205 127 -235 63 -116 65 -119 111 -122 82 -6 80 -8 246 268 141 236 153
259 153 303 -1 28 -9 62 -20 82 -10 19 -40 75 -67 124 -163 306 -198 365 -214
366 -9 0 -30 2 -47 3 -16 1 -42 -2 -56 -6z"/>
<path d="M73 740 c-21 -9 -51 -50 -36 -50 4 0 0 -5 -9 -10 -11 -7 -15 -19 -12
-35 5 -29 276 -500 307 -533 46 -50 57 -52 379 -56 260 -4 306 -3 326 10 14 9
21 21 18 30 -3 8 -2 12 3 9 11 -6 26 33 22 55 -2 8 -55 107 -119 220 -63 113
-124 221 -135 240 -37 66 -57 88 -100 108 -39 19 -63 20 -332 20 -160 0 -300
-4 -312 -8z"/>
</g>
</svg>
